<?xml version="1.0" encoding="UTF-8" standalone="no"?>
<svg
   xmlns:dc="http://purl.org/dc/elements/1.1/"
   xmlns:cc="http://creativecommons.org/ns#"
   xmlns:rdf="http://www.w3.org/1999/02/22-rdf-syntax-ns#"
   xmlns:svg="http://www.w3.org/2000/svg"
   xmlns="http://www.w3.org/2000/svg"
   xmlns:sodipodi="http://sodipodi.sourceforge.net/DTD/sodipodi-0.dtd"
   xmlns:inkscape="http://www.inkscape.org/namespaces/inkscape"
   inkscape:version="1.0 (4035a4fb49, 2020-05-01)"
   sodipodi:docname="button-colour.svg"
   id="svg4"
   version="1.1"
   height="256"
   width="256">
  <metadata
     id="metadata10">
    <rdf:RDF>
      <cc:Work
         rdf:about="">
        <dc:format>image/svg+xml</dc:format>
        <dc:type
           rdf:resource="http://purl.org/dc/dcmitype/StillImage" />
      </cc:Work>
    </rdf:RDF>
  </metadata>
  <defs
     id="defs8" />
  <sodipodi:namedview
     inkscape:current-layer="svg4"
     inkscape:window-maximized="1"
     inkscape:window-y="0"
     inkscape:window-x="1920"
     inkscape:cy="128"
     inkscape:cx="128"
     inkscape:zoom="4.4804688"
     showgrid="false"
     id="namedview6"
     inkscape:window-height="2063"
     inkscape:window-width="3840"
     inkscape:pageshadow="2"
     inkscape:pageopacity="0"
     guidetolerance="10"
     gridtolerance="10"
     objecttolerance="10"
     borderopacity="1"
     bordercolor="#666666"
     pagecolor="#ffffff" />
  <path
     style="stroke-width:1.14286"
     id="path2"
     fill="#73ba25"
     d="M 128.00087,4.2300079e-4 A 127.99878,127.99956 0 0 0 27.232793,49.316047 c 15.612384,4.171089 26.662572,7.755862 29.972032,8.867744 0.05186,-2.030511 0.388596,-20.191025 0.388596,-20.191025 0,0 0.04275,-0.415713 0.26458,-0.632459 0.285685,-0.278975 0.698663,-0.194732 0.698663,-0.194732 4.106296,0.594781 91.753966,13.586625 128.697926,35.115167 4.56242,2.669108 6.81439,5.506912 9.62826,8.383877 10.2124,10.562131 23.70655,54.480481 25.15585,63.537031 0.0569,0.35581 -0.38277,0.74232 -0.57052,0.88878 h -0.005 c -1.04923,0.81873 -2.19188,1.67005 -3.33619,2.43078 -8.74177,5.86505 -28.88074,19.96264 -54.71865,17.66099 -23.20902,-2.05317 -53.53113,-15.36632 -90.085622,-39.45179 3.594067,8.41499 7.135259,16.85602 10.678314,25.29239 5.293728,2.74954 56.388908,28.78593 81.606668,28.27729 20.31131,-0.42312 42.03457,-10.33014 50.72508,-15.56083 0,0 1.9098,-1.15061 2.74089,-0.50842 0.9091,0.70231 0.65759,1.77842 0.44234,2.87739 -0.53465,2.49469 -1.75184,7.04615 -2.57964,9.20662 l -0.69867,1.76106 c -0.99481,2.6653 -1.94967,5.14263 -3.79096,6.66832 -5.11952,4.65517 -13.29068,8.3589 -26.09425,13.9236 -19.79067,8.65714 -51.89918,14.16278 -81.71003,13.97334 -10.67721,-0.2377 -20.992622,-1.4224 -30.050579,-2.48051 -18.588898,-2.09867 -33.71384,-3.80131 -42.936515,2.86913 A 127.99878,127.99956 0 0 0 128.00077,256 127.99878,127.99956 0 0 0 256,128.00011 127.99878,127.99956 0 0 0 128.00077,0 Z M 156.55079,74.269555 c -10.01871,-0.319404 -19.57207,3.216053 -26.89627,10.054135 -7.32086,6.81543 -11.51029,16.10714 -11.88134,26.11936 -0.69215,20.65457 15.52409,38.05817 36.16075,38.81911 10.06422,0.33782 19.59686,-3.19997 26.92109,-10.07889 7.30222,-6.79427 11.49166,-16.08641 11.88134,-26.09862 0.70908,-20.63617 -15.52668,-38.076381 -36.18557,-38.815095 z M 156.2366,85.31598 c 14.43764,0.51223 25.74126,12.64068 25.25507,27.07419 -0.22288,6.96063 -3.15918,13.41305 -8.25986,18.19819 -5.10811,4.7629 -11.78435,7.23961 -18.7894,7.02794 -14.4042,-0.53128 -25.70818,-12.67392 -25.22198,-27.11123 0.21167,-6.98667 3.20621,-13.43973 8.28467,-18.20264 5.07826,-4.7629 11.72264,-7.23897 18.7315,-6.98645 z m 4.27876,13.12562 c -6.41489,0 -11.59607,3.45227 -11.59607,7.74739 0,4.25448 5.18118,7.72665 11.59607,7.72665 6.41111,0 11.61263,-3.47238 11.61263,-7.72665 0,-4.29512 -5.19792,-7.74739 -11.61263,-7.74739 z" />
</svg>
