<svg xmlns="http://www.w3.org/2000/svg" viewBox="0 0 512 512">
<path d="M 370.03711 29.257812 L 370.03711 238.60156 L 370.03711 249.61914 L 370.03711 256.91602 A 128 128 0 0 1 384 256 A 128 128 0 0 1 410.80078 258.90039 L 393.17383 249.59375 L 393.17383 62.310547 L 370.03711 29.257812 z M 260.13086 62.816406 L 260.13086 260.58984 L 280.37695 256.53711 L 280.37695 97.017578 L 260.13086 62.816406 z M 150.27539 95.519531 L 150.22461 282.58008 L 170.52148 278.51562 L 170.52148 128.57422 L 150.27539 95.519531 z M 471.88477 291.1543 A 128 128 0 0 1 506.6582 347.72266 L 503.95117 308.08594 L 471.88477 291.1543 z M 510.43164 402.93555 A 128 128 0 0 1 503.60352 429.16602 L 512 425.9082 L 510.43164 402.93555 z " fill="#636a72" />
<path d="M 370.03711 29.257812 L 315.08398 62.310547 L 315.08398 249.5957 L 294.83789 253.64844 L 268.80859 258.85547 L 260.13086 260.5918 L 260.13086 62.310547 L 205.17773 95.367188 L 205.17773 271.58789 L 182.03906 276.21484 L 156.00781 281.42188 L 150.22266 282.58203 L 150.22266 95.367188 L 95.269531 128.41992 L 95.269531 293.57422 L 22.205078 308.08789 L 0 425.91016 L 156.00781 449.13867 L 288.37109 468.8457 A 128 128 0 0 1 256 384 A 128 128 0 0 1 370.03711 256.91602 L 370.03711 249.62109 L 370.03711 238.60547 L 370.03711 29.257812 z " fill="#868e96" />
<circle r="96" cy="384" cx="384" fill="#f0ad4e" />
</svg>
