<svg xmlns="http://www.w3.org/2000/svg" viewBox="0 0 512 512">
<path fill="#636a72" d="M 370.03711 29.257812 L 370.03711 238.60156 L 370.03711 249.61914 L 370.03711 304.45508 L 400 334.41797 L 447.20898 287.20898 A 30.375918 30.375918 0 0 1 454.39258 281.91797 L 393.17383 249.59375 L 393.17383 62.310547 L 370.03711 29.257812 z M 260.13086 62.816406 L 260.13086 260.58984 L 280.37695 256.53711 L 280.37695 97.017578 L 260.13086 62.816406 z M 150.27539 95.519531 L 150.22461 282.58008 L 170.52148 278.51562 L 170.52148 128.57422 L 150.27539 95.519531 z M 507.375 358.20703 L 465.58203 400 L 497.22461 431.64258 L 512 425.9082 L 507.375 358.20703 z M 400 465.58203 L 393.80664 471.77539 L 402.73047 468.3125 L 400 465.58203 z " />
<path fill="#868e96" d="M 370.03711 29.257812 L 315.08398 62.310547 L 315.08398 249.5957 L 294.83789 253.64844 L 268.80859 258.85547 L 260.13086 260.5918 L 260.13086 62.310547 L 205.17773 95.367188 L 205.17773 271.58789 L 182.03906 276.21484 L 156.00781 281.42188 L 150.22266 282.58203 L 150.22266 95.367188 L 95.269531 128.41992 L 95.269531 293.57422 L 22.205078 308.08789 L 0 425.91016 L 156.00781 449.13867 L 278.38086 467.35742 A 30.375918 30.375918 0 0 1 287.20898 447.20898 L 334.41797 400 L 287.20898 352.79102 A 30.375918 30.375918 0 0 1 287.20898 309.83789 L 309.83789 287.20898 A 30.375918 30.375918 0 0 1 330.86719 278.31641 A 30.375918 30.375918 0 0 1 352.79102 287.20898 L 370.03711 304.45508 L 370.03711 249.62109 L 370.03711 238.60547 L 370.03711 29.257812 z " />
<path d="M 331.31445 308.68555 L 308.68555 331.31445 L 377.37109 400 L 308.68555 468.68555 L 331.31445 491.31445 L 400 422.62891 L 468.68555 491.31445 L 491.31445 468.68555 L 422.62891 400 L 491.31445 331.31445 L 468.68555 308.68555 L 400 377.37109 L 331.31445 308.68555 z " fill="#dc3545" />
</svg>
