<svg xmlns="http://www.w3.org/2000/svg" viewBox="0 0 512 512">
<path d="M 370.03711 29.257812 L 370.03711 238.60156 L 370.03711 249.61914 L 370.03711 382.45117 L 464.24414 288.24414 A 28.911886 28.911886 0 0 1 465.01562 287.52734 L 393.17383 249.59375 L 393.17383 62.310547 L 370.03711 29.257812 z M 260.13086 62.816406 L 260.13086 260.58984 L 280.37695 256.53711 L 280.37695 97.017578 L 260.13086 62.816406 z M 150.27539 95.519531 L 150.22461 282.58008 L 170.52148 278.51562 L 170.52148 128.57422 L 150.27539 95.519531 z M 508.26562 371.24414 L 416.56641 462.94336 L 512 425.9082 L 508.26562 371.24414 z " fill="#636a72" />
<path d="M 370.03711 29.257812 L 315.08398 62.310547 L 315.08398 249.5957 L 294.83789 253.64844 L 268.80859 258.85547 L 260.13086 260.5918 L 260.13086 62.310547 L 205.17773 95.367188 L 205.17773 271.58789 L 182.03906 276.21484 L 156.00781 281.42188 L 150.22266 282.58203 L 150.22266 95.367188 L 95.269531 128.41992 L 95.269531 293.57422 L 22.205078 308.08789 L 0 425.91016 L 156.00781 449.13867 L 256.60547 464.11523 L 208.24414 415.75586 A 28.911886 28.911886 0 0 1 208.24219 374.87305 L 230.86914 352.24414 A 28.911886 28.911886 0 0 1 271.75391 352.24414 L 336 416.48828 L 370.03711 382.45117 L 370.03711 317.95898 L 370.03711 249.62109 L 370.03711 238.60547 L 370.03711 29.257812 z " fill="#868e96" />
<path d="M 484.68555,308.68555 336,457.37109 251.3125,372.68555 228.68555,395.31445 336,502.62695 507.3125,331.31445 Z" fill="#008000" />
</svg>
