<svg xmlns="http://www.w3.org/2000/svg" viewBox="0 0 512 512">
<path fill="#636a72" d="M 370.03711 29.257812 L 370.03711 238.60156 L 370.03711 249.61914 L 370.03711 481 L 512 425.9082 L 503.95117 308.08594 L 393.17383 249.59375 L 393.17383 62.310547 L 370.03711 29.257812 z M 260.13086 62.816406 L 260.13086 260.58984 L 280.37695 256.53711 L 280.37695 97.017578 L 260.13086 62.816406 z M 150.27539 95.519531 L 150.22461 282.58008 L 170.52148 278.51562 L 170.52148 128.57422 L 150.27539 95.519531 z " />
<path d="m 370.03711,29.257812 -54.9534,33.0529 V 249.59485 l -20.24619,4.05275 -26.02943,5.20706 -8.67777,1.73633 V 62.310712 L 205.17691,95.367517 V 271.58715 l -23.13878,4.62697 -26.02942,5.20706 -5.78519,1.16016 V 95.367517 L 95.270119,128.42041 V 293.57359 L 22.205302,308.08733 1.1313e-4,425.91018 156.00871,449.13881 l 164.6766,24.5177 49.3518,7.34574 V 317.95847 249.62024 238.60456 Z" fill="#868e96" />
</svg>
