<svg enable-background="new 0 0 1024 768" version="1.1" viewBox="0 0 354.06 312.39" xmlns="http://www.w3.org/2000/svg">
 <polygon transform="matrix(2.0001 0 0 2.0001 -448.14 -550.63)" points="360 286.73 360 351.49 398.3 371.71 401.08 412.45 352 431.5 352 351.5 352 347.69 352 275.3" fill="#d1d1d1"/>
 <g transform="matrix(2.0001 0 0 2.0001 -448.14 -550.63)">
  <polygon points="321 298.73 314 286.91 314 355.29 321 353.89" fill="#d1d1d1"/>
  <polygon points="283.02 309.64 276.02 298.22 276 362.89 283.02 361.49" fill="#d1d1d1"/>
  <polygon points="326 352.89 317 354.69 314 355.29 314 286.73 295 298.16 295 359.09 287 360.69 278 362.49 276 362.89 276 298.16 257 309.59 257 366.69 231.74 371.71 224.06 412.45 278 420.48 334.94 428.96 352 431.5 352 375.12 352 351.5 352 347.69 352 275.3 333 286.73 333 351.49" fill="#cecece"/>
 </g>
 <polygon transform="matrix(2.0001 0 0 2.0001 -448.14 -550.63)" points="257 309.59 257 366.69 231.74 371.71 224.06 412.45 352 431.5 352 351.5 352 347.69 352 275.3 333 286.73 333 351.49 314 355.29 314 286.73 295 298.16 295 359.09 276 362.89 276 298.16" fill="#fff"/>
 <text x="552.16913" y="63.681477" fill="#000000" font-family="sans-serif" font-size="40px" letter-spacing="0px" stroke-width="1px" word-spacing="0px" style="line-height:125%" xml:space="preserve"><tspan x="552.16913" y="100.46229"/><tspan x="552.16913" y="150.46223"/></text>
</svg>
