<?xml version="1.0" encoding="UTF-8" standalone="no"?>
<svg
   xmlns:dc="http://purl.org/dc/elements/1.1/"
   xmlns:cc="http://creativecommons.org/ns#"
   xmlns:rdf="http://www.w3.org/1999/02/22-rdf-syntax-ns#"
   xmlns:svg="http://www.w3.org/2000/svg"
   xmlns="http://www.w3.org/2000/svg"
   xmlns:sodipodi="http://sodipodi.sourceforge.net/DTD/sodipodi-0.dtd"
   xmlns:inkscape="http://www.inkscape.org/namespaces/inkscape"
   xml:space="preserve"
   enable-background="new 0 0 1024 768"
   viewBox="0 0 256 256"
   height="256"
   width="256"
   y="0px"
   x="0px"
   id="Ebene_1"
   version="1.1"
   sodipodi:docname="obs-logo_small.svg"
   inkscape:version="1.0 (4035a4fb49, 2020-05-01)"><sodipodi:namedview
   inkscape:document-rotation="0"
   pagecolor="#ffffff"
   bordercolor="#666666"
   borderopacity="1"
   objecttolerance="10"
   gridtolerance="10"
   guidetolerance="10"
   inkscape:pageopacity="0"
   inkscape:pageshadow="2"
   inkscape:window-width="3840"
   inkscape:window-height="2063"
   id="namedview993"
   showgrid="false"
   inkscape:zoom="3.0623483"
   inkscape:cx="333.58653"
   inkscape:cy="192.22623"
   inkscape:window-x="1920"
   inkscape:window-y="0"
   inkscape:window-maximized="1"
   inkscape:current-layer="Ebene_1" /><metadata
   id="metadata35"><rdf:RDF><cc:Work
       rdf:about=""><dc:format>image/svg+xml</dc:format><dc:type
         rdf:resource="http://purl.org/dc/dcmitype/StillImage" /><dc:title /></cc:Work></rdf:RDF></metadata><defs
   id="defs33" /><path
   id="polygon3"
   style="fill:#b3b3b3;fill-opacity:1;stroke-width:1.44614"
   d="m 185.01818,15.064148 v 104.672202 5.50891 115.69003 L 256,213.3893 251.97529,154.4788 196.58818,125.23255 V 31.590891 Z m -54.95216,16.779523 v 98.886499 l 10.12251,-2.02648 V 48.94376 Z m -54.928152,16.351634 -0.02545,93.530105 10.149338,-2.03213 V 64.72346 Z" /><polygon
   style="fill:#808080;fill-opacity:1"
   transform="matrix(1.4461343,0,0,1.4461343,-324.02086,-383.06386)"
   id="polygon13"
   points="257,366.692 231.738,371.71 224.06,412.447 352,431.495 352,351.495 352,347.686 352,275.305 333,286.733 333,351.486 314,355.288 314,286.733 295,298.162 295,359.09 276,362.891 276,298.162 257,309.59 " />
</svg>
