<?xml version="1.0" encoding="UTF-8" standalone="no"?>
<!-- Generator: Adobe Illustrator 15.0.2, SVG Export Plug-In . SVG Version: 6.00 Build 0)  -->

<svg
   xmlns:dc="http://purl.org/dc/elements/1.1/"
   xmlns:cc="http://creativecommons.org/ns#"
   xmlns:rdf="http://www.w3.org/1999/02/22-rdf-syntax-ns#"
   xmlns:svg="http://www.w3.org/2000/svg"
   xmlns="http://www.w3.org/2000/svg"
   xmlns:xlink="http://www.w3.org/1999/xlink"
   xmlns:sodipodi="http://sodipodi.sourceforge.net/DTD/sodipodi-0.dtd"
   xmlns:inkscape="http://www.inkscape.org/namespaces/inkscape"
   version="1.1"
   id="Ebene_1"
   x="0px"
   y="0px"
   width="578.16699"
   height="400.66431"
   viewBox="0 0 578.167 400.66431"
   enable-background="new 0 0 1024 768"
   xml:space="preserve"
   inkscape:version="0.92.1 r"
   sodipodi:docname="obs-down.svg"
   inkscape:export-filename="/home/hvogel/Development/Apps/open-build-service/src/api/public/obs-down.png"
   inkscape:export-xdpi="90.090378"
   inkscape:export-ydpi="90.090378"><metadata
     id="metadata35"><rdf:RDF><cc:Work
         rdf:about=""><dc:format>image/svg+xml</dc:format><dc:type
           rdf:resource="http://purl.org/dc/dcmitype/StillImage" /><dc:title></dc:title></cc:Work></rdf:RDF></metadata><defs
     id="defs33"><linearGradient
       id="linearGradient2986"><stop
         id="stop2988"
         offset="0"
         style="stop-color:#222222;stop-opacity:1;" /><stop
         id="stop2990"
         offset="1"
         style="stop-color:#333333;stop-opacity:1;" /></linearGradient><linearGradient
       id="linearGradient3008"><stop
         id="stop3010"
         offset="0"
         style="stop-color:#c8c800;stop-opacity:1;" /><stop
         id="stop3012"
         offset="1"
         style="stop-color:#ffff37;stop-opacity:1;" /></linearGradient><linearGradient
       id="linearGradient3052"><stop
         id="stop3054"
         offset="0"
         style="stop-color:#aa0000;stop-opacity:1;" /><stop
         id="stop3056"
         offset="1"
         style="stop-color:#ff1919;stop-opacity:1;" /></linearGradient><linearGradient
       id="linearGradient3062"><stop
         id="stop3064"
         offset="0"
         style="stop-color:#e9c6af;stop-opacity:1;" /><stop
         id="stop3066"
         offset="1"
         style="stop-color:#f1dbcd;stop-opacity:1;" /></linearGradient><linearGradient
       id="linearGradient3076"><stop
         id="stop3078"
         offset="0"
         style="stop-color:#6c5353;stop-opacity:1;" /><stop
         id="stop3080"
         offset="1"
         style="stop-color:#987878;stop-opacity:1;" /></linearGradient><linearGradient
       id="linearGradient3094"><stop
         id="stop3096"
         offset="0"
         style="stop-color:#737373;stop-opacity:1;" /><stop
         id="stop3098"
         offset="1"
         style="stop-color:#a2a2a2;stop-opacity:1;" /></linearGradient><linearGradient
       id="linearGradient3876"><stop
         id="stop3878"
         offset="0"
         style="stop-color:#b1e5ff;stop-opacity:1;" /><stop
         id="stop3880"
         offset="1"
         style="stop-color:#ceeeff;stop-opacity:1;" /></linearGradient><linearGradient
       id="linearGradient3886"><stop
         id="stop3888"
         offset="0"
         style="stop-color:#5a4545;stop-opacity:1;" /><stop
         id="stop3890"
         offset="1"
         style="stop-color:#846666;stop-opacity:1;" /></linearGradient><linearGradient
       inkscape:collect="always"
       xlink:href="#linearGradient3094"
       id="linearGradient4728"
       gradientUnits="userSpaceOnUse"
       gradientTransform="matrix(0.56142998,0,0,0.56142998,345.83177,460.18581)"
       x1="185.7923"
       y1="88.857628"
       x2="187.73685"
       y2="95.221596" /><linearGradient
       inkscape:collect="always"
       xlink:href="#linearGradient3094"
       id="linearGradient4731"
       gradientUnits="userSpaceOnUse"
       gradientTransform="matrix(0.56142998,0,0,0.56142998,345.83177,460.18581)"
       x1="153.08862"
       y1="99.375847"
       x2="157.50804"
       y2="109.98245" /><linearGradient
       inkscape:collect="always"
       xlink:href="#linearGradient2986"
       id="linearGradient4737"
       gradientUnits="userSpaceOnUse"
       gradientTransform="matrix(0.56142998,0,0,0.56142998,345.83177,460.18581)"
       x1="128.91692"
       y1="50.521488"
       x2="158.07449"
       y2="50.521488" /><linearGradient
       inkscape:collect="always"
       xlink:href="#linearGradient2986"
       id="linearGradient4751"
       gradientUnits="userSpaceOnUse"
       gradientTransform="matrix(0.56142998,0,0,0.56142998,345.83177,460.18581)"
       x1="155.69055"
       y1="222.8997"
       x2="187.78224"
       y2="237.38681" /><linearGradient
       inkscape:collect="always"
       xlink:href="#linearGradient2986"
       id="linearGradient4754"
       gradientUnits="userSpaceOnUse"
       gradientTransform="matrix(0.56142998,0,0,0.56142998,345.83177,460.18581)"
       x1="73.693932"
       y1="229.50143"
       x2="103.79369"
       y2="244.90546" /><linearGradient
       inkscape:collect="always"
       xlink:href="#linearGradient2986"
       id="linearGradient4757"
       gradientUnits="userSpaceOnUse"
       gradientTransform="matrix(0.56142998,0,0,0.56142998,345.83177,460.18581)"
       x1="91.323776"
       y1="73.62751"
       x2="160.82521"
       y2="120.38969" /><linearGradient
       inkscape:collect="always"
       xlink:href="#linearGradient2986"
       id="linearGradient4760"
       gradientUnits="userSpaceOnUse"
       gradientTransform="matrix(0.56142998,0,0,0.56142998,345.83177,460.18581)"
       x1="87.472786"
       y1="147.255"
       x2="172.74498"
       y2="185.76505" /></defs><sodipodi:namedview
     pagecolor="#ffffff"
     bordercolor="#666666"
     borderopacity="1"
     objecttolerance="10"
     gridtolerance="10"
     guidetolerance="10"
     inkscape:pageopacity="0"
     inkscape:pageshadow="2"
     inkscape:window-width="1920"
     inkscape:window-height="1029"
     id="namedview31"
     showgrid="false"
     fit-margin-top="10"
     fit-margin-left="10"
     fit-margin-right="10"
     fit-margin-bottom="10"
     inkscape:zoom="1.1385856"
     inkscape:cx="367.1464"
     inkscape:cy="124.51122"
     inkscape:window-x="0"
     inkscape:window-y="25"
     inkscape:window-maximized="1"
     inkscape:current-layer="Ebene_1"
     width="800px"><inkscape:grid
       type="xygrid"
       id="grid4621"
       empspacing="5"
       visible="true"
       enabled="true"
       snapvisiblegridlinesonly="true"
       originx="-281.97335"
       originy="-209.66785"
       spacingx="1"
       spacingy="1" /></sodipodi:namedview><path
     style="fill:#61798f;fill-opacity:1;stroke:none"
     d=""
     id="path4576"
     inkscape:connector-curvature="0" /><polygon
     points="360,286.733 360,351.486 398.301,371.71 401.084,412.447 352,431.495 352,351.495 352,347.686 352,275.305 "
     id="polygon3"
     transform="matrix(1.9344172,0,0,1.9344172,-207.69676,-444.02703)"
     style="fill:#999898" /><g
     id="g5"
     transform="matrix(1.9344172,0,0,1.9344172,-207.69676,-444.02703)"><polygon
       points="321,298.733 314,286.908 314,355.288 321,353.887 "
       id="polygon7"
       style="fill:#999898" /><polygon
       points="283.018,309.644 276.018,298.215 276,362.891 283.018,361.486 "
       id="polygon9"
       style="fill:#999898" /><polygon
       points="257,309.59 257,366.692 231.738,371.71 224.06,412.447 278,420.478 334.937,428.955 352,431.495 352,375.123 352,351.495 352,347.686 352,275.305 333,286.733 333,351.486 326,352.887 317,354.688 314,355.288 314,286.733 295,298.162 295,359.09 287,360.69 278,362.49 276,362.891 276,298.162 "
       id="polygon11"
       style="fill:#cecece" /></g><polygon
     points="333,286.733 333,351.486 314,355.288 314,286.733 295,298.162 295,359.09 276,362.891 276,298.162 257,309.59 257,366.692 231.738,371.71 224.06,412.447 352,431.495 352,351.495 352,347.686 352,275.305 "
     id="polygon13"
     transform="matrix(1.9344172,0,0,1.9344172,-207.69676,-444.02703)"
     style="fill:#61798f" /><rect
     style="fill:#999898;fill-opacity:1;stroke:none;stroke-width:0.56216162"
     id="rect4657"
     width="13.449668"
     height="9.8962793"
     x="399.68314"
     y="200.87489" /><rect
     style="fill:#61798f;fill-opacity:1;stroke:none;stroke-width:0.56216162"
     id="rect4649"
     width="36.719532"
     height="14.369428"
     x="362.96103"
     y="200.87489" /><path
     style="fill:#00ff00;fill-opacity:1;stroke-width:0.13287929"
     d="m 305.73665,400.24969 c -0.12357,-1.52619 -0.16951,-3.67241 -0.1422,-6.64397 0.0248,-2.69745 -0.0168,-3.61265 -0.16412,-3.61265 -0.10853,0 -0.44231,0.18685 -0.74174,0.41525 -0.29943,0.22838 -0.62656,0.41524 -0.72695,0.41524 -0.10039,0 -0.2802,0.13538 -0.39957,0.30084 -0.40765,0.56504 -0.63882,0.58555 -1.14408,0.10148 -0.66455,-0.63668 -0.61998,-1.14491 0.19558,-2.23031 0.37421,-0.49803 0.83139,-1.20609 1.01595,-1.57348 0.18456,-0.36737 0.43039,-0.78008 0.5463,-0.9171 0.63948,-0.75603 1.40103,-2.63501 1.50851,-3.72199 0.10682,-1.08027 0.0951,-1.13996 -0.19937,-1.01966 -0.61068,0.24942 -0.79846,0.18092 -0.88927,-0.32438 -0.0705,-0.39251 -0.18635,-0.50945 -0.54553,-0.55085 -0.39103,-0.0451 -0.45598,0.007 -0.45598,0.36801 0,0.83035 -2.12495,4.65951 -3.1916,5.75126 -0.31459,0.322 -0.69333,0.77047 -0.84165,0.99659 -0.3349,0.51059 -1.34175,1.06883 -1.68808,0.93592 -0.58814,-0.22569 -0.24489,-0.90262 1.83939,-3.62752 0.65124,-0.85141 1.34455,-1.847 1.54068,-2.21241 0.19613,-0.36542 0.49639,-0.89613 0.66726,-1.17935 0.17086,-0.2832 0.57099,-0.99328 0.88919,-1.57794 0.31819,-0.58464 0.88929,-1.58621 1.2691,-2.22569 0.82952,-1.39667 2.67159,-5.20085 2.67159,-5.51729 0,-0.0675 0.26928,-0.78008 0.5984,-1.58355 0.6289,-1.53533 0.66261,-2.28376 0.10287,-2.28376 -0.20696,0 -0.40134,0.31826 -0.68479,1.12117 -0.45611,1.29204 -0.60429,1.51552 -1.13986,1.71914 -0.23012,0.0875 -0.52276,0.44916 -0.7149,0.88352 -0.38837,0.87798 -1.10865,1.16753 -1.66096,0.6677 -0.45632,-0.41296 -0.40194,-0.80987 0.26031,-1.90004 0.31974,-0.52635 0.58134,-1.02407 0.58134,-1.10606 0,-0.16598 0.38227,-0.71602 1.5,-2.15836 0.77788,-1.00381 1.82199,-2.74867 1.82199,-3.04483 0,-0.29352 -1.3618,-0.18228 -2.09123,0.17084 -0.38567,0.18669 -1.21277,0.82191 -1.83801,1.41157 -1.62168,1.52945 -2.50939,1.41971 -1.42444,-0.17607 1.26629,-1.86251 5.54262,-6.55793 5.97258,-6.55793 0.12211,0 0.26262,-0.10582 0.31225,-0.23515 0.0496,-0.12934 0.37221,-0.43056 0.71684,-0.66938 0.64279,-0.44546 0.72676,-0.57487 1.29927,-2.0022 0.69846,-1.74135 0.9412,-2.87897 1.28437,-6.01921 0.27416,-2.50884 0.47074,-3.19929 0.91088,-3.19929 0.57983,0 0.67102,0.35027 0.66807,2.56623 -0.003,2.40192 -0.24465,3.83675 -0.89145,5.29728 -0.44134,0.99659 -0.39084,1.60414 0.13332,1.60414 0.5125,0 4.28124,-1.33714 5.7471,-2.03906 0.86959,-0.41639 2.05634,-1.137 2.63724,-1.60134 0.58089,-0.46436 1.14007,-0.84474 1.24262,-0.8453 0.10255,0 0.40333,-0.11413 0.66839,-0.25235 0.26507,-0.13824 0.62863,-0.20478 0.80792,-0.14789 0.26625,0.0845 0.30919,0.20683 0.23442,0.66762 -0.16996,1.04734 0.15223,0.86347 4.28919,-2.44784 1.09626,-0.87747 2.14185,-1.76157 2.32353,-1.96469 0.55722,-0.62291 0.90168,-0.73461 1.26142,-0.40905 0.17511,0.15847 0.31838,0.42838 0.31838,0.59979 0,0.60327 0.4328,0.46456 1.41562,-0.45372 0.54605,-0.51019 1.32917,-1.10521 1.74027,-1.32225 0.41109,-0.21705 1.07723,-0.7354 1.4803,-1.1519 0.40307,-0.41649 0.79188,-0.75726 0.86404,-0.75726 0.0722,0 0.35145,-0.31767 0.62067,-0.70592 0.26922,-0.38826 1.11368,-1.34457 1.87659,-2.12514 1.75761,-1.7983 3.9746,-4.36117 4.27644,-4.94365 0.12746,-0.24596 0.39687,-0.64555 0.5987,-0.88798 0.20182,-0.24243 0.64544,-0.98988 0.98583,-1.66099 0.65681,-1.29498 1.2511,-1.96765 1.73838,-1.96765 0.39389,0 0.84697,0.5179 0.84697,0.96815 0,0.54483 0.22609,0.4398 0.89133,-0.41407 0.60298,-0.77395 0.60357,-0.77633 0.60357,-2.45105 0,-1.72807 -0.0564,-2.03166 -0.66597,-3.5843 -0.19726,-0.50245 -0.40152,-1.05616 -0.45392,-1.23045 -0.0524,-0.1743 -0.23919,-0.46082 -0.41508,-0.63672 -0.1759,-0.17589 -0.26916,-0.36964 -0.20725,-0.43054 0.0619,-0.0609 0.51335,0.31905 1.00322,0.84434 0.93867,1.00653 1.17905,1.09149 2.23293,0.78924 0.54048,-0.155 0.98195,-0.50393 1.87565,-1.48246 0.2022,-0.2214 0.63913,-0.6885 0.97095,-1.03799 0.33182,-0.34949 0.95873,-1.11956 1.39315,-1.71127 0.43442,-0.5917 0.92988,-1.12028 1.10103,-1.1746 0.17116,-0.0543 0.4251,-0.31904 0.56433,-0.58827 0.23088,-0.44649 0.22863,-0.49892 -0.0257,-0.59649 -0.25978,-0.0997 -0.81982,0.42375 -2.38668,2.23071 -0.4291,0.49485 -0.57491,0.47288 -1.02121,-0.15389 -0.35106,-0.49301 -0.3567,-0.5393 -0.086,-0.70592 0.15933,-0.0981 0.67834,-0.53854 1.15336,-0.97882 0.47501,-0.44028 1.16264,-0.9358 1.52806,-1.10115 0.36542,-0.16535 0.85126,-0.50444 1.07964,-0.75353 0.22839,-0.24909 0.57825,-0.51589 0.77747,-0.59288 0.19921,-0.077 0.65499,-0.53631 1.01282,-1.02069 0.35784,-0.48439 0.77329,-0.98252 0.92323,-1.10695 0.32994,-0.27383 0.21006,-0.54163 -0.18582,-0.4151 -0.53524,0.17107 -1.61336,0.74224 -1.99499,1.0569 -0.32129,0.26491 -0.34965,0.36394 -0.18141,0.63334 0.11313,0.18115 0.14549,0.45464 0.0748,0.63201 -0.11804,0.29608 -0.13814,0.29284 -0.37867,-0.061 -0.13971,-0.20554 -0.32193,-0.37372 -0.40493,-0.37372 -0.44683,0 -2.55325,1.47337 -2.90656,2.03304 -0.44252,0.701 -0.50546,0.72173 -1.1656,0.38389 -0.25862,-0.13236 -0.60426,-0.28075 -0.76807,-0.32974 -0.24238,-0.0725 -0.26449,-0.15137 -0.11873,-0.42373 0.0985,-0.18407 0.24527,-0.33467 0.32612,-0.33467 0.22033,0 2.83475,-1.80433 3.45396,-2.38373 0.2969,-0.27781 0.53982,-0.63525 0.53982,-0.79429 0,-0.23831 0.10336,-0.2724 0.58763,-0.19381 0.48163,0.0782 0.69884,0.008 1.20422,-0.38904 0.33912,-0.26641 0.82109,-0.61404 1.07105,-0.77251 0.63786,-0.4044 1.05927,-1.07853 0.82232,-1.31549 -0.1352,-0.13519 -0.41899,-0.0598 -1.06281,0.2822 -1.596,0.84789 -2.03503,1.0418 -2.62241,1.1583 l -0.58135,0.1153 0.4983,-0.42396 c 0.45161,-0.38423 1.36503,-0.76094 1.85084,-0.76331 0.10442,-5.3e-4 0.23003,-0.1056 0.27912,-0.23354 0.0491,-0.12794 0.55062,-0.46706 1.1145,-0.75361 1.13336,-0.57593 1.48469,-0.50527 1.49488,0.30064 0.007,0.52244 0.81061,1.74191 1.19758,1.81644 0.23797,0.0458 0.25148,-0.0206 0.10115,-0.49746 -0.0954,-0.30269 -0.21321,-0.73721 -0.26175,-0.9656 -0.0485,-0.22838 -0.21877,-0.56473 -0.3783,-0.74744 -0.35089,-0.4019 -1.08204,-2.0672 -1.3224,-3.01196 -0.24213,-0.9517 -0.54919,-1.17887 -0.99324,-0.73481 -0.32461,0.3246 -0.33014,0.38017 -0.0942,0.94494 0.35494,0.84948 0.31476,1.20827 -0.22669,2.02438 -0.52784,0.7956 -1.38741,1.45133 -2.11729,1.61519 -1.59343,0.35773 -2.33593,0.90847 -1.55778,1.15545 0.18271,0.058 0.3322,0.19988 0.3322,0.31532 0,0.23015 -0.28767,0.39462 -1.66099,0.94961 -0.50245,0.20305 -1.36403,0.68478 -1.91463,1.07051 -0.88069,0.61698 -1.93457,1.06584 -2.50915,1.06866 -0.25905,10e-4 -0.38279,-0.55707 -0.19702,-0.88902 0.084,-0.15001 0.26104,-0.27274 0.39353,-0.27274 0.15191,0 0.24113,-0.16873 0.24152,-0.45678 5.4e-4,-0.38674 0.21397,-0.60115 1.39218,-1.39857 0.76535,-0.518 1.71806,-1.0543 2.11713,-1.19179 0.39908,-0.13749 1.13669,-0.47846 1.63914,-0.7577 0.50245,-0.27925 1.05009,-0.50908 1.21699,-0.51073 0.1669,-0.002 0.52871,-0.24593 0.80402,-0.54283 0.27532,-0.2969 0.69043,-0.73671 0.92247,-0.97735 0.43275,-0.44877 0.39971,-0.80822 -0.0743,-0.80822 -0.1469,0 -0.7269,0.25275 -1.2889,0.56166 -0.562,0.30892 -1.31566,0.61215 -1.67479,0.67385 -1.28314,0.22044 -2.47602,0.74026 -3.51509,1.53175 -2.04035,1.55421 -2.45664,1.87687 -2.85668,2.21417 -0.5869,0.49485 -0.7841,0.20897 -0.57155,-0.8286 0.29361,-1.43334 -0.45909,-0.96662 -0.937,0.581 -0.11284,0.36541 -0.37017,0.88863 -0.57185,1.16269 -0.58016,0.78839 -1.21911,2.26433 -1.92694,4.45111 -0.71375,2.20508 -0.75337,2.44334 -0.45573,2.74098 0.10963,0.10963 0.16569,0.20332 0.12458,0.2082 -0.0411,0.005 -0.71007,0.0236 -1.48659,0.0415 -1.6576,0.0383 -2.19048,0.29923 -3.23893,1.5858 -0.37658,0.46212 -1.08076,1.04614 -1.62555,1.34817 -0.59078,0.32754 -1.27477,0.90973 -1.775,1.51081 -0.44762,0.53787 -1.13914,1.29743 -1.53673,1.68793 -1.02784,1.00951 -1.62363,2.1054 -1.62363,2.98647 0,1.36655 -0.71378,1.87534 -2.2754,1.62194 -1.28075,-0.20783 -1.87708,-0.47005 -1.87708,-0.8254 0,-0.36567 0.14622,-0.48032 1.56234,-1.22501 1.02444,-0.53872 1.19823,-0.70457 1.62521,-1.55108 0.60453,-1.19848 0.83696,-1.45627 1.96152,-2.17554 0.50245,-0.32137 1.33765,-0.9084 1.856,-1.30452 0.51835,-0.39611 0.96834,-0.7202 0.99998,-0.7202 0.14758,0 2.28438,-2.14596 2.68536,-2.69688 0.58975,-0.81026 1.0072,-1.02437 2.01436,-1.03313 0.82439,-0.007 0.83148,-0.0119 1.37032,-0.91341 0.60682,-1.01527 0.68771,-1.66331 0.24233,-1.94145 -0.38862,-0.2427 -0.77011,-1.40735 -0.63601,-1.94166 0.22796,-0.90827 1.37855,-1.86632 2.51325,-2.0927 0.42845,-0.0855 0.6093,-0.31339 1.29013,-1.6259 0.71189,-1.37237 0.87186,-1.56668 1.58448,-1.92461 1.25805,-0.63188 2.03578,-0.84813 3.10496,-0.86333 0.54812,-0.008 1.44506,-0.15093 1.99319,-0.31808 0.54812,-0.16716 1.5198,-0.44489 2.15929,-0.61718 2.01497,-0.54288 2.5732,-0.82972 2.57391,-1.32258 6.6e-4,-0.44448 0.64831,-1.44851 1.34968,-2.09228 0.21862,-0.20066 1.14437,-0.75179 2.05722,-1.22473 0.91286,-0.47294 2.08868,-1.14964 2.61294,-1.50377 0.52425,-0.35414 0.99854,-0.64388 1.05397,-0.64388 0.35136,0 3.05107,-2.03659 4.3046,-3.24727 1.83778,-1.77497 2.16464,-2.00696 2.47028,-1.75331 0.1719,0.14267 0.27756,0.12601 0.43967,-0.0693 0.38964,-0.46949 2.38848,-1.34411 3.57318,-1.56349 0.87811,-0.16261 1.51703,-0.17477 2.57454,-0.049 0.80338,0.0955 3.25853,0.13033 5.72515,0.0811 2.37522,-0.0474 5.60152,-0.0951 7.16954,-0.10595 1.56803,-0.0109 2.9023,-0.0709 2.96503,-0.13347 0.0627,-0.0625 -0.17378,-0.19452 -0.52559,-0.29336 -0.81933,-0.2302 -0.97732,-0.36622 -1.93899,-1.66922 -0.6814,-0.92326 -0.79029,-1.17587 -0.75181,-1.74404 0.0601,-0.88817 -0.11225,-1.32256 -0.61592,-1.55205 -0.78309,-0.3568 -5.1236,-0.50123 -9.20899,-0.30643 -0.95923,0.0457 -3.76215,0.0776 -6.22872,0.0707 -6.31055,-0.0174 -8.08558,0.0277 -8.30691,0.21142 -0.11562,0.0959 -2.25957,0.15309 -5.35325,0.14266 -2.83821,-0.01 -5.22985,0.0255 -5.31475,0.078 -0.12483,0.0772 -9.8614,0.13387 -15.32456,0.0893 -0.68515,-0.006 -2.778,0.1529 -4.65077,0.3522 -4.30049,0.45767 -6.00721,0.6351 -6.27024,0.65183 -0.34413,0.0219 -0.23357,0.29904 0.1661,0.41637 0.20555,0.0603 1.3907,0.2058 2.63367,0.32324 1.81242,0.17125 2.38059,0.2881 2.86923,0.59009 0.85665,0.52944 1.13332,1.12184 0.90685,1.94171 -0.27713,1.00328 -0.0864,2.55244 0.42079,3.4179 0.53064,0.90547 0.55026,1.48828 0.076,2.25572 -0.32254,0.52188 -0.34014,0.65854 -0.16782,1.30283 0.24261,0.90708 0.0286,1.4423 -0.71841,1.79678 -0.70092,0.33262 -3.19666,0.51336 -6.3561,0.46033 -1.93791,-0.0325 -2.55357,0.007 -2.60835,0.16917 -0.0394,0.11646 -0.10984,1.33291 -0.15643,2.70323 -0.0466,1.37032 -0.16154,3.91164 -0.25545,5.64737 -0.15401,2.84682 -0.20359,3.18304 -0.50625,3.4332 -0.45392,0.37519 -1.75759,0.63546 -3.20508,0.63988 -0.83227,0.003 -1.41725,0.10402 -1.92336,0.33365 -0.40002,0.18151 -1.01667,0.37628 -1.37032,0.43283 -1.4611,0.23364 -0.14163,0.7224 1.9541,0.72383 1.15147,8e-4 1.48314,0.0691 2.24234,0.46201 1.48783,0.76995 1.50697,0.85205 1.55053,6.65087 l 0.037,4.92365 -0.46006,0.46007 c -0.34978,0.34978 -0.61979,0.46006 -1.12642,0.46006 -0.3665,0 -0.87538,0.0795 -1.13083,0.17659 -0.85516,0.32513 -3.27208,0.66899 -5.7419,0.8169 -1.34613,0.0806 -2.52336,0.19345 -2.61606,0.25074 -0.0927,0.0573 -0.16901,0.7164 -0.16957,1.46468 -6.7e-4,0.89368 -0.0878,1.52698 -0.25401,1.84565 -0.15336,0.29407 -0.19302,0.5451 -0.10071,0.63741 0.24136,0.24136 3.12145,-0.17643 4.24869,-0.61631 0.55384,-0.21613 1.62477,-0.58319 2.37985,-0.81569 0.75508,-0.23251 1.53785,-0.53828 1.73947,-0.67951 0.48615,-0.34051 1.02756,-0.32379 2.08999,0.0645 0.72695,0.2657 0.89439,0.28136 0.96764,0.0905 0.11223,-0.29247 1.71339,-1.0997 1.9236,-0.96979 0.0864,0.0534 0.44703,-0.0335 0.80129,-0.1933 0.53391,-0.24076 0.72598,-0.25654 1.12273,-0.0922 0.26324,0.10904 0.66636,0.15114 0.89582,0.0936 0.90359,-0.22679 2.95586,1.21754 2.95586,2.08025 0,0.24492 0.15187,0.58275 0.33749,0.75074 0.18563,0.16799 0.41873,0.62804 0.51802,1.02234 0.20193,0.80193 0.24095,0.82833 0.66164,0.44761 0.16826,-0.15227 0.41814,-0.22302 0.57503,-0.16282 0.38172,0.14648 0.23354,1.13058 -0.43312,2.87638 -0.5769,1.51074 -0.92772,1.95264 -1.18509,1.49274 -0.10669,-0.19063 -0.36851,-0.28283 -0.80323,-0.28283 -0.79551,0 -0.82798,-0.0865 -0.81108,-2.15928 0.0149,-1.8322 0.0769,-2.15929 0.4093,-2.15929 0.36692,0 0.45062,-0.41186 0.19104,-0.94008 -0.12751,-0.25947 -0.20294,-0.59865 -0.16761,-0.75373 0.17273,-0.7584 -0.9271,-1.5663 -1.88711,-1.3862 -0.40311,0.0756 -0.56117,0.19396 -0.56117,0.42015 0,0.46493 -0.19187,0.51006 -0.99386,0.23375 -0.54516,-0.18782 -0.82768,-0.20561 -1.15153,-0.0725 -0.2579,0.106 -0.62798,0.12206 -0.92744,0.0403 -0.80673,-0.2204 -1.12706,-0.0798 -0.99901,0.43857 0.06,0.24302 0.28197,0.62871 0.49317,0.85709 0.52163,0.56407 0.70906,1.8681 0.34775,2.41953 -0.40613,0.61983 -0.82303,0.50372 -1.39572,-0.38873 -0.6846,-1.06687 -1.28879,-1.6009 -2.18342,-1.92991 -0.68635,-0.25242 -0.82211,-0.2535 -1.66099,-0.0133 -0.50245,0.14389 -1.17515,0.32312 -1.49489,0.39829 -0.76447,0.17972 -1.72143,0.63156 -2.78282,1.31392 -0.47402,0.30475 -1.06954,0.5708 -1.32338,0.59122 -0.62365,0.0502 -2.04009,0.7318 -2.03693,0.98023 10e-4,0.10992 0.0712,0.3084 0.15515,0.44107 0.25049,0.39597 0.0213,0.5214 -0.47958,0.26241 -0.43003,-0.22237 -0.47502,-0.3348 -0.53955,-1.34827 -0.0774,-1.21585 -0.33131,-1.56379 -1.14109,-1.56379 -0.24429,0 -0.62241,-0.1392 -0.84028,-0.30935 -0.21786,-0.17014 -0.582,-0.36766 -0.80919,-0.43892 -0.22719,-0.0713 -0.67565,-0.30143 -0.99659,-0.51147 -0.32094,-0.21003 -0.93396,-0.46869 -1.36227,-0.5748 -0.42831,-0.10611 -0.89726,-0.32389 -1.04212,-0.48397 -0.50005,-0.55254 -0.39335,-0.63499 3.46121,-2.67444 1.74977,-0.9258 1.82803,-1.37811 0.30473,-1.76136 -0.43031,-0.10826 -1.07989,-0.27322 -1.4435,-0.36657 -0.84762,-0.21763 -1.00961,-0.0747 -1.84581,1.62903 -0.59171,1.20556 -0.71077,1.34122 -1.52941,1.74272 l -0.88774,0.43539 -1.33647,-0.79309 c -0.75006,-0.4451 -1.70403,-1.19393 -2.17415,-1.70663 -0.48758,-0.53174 -0.86693,-0.82677 -0.90764,-0.70593 -0.1091,0.32383 -0.61742,0.24477 -1.068,-0.16609 -0.65981,-0.60165 -2.34537,-1.88335 -2.77527,-2.11032 -0.87599,-0.46247 -4.51154,-1.55182 -5.91579,-1.77259 -2.36316,-0.37151 -4.95396,-0.55607 -5.17942,-0.36896 -0.1086,0.0901 -0.24812,0.40162 -0.31005,0.69221 -0.0619,0.29059 -0.392,1.38791 -0.73348,2.43849 -0.34149,1.05057 -0.86356,2.95656 -1.16016,4.23552 -0.2966,1.27897 -0.7952,3.14758 -1.10799,4.15248 -0.5758,1.84987 -0.75756,2.61786 -1.08103,4.56773 -0.0985,0.5938 -0.29994,1.34125 -0.44762,1.66099 -0.14769,0.31974 -0.38286,0.91769 -0.52261,1.32879 -0.18591,0.54689 -0.35278,0.76148 -0.62194,0.79975 -0.5279,0.0751 -0.65258,-0.60454 -0.32468,-1.76979 0.28137,-0.9999 0.41839,-1.62223 0.93839,-4.26208 0.59174,-3.00402 1.1435,-5.49847 1.30691,-5.9085 0.0884,-0.2218 0.32766,-0.96385 0.53169,-1.64901 0.20403,-0.68516 0.73146,-2.35966 1.17206,-3.72112 0.44061,-1.36146 0.76636,-2.5316 0.72389,-2.60031 -0.1303,-0.21084 -2.11078,0.0423 -2.87301,0.36726 -0.39583,0.16874 -0.89755,0.3068 -1.11493,0.3068 -0.56428,0 -2.07383,0.59325 -2.71703,1.06779 -0.5414,0.39943 -1.01266,0.41184 -1.01266,0.0267 0,-0.58964 2.52572,-2.22362 3.98637,-2.57895 0.4111,-0.1 1.12117,-0.28752 1.57795,-0.41672 1.7002,-0.48088 2.5546,-0.60663 3.58878,-0.52822 0.5841,0.0443 1.92155,0.13056 2.97213,0.19171 2.13261,0.12414 4.55869,0.58638 6.06262,1.15511 0.54812,0.20729 1.63192,0.6153 2.40843,0.9067 1.43123,0.53709 1.91565,0.92472 2.86504,2.29254 0.56039,0.80738 0.64279,0.65432 0.22359,-0.41535 -0.20613,-0.52597 -0.51034,-1.38729 -0.67602,-1.91405 -0.26638,-0.84687 -0.47152,-1.11318 -1.77218,-2.30059 -0.809,-0.73858 -1.47092,-1.44092 -1.47092,-1.56076 0,-0.34121 -1.81739,-1.89163 -2.77663,-2.36874 -0.91518,-0.4552 -1.15162,-0.74055 -0.82615,-0.99708 0.29672,-0.23388 4.33658,0.96754 5.42987,1.6148 1.07081,0.63396 1.85276,1.33065 1.72518,1.53708 -0.0496,0.0802 -0.34587,0.0978 -0.65849,0.0391 -0.31262,-0.0586 -0.56839,-0.0391 -0.56839,0.0434 0,0.0825 0.33635,0.48011 0.74744,0.88357 l 0.74745,0.73356 v -0.82926 c 0,-0.73032 0.0545,-0.86058 0.45677,-1.09166 0.25123,-0.14432 0.65605,-0.30977 0.8996,-0.36768 0.24356,-0.0579 1.30713,-0.52083 2.36349,-1.02872 1.05637,-0.50789 2.23987,-1.01531 2.63001,-1.12761 0.59624,-0.17162 0.78155,-0.33562 1.16223,-1.02856 0.58255,-1.06039 0.57449,-1.43063 -0.0465,-2.13791 -0.67791,-0.7721 -0.84268,-1.39278 -0.55277,-2.08228 0.30048,-0.71462 0.29586,-1.33803 -0.01,-1.33803 -0.41092,0 -0.45642,-0.30537 -0.18475,-1.23991 l 0.26262,-0.90335 -0.50061,-0.9253 c -0.27533,-0.50892 -0.5006,-1.04042 -0.5006,-1.18112 0,-0.15384 0.42915,-0.45041 1.07654,-0.74395 1.61695,-0.73316 1.61087,-0.96321 -0.073,-2.76299 -1.58571,-1.69484 -2.3105,-2.25085 -2.93414,-2.25085 -0.63921,0 -0.93796,0.47271 -0.81354,1.28727 0.0558,0.36542 0.14209,1.05119 0.19172,1.52393 0.0574,0.54699 0.20571,0.96403 0.40779,1.14691 0.35712,0.32319 0.39854,0.8511 0.13987,1.7826 -0.19202,0.69152 -0.4969,0.73787 -0.67078,0.10197 -0.10527,-0.385 -0.11567,-0.37876 -0.23366,0.14035 -0.0679,0.2988 -0.19693,0.58867 -0.2867,0.64415 -0.21095,0.13038 -0.4712,-0.28329 -0.3813,-0.60608 0.0382,-0.13704 0.11888,-0.67146 0.17937,-1.18761 0.10365,-0.88439 0.0875,-0.94558 -0.2808,-1.06195 -0.21493,-0.0679 -0.48846,-0.26226 -0.60783,-0.43186 -0.15491,-0.22009 -0.42437,-0.30837 -0.94123,-0.30837 -0.42909,0 -0.75438,-0.0846 -0.79829,-0.20762 -0.0833,-0.23337 0.28645,-1.05343 0.67446,-1.49591 0.14068,-0.16043 0.21234,-0.33514 0.15924,-0.38824 -0.11621,-0.11621 -1.85955,0.2306 -2.40232,0.47791 -0.49202,0.22418 -0.64863,0.84536 -0.39203,1.55496 0.19253,0.53244 0.16915,0.5965 -0.56676,1.55287 -0.72081,0.93676 -0.92092,1.08759 -1.3295,1.0021 -0.0914,-0.0191 -0.7837,-0.12545 -1.53855,-0.2363 -2.2523,-0.33077 -2.61811,0.009 -2.5721,2.39101 0.02,1.03485 0.0471,1.10211 0.65391,1.62134 0.34818,0.29793 1.02152,0.73455 1.4963,0.97026 0.72005,0.35748 1.02312,0.41523 1.82709,0.34814 0.53011,-0.0442 1.16722,-0.13411 1.41578,-0.19973 0.38478,-0.10158 0.48205,-0.0532 0.65459,0.32547 0.16713,0.36681 0.1531,0.57849 -0.08,1.20751 -0.32663,0.88129 -0.36145,0.79701 1.15586,2.79768 0.93132,1.22801 1.13416,1.89868 0.57425,1.89868 -0.1907,0 -0.63572,-0.40999 -1.12116,-1.03291 -0.44272,-0.56811 -1.18598,-1.42767 -1.65169,-1.91014 -0.71947,-0.74538 -0.93826,-0.87723 -1.45562,-0.87723 -0.33488,0 -0.73867,-0.0726 -0.8973,-0.16138 -0.49056,-0.27447 -2.53952,-0.83522 -3.05188,-0.83522 -0.59303,0 -1.51257,0.36959 -2.33833,0.93984 -0.43608,0.30114 -0.97207,0.46959 -1.82709,0.57419 -2.78654,0.34092 -3.25963,0.35065 -3.80554,0.0783 -0.29057,-0.14496 -0.5847,-0.26355 -0.65364,-0.26355 -0.21416,0 -0.83382,2.04602 -0.66945,2.2104 0.091,0.091 0.56135,0.009 1.17979,-0.20468 0.8901,-0.30803 1.24421,-0.34142 2.63114,-0.24808 3.43588,0.23124 3.76191,0.28764 3.76191,0.65079 0,0.2351 -0.0971,0.32025 -0.3322,0.29131 -0.8863,-0.10911 -3.57678,-0.0318 -3.95969,0.1138 -0.2381,0.0905 -0.91401,0.11966 -1.50202,0.0648 -0.94377,-0.0881 -1.15797,-0.0502 -1.82717,0.32386 -0.41693,0.23302 -0.98764,0.47411 -1.26825,0.53574 -0.59133,0.12988 -1.18607,0.9395 -1.51237,2.05879 -0.11715,0.40186 -0.44959,0.96244 -0.73874,1.24574 -0.28916,0.2833 -0.58321,0.70195 -0.65345,0.93033 -0.26311,0.85552 -2.82427,4.15488 -3.59387,4.62974 -0.20334,0.12546 -0.93523,0.68604 -1.62642,1.24574 -1.6988,1.37561 -1.95064,1.54372 -4.28803,2.86229 -1.11646,0.62982 -2.38605,1.34841 -2.8213,1.59686 -0.43525,0.24845 -1.5388,0.75424 -2.45235,1.12398 -2.68684,1.08745 -4.34267,2.54937 -5.74048,5.06825 -1.83524,3.30716 -2.28829,4.52905 -2.81721,7.5982 -0.18491,1.07296 -0.39978,2.11939 -0.47749,2.32539 -0.0777,0.206 -0.22625,0.93514 -0.33008,1.6203 -0.52622,3.47243 -0.54303,3.53259 -1.32238,4.73383 -0.41489,0.63948 -0.90808,1.42737 -1.09597,1.75087 -0.18789,0.32349 -0.54839,0.88408 -0.80111,1.24574 -0.25271,0.36166 -0.73206,1.06866 -1.06523,1.57111 -0.33316,0.50245 -0.93445,1.28173 -1.3362,1.73174 -0.40176,0.45001 -0.92356,1.16009 -1.15956,1.57794 -0.23601,0.41787 -0.59475,1.02135 -0.79721,1.3411 -0.20245,0.31973 -0.73356,1.42901 -1.18024,2.46503 -0.44668,1.03603 -1.04093,2.15076 -1.32057,2.47716 -0.48516,0.56628 -0.53383,0.5846 -1.06291,0.40017 -0.72194,-0.25168 -0.83709,-0.24398 -0.83709,0.0559 0,0.13702 -0.0747,0.24915 -0.1661,0.24915 -0.28168,0 -0.18473,-0.67397 0.22462,-1.56139 0.62661,-1.35842 0.98953,-2.27009 2.0233,-5.08258 0.25184,-0.68516 0.79166,-2.03056 1.19962,-2.98978 0.65831,-1.54791 0.73925,-1.87479 0.71971,-2.90673 -0.0199,-1.04894 0.15346,-2.03475 0.85179,-4.84468 0.11732,-0.47205 0.26931,-0.9143 0.33776,-0.98275 0.25907,-0.25907 0.10759,-0.67183 -0.34457,-0.93893 -0.41366,-0.24436 -0.75042,-0.25933 -2.85238,-0.1268 -1.31083,0.0827 -2.43931,0.11569 -2.50771,0.0734 -0.20325,-0.12562 -0.30485,-1.86823 -0.411,-7.04953 -0.0552,-2.69496 -0.15842,-6.54431 -0.22934,-8.55411 -0.17248,-4.88808 -0.0695,-10.2252 0.20259,-10.49726 0.28466,-0.28466 2.27458,-0.54665 4.93808,-0.65015 2.12324,-0.0825 2.28282,-0.11299 3.00433,-0.574 0.41909,-0.26778 0.87466,-0.48687 1.01238,-0.48687 0.54865,0 0.74992,-0.56615 0.94479,-2.65758 0.14446,-1.55043 0.14607,-2.32863 0.006,-3.07284 -0.1029,-0.54813 -0.14345,-1.48243 -0.0901,-2.07624 0.0533,-0.5938 0.0282,-1.18961 -0.056,-1.32403 -0.11547,-0.18446 -0.57266,-0.2548 -1.8645,-0.28686 -2.74776,-0.0682 -3.01999,-0.16702 -4.57539,-1.66105 -0.74196,-0.71268 -1.36961,-1.4079 -1.39478,-1.54493 -0.0252,-0.13703 0.009,-0.45503 0.0751,-0.70666 0.0814,-0.30817 0.0362,-0.58667 -0.13847,-0.85326 -0.24103,-0.36787 -0.22801,-0.47392 0.18486,-1.50526 0.49534,-1.23733 0.41488,-1.54325 -0.33126,-1.25957 -0.72018,0.27381 -1.54105,0.21582 -1.67601,-0.1184 -0.30181,-0.74738 -0.55917,-22.01136 -0.27914,-23.06365 0.11078,-0.41629 0.10012,-7.23741 -0.0139,-8.86444 -0.0343,-0.48936 -0.0894,-1.34165 0.31385,-1.53679 0.26143,-0.12653 5.94011,-1.30852 6.68358,-1.33646 3.77497,-0.61521 3.83048,-0.62097 19.798,-3.90406 6.77804,-1.5995 17.72659,-4.41811 22.38567,-4.46639 4.65908,-0.0483 10.91882,9.52177 19.46047,9.47252 8.54164,-0.0493 17.99683,-0.12884 21.01153,-0.17686 3.0147,-0.048 7.08828,-0.0809 9.0524,-0.0731 8.47076,0.0336 17.96227,0.008 19.2675,-0.0522 0.77651,-0.0357 2.45827,-0.0677 3.73723,-0.071 1.27896,-0.003 2.47488,-0.0155 2.65759,-0.0271 0.1827,-0.0116 4.44315,-0.0338 9.46765,-0.0494 5.0245,-0.0156 9.21019,-0.0755 9.30155,-0.13303 0.17322,-0.10916 6.1261,-0.35415 9.71679,-0.3999 1.14193,-0.0145 3.87011,-0.0767 6.06262,-0.13814 2.19251,-0.0614 5.1823,-0.14377 6.64397,-0.18298 1.46167,-0.0392 3.62927,-0.12468 4.81687,-0.18993 1.18761,-0.0653 2.6825,-0.13847 3.32199,-0.1627 0.63948,-0.0242 1.31218,-0.0535 1.49489,-0.0651 0.18271,-0.0116 1.97658,-0.0162 3.98638,-0.0104 2.0098,0.006 4.77535,-0.0287 6.14566,-0.0767 4.3312,-0.152 10.68941,-0.10331 11.04041,0.0845 0.50298,0.26918 0.63705,1.16165 0.66167,4.4044 0.0826,10.88388 0.19456,21.63022 0.28035,26.90805 0.0971,5.97432 0.0906,6.15705 -0.23195,6.55382 -0.32722,0.40245 -0.34085,0.40432 -0.97515,0.13389 -1.28773,-0.54903 -6.27398,-0.52773 -8.03469,0.0343 -0.43923,0.14021 -0.80037,0.24194 -3.32198,0.93575 -1.46545,0.40322 -1.86807,0.43812 -5.64737,0.48953 -2.2382,0.0305 -5.07849,0.1072 -6.31177,0.17057 -1.23329,0.0634 -2.40555,0.11328 -2.605,0.11092 -0.42974,-0.005 -1.74165,-0.88597 -2.5054,-1.68228 -0.7379,-0.76932 -0.82778,-1.23525 -0.38897,-2.01602 0.227,-0.40389 0.29514,-0.67555 0.18634,-0.74279 -0.0944,-0.0583 -1.1525,-0.0527 -2.35146,0.0125 -2.03889,0.11084 -2.21341,0.14724 -2.69747,0.56271 -0.41114,0.35288 -0.8761,0.5064 -2.26157,0.74675 -0.95923,0.1664 -2.71573,0.48562 -3.90333,0.70938 -3.21756,0.60624 -5.0614,0.73031 -11.48339,0.77275 l -5.83602,0.0386 -1.22319,0.59905 c -1.34184,0.65715 -1.62444,0.74218 -5.29263,1.59251 -1.4305,0.3316 -4.15154,1.21978 -4.70251,1.53494 -0.16548,0.0947 -0.72607,0.3124 -1.24574,0.48385 -0.51967,0.17146 -1.46807,0.51217 -2.10755,0.75715 -1.09641,0.42002 -1.22146,0.434 -2.19344,0.24526 -0.96542,-0.18746 -1.06296,-0.17721 -1.53893,0.16171 -0.67623,0.48152 -1.00146,1.15334 -1.00146,2.06867 0,0.8194 -0.21936,1.12602 -2.15929,3.01813 -0.50245,0.49007 -1.17515,1.14582 -1.49489,1.45724 -0.31974,0.31141 -0.73084,0.84912 -0.91354,1.19491 -0.36277,0.68655 -1.99291,2.33857 -3.35301,3.39802 -0.83021,0.64668 -0.85907,0.69653 -0.79395,1.37123 0.24955,2.58581 0.2617,3.24633 0.0823,4.47342 -0.24275,1.66013 -0.58448,2.36294 -1.6083,3.30764 -0.43259,0.39916 -1.1287,1.0621 -1.5469,1.47319 -0.41821,0.4111 -1.43139,1.31644 -2.25152,2.01188 -2.73107,2.31583 -4.92663,4.6802 -6.38358,6.87442 -0.93116,1.40236 -3.2152,3.40503 -3.8834,3.40503 -0.12558,0 -0.81845,0.29866 -1.53971,0.66368 -0.72127,0.36502 -1.3784,0.664 -1.4603,0.6644 -0.0819,0 -0.53037,0.2501 -0.99659,0.5549 -0.46623,0.30481 -3.16477,1.69086 -5.99676,3.08013 -2.83199,1.38927 -5.29856,2.6129 -5.48127,2.7192 -0.18271,0.10629 -1.22914,0.64691 -2.32539,1.20136 -2.47688,1.25272 -3.58673,1.98708 -4.65078,3.07726 -0.76114,0.77984 -0.79235,0.84154 -0.37372,0.73874 0.34606,-0.085 0.45677,-0.0514 0.45677,0.13852 0,0.27612 -0.67787,1.80573 -0.95079,2.14545 -0.0947,0.11795 -0.55863,1.18611 -1.03086,2.37372 -0.77116,1.9394 -1.06647,2.99838 -1.94389,6.97059 -0.14057,0.63643 -0.35178,1.3465 -0.46936,1.57794 -0.23847,0.46945 -0.75417,2.44373 -0.75417,2.88725 0,0.15724 -0.12071,0.47012 -0.26825,0.6953 -0.26176,0.39949 -0.25764,0.4094 0.17021,0.4094 0.9695,0 0.96883,1.50542 -0.002,3.76502 -0.66298,1.54357 -0.93772,3.15823 -0.74492,4.3779 0.10203,0.64542 0.0685,0.86351 -0.18181,1.18261 -0.37442,0.47735 -0.37977,2.25753 -0.0107,3.54715 0.13074,0.45677 0.33817,1.18386 0.46097,1.61576 0.12279,0.43188 0.25531,1.83335 0.29449,3.11436 l 0.0712,2.32911 h -1.05747 c -0.72627,0 -1.06273,-0.065 -1.07428,-0.20763 z m 44.98046,-88.07474 c 0.57565,-0.4998 0.69609,-0.94794 0.18095,-0.67328 -2.02505,1.07973 -2.37353,1.40312 -1.38801,1.28807 0.34293,-0.04 0.83196,-0.28911 1.20706,-0.61479 z m 15.00048,0.23739 c 0.50115,-0.18955 1.09806,-0.40436 1.32644,-0.47735 0.22839,-0.073 0.78897,-0.30585 1.24575,-0.51745 2.74749,-1.27277 4.10644,-1.90619 5.03978,-2.34906 0.7707,-0.3657 1.10279,-0.45045 1.23744,-0.31581 0.53442,0.53442 0.61999,-0.19474 0.0892,-0.75978 -0.19835,-0.21114 -0.56,-0.9634 -0.80367,-1.6717 -0.24367,-0.7083 -0.49823,-1.41278 -0.5657,-1.56551 -0.0675,-0.15273 -0.0412,-0.42989 0.0583,-0.6159 0.14895,-0.27831 0.1218,-0.36988 -0.15331,-0.51712 -0.18387,-0.0984 -0.33431,-0.2526 -0.33431,-0.34266 0,-0.0901 -0.21863,-0.62933 -0.48585,-1.19838 -0.26722,-0.56904 -0.52558,-1.22148 -0.57413,-1.44987 -0.0486,-0.22839 -0.19119,-0.55594 -0.31696,-0.72789 -0.21663,-0.29618 -0.25117,-0.29791 -0.6558,-0.0328 -0.23491,0.15392 -0.46963,0.4441 -0.52159,0.64484 -0.052,0.20074 -0.40047,0.53829 -0.77448,0.75012 -0.37401,0.21183 -1.14366,0.77241 -1.71033,1.24575 -1.25771,1.05053 -2.51433,1.94024 -2.7404,1.94024 -0.0923,0 -0.39764,0.19346 -0.67864,0.4299 -0.281,0.23645 -0.90338,0.62886 -1.38306,0.87202 l -0.87215,0.44212 -0.004,0.83049 c -0.003,0.62914 0.081,0.91291 0.34576,1.17039 0.19225,0.18693 0.55733,0.89701 0.81128,1.57794 0.72321,1.93916 0.97814,2.51524 1.22018,2.75728 0.27343,0.27343 0.1197,0.28878 1.20003,-0.11983 z m 1.5839,-3.7805 c 0.0868,-0.0763 0.52187,-0.34638 0.96686,-0.60013 0.91257,-0.52038 0.99695,-0.23671 0.10863,0.36517 -0.51305,0.34762 -1.43186,0.54835 -1.07549,0.23496 z m -1.00521,-1.02343 c 0.0684,-0.11065 0.39541,-0.32546 0.72672,-0.47735 0.60649,-0.27805 1.21845,-0.63881 2.04902,-1.20795 0.53025,-0.36335 0.63177,-0.37976 0.6233,-0.10076 -0.007,0.22698 -1.21337,1.12117 -1.51273,1.12117 -0.10219,0 -0.41886,0.14096 -0.7037,0.31325 -0.70493,0.42639 -1.34675,0.61723 -1.18261,0.35164 z m 3.73754,-2.24284 c 0.11372,-0.13703 0.28152,-0.24914 0.37287,-0.24914 0.0927,0 0.0747,0.11016 -0.0407,0.24914 -0.11372,0.13704 -0.28151,0.24915 -0.37287,0.24915 -0.0926,0 -0.0747,-0.11016 0.0407,-0.24915 z m 6.05543,5.95378 c -0.37151,-0.27165 -0.51943,-0.28021 -0.66869,-0.0387 -0.15534,0.25135 0.22118,0.45894 0.63577,0.35053 0.32527,-0.0851 0.32654,-0.0971 0.0329,-0.31184 z m -2.4843,-0.34639 c 0.45677,-0.13131 1.0921,-0.28915 1.41184,-0.35077 0.63716,-0.12277 0.871,-0.64285 0.44717,-0.99459 -0.18318,-0.15203 -0.4256,-0.0862 -1.12918,0.30675 -0.49276,0.27518 -1.2136,0.66402 -1.60185,0.86409 -0.74596,0.38438 -0.96446,0.73476 -0.3322,0.5327 0.20555,-0.0657 0.74744,-0.22687 1.20422,-0.35818 z m -94.42734,-0.62441 c 0.22839,-0.13056 0.67685,-0.24247 0.99659,-0.24869 0.31974,-0.006 0.99245,-0.15592 1.4949,-0.33266 0.50245,-0.17674 1.06509,-0.32379 1.25031,-0.32678 0.18522,-0.003 0.4842,-0.1016 0.66439,-0.21916 0.3969,-0.25894 1.77203,-0.80578 3.23437,-1.28619 0.5938,-0.19508 1.4358,-0.57273 1.87111,-0.83922 0.4353,-0.26649 0.88377,-0.48481 0.99659,-0.48515 0.11282,-4e-4 0.46674,-0.16852 0.78648,-0.37373 0.57312,-0.36782 1.07893,-0.65632 2.51071,-1.43203 0.40052,-0.217 1.11615,-0.75889 1.5903,-1.20422 0.90234,-0.8475 1.3994,-0.99416 1.88377,-0.55581 0.22579,0.20433 0.37418,0.21775 0.76053,0.0688 0.264,-0.1018 0.81635,-0.24962 1.22744,-0.3285 1.46727,-0.28153 2.08551,-0.44848 2.74064,-0.74009 1.51645,-0.675 2.48804,-1.16664 3.02305,-1.52971 0.31209,-0.21179 0.85662,-0.5326 1.21008,-0.71292 0.72395,-0.36933 0.91309,-0.76738 0.75786,-1.59487 -0.16048,-0.85539 -1.0141,-1.26281 -3.10818,-1.48346 -0.73417,-0.0774 -1.10564,-0.2275 -1.69084,-0.68343 -0.41248,-0.32136 -0.82955,-0.81256 -0.9268,-1.09155 -0.0973,-0.27899 -0.47101,-0.97305 -0.83056,-1.54236 -0.35955,-0.5693 -0.76725,-1.30681 -0.90601,-1.6389 -0.13876,-0.3321 -0.31224,-0.60381 -0.38551,-0.60381 -0.0733,0 -0.65636,0.36829 -1.29574,0.81842 -1.67272,1.17759 -3.14215,2.17067 -4.56755,3.08686 -0.68516,0.44039 -1.73159,1.11527 -2.32539,1.49973 -1.27735,0.82704 -3.73043,2.13828 -4.31858,2.30841 -0.22838,0.0661 -1.05057,0.40628 -1.82709,0.75603 -4.61423,2.0783 -5.27364,2.32879 -6.56091,2.49225 -1.22751,0.15586 -1.54706,0.0624 -1.20484,-0.35254 0.23533,-0.28531 1.98932,-1.02673 3.11346,-1.31607 0.41025,-0.10559 0.945,-0.33375 1.18833,-0.50701 0.24333,-0.17326 0.57175,-0.31503 0.72984,-0.31503 0.15809,0 1.12409,-0.48584 2.14667,-1.07964 1.02258,-0.5938 1.91691,-1.07964 1.98741,-1.07964 0.21043,0 2.98121,-1.34242 3.25082,-1.575 0.13703,-0.11821 0.66007,-0.42766 1.16232,-0.68768 1.09558,-0.56719 2.40989,-1.40579 3.01849,-1.92594 0.24397,-0.20851 0.71821,-0.56597 1.05388,-0.79436 2.07688,-1.41308 3.31358,-2.79391 2.98232,-3.3299 -0.12839,-0.20774 -1.58843,-0.0568 -3.56624,0.36859 -4.14889,0.89244 -6.7663,2.00526 -11.76936,5.00389 -4.13043,2.47562 -8.32863,5.84062 -8.32863,6.67569 0,0.073 0.33942,0.58921 0.75427,1.14702 0.82369,1.10756 1.90332,2.70811 1.90332,2.82168 0,0.0393 0.44846,1.00766 0.99659,2.15191 0.54813,1.14426 0.9966,2.15547 0.9966,2.24713 0,0.0917 0.0729,0.3584 0.16199,0.59273 0.1816,0.47766 0.54446,0.53268 1.1668,0.17692 z m 12.26835,-5.8955 c -0.74449,-0.44558 -0.36487,-1.96147 0.44058,-1.75931 0.32991,0.0828 0.39895,0.0289 0.44335,-0.34628 0.0681,-0.57518 0.36016,-0.6607 0.78966,-0.2312 0.43643,0.43642 0.48257,1.50527 0.065,1.50527 -0.15268,0 -0.42696,-0.1308 -0.60951,-0.29067 -0.31918,-0.27952 -0.32668,-0.27793 -0.19534,0.0415 0.0751,0.18271 0.14385,0.51906 0.15274,0.74745 0.0127,0.32659 -0.0725,0.42388 -0.39909,0.45567 -0.22839,0.0222 -0.53771,-0.0329 -0.68738,-0.12245 z m 5.04542,-1.70354 c -0.26825,-0.33289 0.0343,-0.84647 0.81085,-1.37647 0.83455,-0.56958 1.84907,-1.45254 3.10802,-2.70495 0.88821,-0.88362 1.35684,-1.0182 1.35684,-0.38967 0,0.2866 -1.07898,1.42676 -1.91817,2.02695 -0.18713,0.13383 -0.61109,0.6015 -0.94215,1.03926 -0.61033,0.80706 -1.62264,1.61251 -2.02664,1.61251 -0.12179,0 -0.29673,-0.0934 -0.38875,-0.20763 z m -38.15921,94.3478 c -0.90821,-0.32424 -0.8849,-0.53143 0.33205,-2.95176 0.43636,-0.86788 0.92517,-1.95167 1.08623,-2.40844 0.53443,-1.51564 1.14913,-2.74064 1.37525,-2.74064 0.38143,0 0.69149,0.83063 0.67457,1.80716 -0.0106,0.61018 -0.23278,1.56626 -0.64161,2.76057 -0.68415,1.9986 -1.25769,3.11016 -1.80121,3.49086 -0.40067,0.28062 -0.362,0.27904 -1.02528,0.0422 z m -6.15399,-4.00547 c -0.0566,-0.22563 -0.0219,-0.56179 0.0772,-0.74699 0.0991,-0.18523 0.18287,-0.84619 0.18611,-1.46884 0.003,-0.66651 0.10351,-1.30287 0.24326,-1.54734 0.35854,-0.6272 0.29932,-0.98255 -0.24915,-1.49489 -0.64767,-0.60503 -0.62888,-1.07743 0.0782,-1.96692 0.48679,-0.61235 1.04062,-1.01488 2.74545,-1.99542 0.32479,-0.1868 0.32479,-0.62863 0,-0.52886 -0.13703,0.0421 -0.79836,0.1043 -1.46961,0.13826 -1.09523,0.0554 -1.26322,0.022 -1.63709,-0.32567 -0.22915,-0.21308 -0.48569,-0.56636 -0.57009,-0.78507 -0.18963,-0.49136 0.0691,-1.35276 0.53221,-1.77186 0.3226,-0.29195 0.35086,-0.2803 1.11491,0.45937 1.00594,0.97385 2.16582,1.3246 2.98293,0.90205 0.28882,-0.14935 0.63365,-0.27155 0.76628,-0.27155 0.26971,0 0.60585,0.81879 0.60585,1.47577 0,0.58368 -0.71892,1.96169 -1.55544,2.98147 -0.69228,0.84393 -1.55092,2.86598 -1.9513,4.59516 -0.10576,0.45678 -0.3578,1.24159 -0.56007,1.74404 -0.29981,0.74473 -0.44807,0.92316 -0.80228,0.96555 -0.34461,0.0412 -0.4558,-0.0329 -0.53746,-0.35826 z m 25.31706,-0.31661 c -0.1361,-0.32258 -0.22777,-1.14144 -0.22777,-2.03472 0,-2.12529 0.59085,-3.32166 1.04589,-2.11776 0.25299,0.66934 0.39957,3.98692 0.19319,4.37255 -0.26654,0.49803 -0.75296,0.39218 -1.01131,-0.22007 z m 17.18652,-1.04914 c -0.55621,-0.55622 -0.48546,-0.88852 0.69605,-3.26923 0.91357,-1.84081 1.26213,-2.44509 2.67539,-4.63813 0.79668,-1.23626 1.00107,-1.4218 1.27001,-1.15285 0.20475,0.20475 -0.15608,1.06204 -1.12652,2.67641 -1.10657,1.84086 -2.40917,4.54907 -2.40917,5.00886 0,0.35689 0.0788,0.47241 0.32239,0.47241 0.17732,0 0.36381,-0.067 0.41442,-0.1489 0.0506,-0.0819 0.39904,-0.30892 0.77428,-0.5045 0.5293,-0.27589 0.73429,-0.31242 0.91437,-0.16297 0.51018,0.42342 0.19076,0.74932 -1.73071,1.76581 -0.92096,0.4872 -1.27564,0.47797 -1.80051,-0.0469 z m 3.32129,0.16716 c -0.15559,-0.40548 2.08398,-2.36643 2.44666,-2.14227 0.44787,0.2768 -0.3305,1.29936 -1.58936,2.08797 -0.60651,0.37995 -0.72935,0.38774 -0.8573,0.0543 z m -32.43094,-0.47072 c -0.14739,-0.17759 -0.12684,-0.39473 0.0882,-0.9322 0.20248,-0.50602 0.23793,-0.82134 0.12764,-1.13495 -0.13161,-0.37424 -0.24929,-0.43481 -0.85123,-0.43812 l -0.69851,-0.004 0.0932,0.58361 c 0.12556,0.786 -0.38571,1.3003 -1.05773,1.06396 -0.93029,-0.32716 -1.46814,-1.60894 -2.05045,-4.8865 -0.29257,-1.64676 -0.32564,-2.32632 -0.2398,-4.92848 0.07,-2.12078 0.0451,-3.05203 -0.0837,-3.13162 -0.25764,-0.15923 -2.05681,0.99115 -2.12796,1.3606 -0.12631,0.6559 -0.90258,1.15815 -1.06002,0.68585 -0.0496,-0.14885 -0.25692,-0.12755 -0.80837,0.0831 -0.4079,0.15577 -0.94839,0.28323 -1.2011,0.28323 -0.25271,0 -0.68804,0.11819 -0.96741,0.26266 -0.55229,0.28561 -1.13277,0.21569 -1.53313,-0.18466 -0.28583,-0.28584 -0.18554,-0.7424 0.16308,-0.7424 0.12609,0 0.85758,-0.65402 1.62554,-1.45336 2.84911,-2.96559 3.65313,-4.11165 3.55902,-5.07302 -0.0416,-0.42456 -0.14855,-0.5501 -0.57145,-0.6706 -0.42819,-0.122 -0.65135,-0.0715 -1.26034,0.28544 -0.80722,0.47306 -1.28246,0.54305 -1.59116,0.23436 -0.45353,-0.45353 -0.46234,-0.44236 2.73123,-3.4627 1.34491,-1.27195 1.62302,-1.89489 1.50355,-3.36775 -0.0848,-1.04601 -0.40042,-2.57657 -0.9549,-4.63121 -0.0913,-0.33846 -0.33983,-0.82431 -0.55221,-1.07965 -0.71656,-0.86151 -0.8004,-1.1441 -0.53084,-1.78926 0.2097,-0.5019 0.32249,-0.58513 0.79278,-0.58514 l 0.5483,-2e-5 0.46273,-3.77874 c 0.62502,-5.10394 0.94161,-8.48904 0.9457,-10.1117 0.003,-1.0347 0.0658,-1.40175 0.27054,-1.57167 0.22695,-0.18835 0.30188,-0.17415 0.49829,0.0945 0.39548,0.54085 0.36983,3.95086 -0.0494,6.56443 -0.35643,2.22218 -0.427,8.97003 -0.10336,9.88289 0.30047,0.84753 0.47022,4.22845 0.26695,5.31686 -0.18854,1.00958 0.0135,7.80906 0.26461,8.90349 0.0967,0.42148 0.33407,1.79222 0.52751,3.04609 0.31377,2.0338 0.32796,2.3902 0.1315,3.30312 -0.12111,0.56282 -0.2189,1.77077 -0.21729,2.68432 l 0.003,1.66099 0.84922,1.66099 c 0.46707,0.91354 0.94156,1.88522 1.05443,2.15929 0.11286,0.27406 0.23716,0.4104 0.27622,0.30295 0.0391,-0.10743 -0.0829,-0.53311 -0.27092,-0.94596 -0.18808,-0.41284 -0.34195,-0.89088 -0.34195,-1.06234 0,-0.17144 -0.11754,-0.65666 -0.2612,-1.07827 -0.30751,-0.90251 -0.26342,-1.70106 0.0939,-1.70106 0.16087,0 0.30674,0.27361 0.41525,0.77893 0.20921,0.97419 1.0093,1.89564 1.37934,1.58853 0.34355,-0.28512 1.05095,0.60237 1.53183,1.92183 0.44058,1.20886 0.63505,3.64682 0.32107,4.02514 -0.25313,0.30501 -0.89005,0.30956 -1.1402,0.008 z m -6.67806,-15.15862 c 0.0113,-0.11187 -0.11666,-0.15647 -0.30656,-0.1068 -0.33956,0.0888 -1.16886,1.05899 -1.16886,1.36744 0,0.0975 -0.0721,0.17718 -0.16026,0.17718 -0.0881,0 -0.24794,0.16818 -0.3551,0.37373 -0.10717,0.20555 0.29254,-0.0747 0.88823,-0.62287 0.5957,-0.54813 1.09185,-1.08304 1.10255,-1.18868 z m -9.41586,7.24575 c -0.44619,-0.41568 -0.47867,-1.23453 -0.0728,-1.83387 0.68019,-1.0043 1.77636,-2.14697 2.05962,-2.14697 0.3959,0 0.39923,0.49651 0.007,1.01572 -0.45514,0.6022 -0.82162,1.69355 -0.75092,2.23619 0.11526,0.88463 -0.61554,1.31328 -1.24276,0.72893 z m 6.47524,-2.59886 c 0.0599,-0.30933 0.89618,-0.85298 1.34062,-0.87155 0.70611,-0.0295 -0.0443,0.90377 -0.84233,1.04758 -0.45465,0.0819 -0.54227,0.051 -0.49829,-0.17603 z m 22.08961,-0.60065 c -0.28851,-0.34762 -0.27233,-4.06188 0.0384,-8.81689 0.14852,-2.27274 0.30673,-4.29085 0.35158,-4.48468 0.077,-0.33261 0.25077,-2.94949 0.30473,-4.58796 0.0243,-0.73881 0.0313,-0.74745 0.60596,-0.74745 h 0.58134 l 0.05,1.05854 c 0.0275,0.5822 -0.0624,1.74075 -0.19972,2.57454 -0.13733,0.83379 -0.29528,2.30081 -0.35099,3.26003 -0.0557,0.95922 -0.17474,2.46922 -0.26452,3.35554 -0.0898,0.88633 -0.22584,3.07986 -0.30238,4.87451 -0.10615,2.48905 -0.19641,3.32026 -0.38053,3.50439 -0.20617,0.20618 -0.26944,0.20754 -0.43386,0.009 z m -25.44129,-1.91993 c 0,-0.36252 0.7556,-0.98486 0.95438,-0.78607 0.15191,0.15191 -0.14033,0.59419 -0.58981,0.89263 -0.33645,0.22339 -0.36457,0.21517 -0.36457,-0.10656 z m 78.08013,-34.79993 c -0.23694,-0.38337 -0.34646,-0.84076 -0.34802,-1.45337 -0.003,-1.10079 -0.1378,-1.64139 -0.40991,-1.64139 -0.11403,0 -0.60051,-0.64113 -1.08105,-1.42474 -0.76745,-1.25145 -0.85142,-1.47368 -0.6904,-1.82709 0.23877,-0.52405 0.45088,-0.5075 0.99219,0.0774 0.96452,1.04225 1.19144,1.47078 1.19144,2.24994 0,0.41335 0.0746,0.59227 0.24692,0.59227 0.32629,0 0.79341,1.13257 0.6883,1.66881 -0.0977,0.49864 0.0114,0.70288 0.51815,0.96975 0.45216,0.23811 0.48227,0.69979 0.07,1.07292 -0.45881,0.41522 -0.79538,0.3339 -1.17759,-0.28453 z m 4.13893,0.23703 c 0,-0.086 0.0747,-0.20249 0.1661,-0.25895 0.0913,-0.0565 0.1661,0.0139 0.1661,0.15629 0,0.14243 -0.0747,0.25895 -0.1661,0.25895 -0.0914,0 -0.1661,-0.0703 -0.1661,-0.15629 z m -4.27705,-7.4782 c -0.53202,-0.67456 -0.46228,-0.81745 0.12457,-0.25521 0.48178,0.46157 0.63147,0.75727 0.37372,0.73825 -0.0685,-0.005 -0.29275,-0.22242 -0.49829,-0.48304 z m 15.88734,-10.85908 c -0.32615,-0.28862 -0.76192,-0.66093 -0.96837,-0.82734 -0.20644,-0.16641 -0.32963,-0.34829 -0.27375,-0.40417 0.0559,-0.0559 0.19005,-0.0132 0.29816,0.0949 0.1081,0.1081 0.32486,0.19655 0.48169,0.19655 0.15682,0 0.31453,0.0882 0.35046,0.19598 0.098,0.29402 0.64417,0.0224 0.7472,-0.37155 0.0888,-0.33973 0.0892,-0.33972 0.46842,0.0165 0.32537,0.30567 0.35533,0.42587 0.21004,0.84263 -0.27498,0.78883 -0.63322,0.85875 -1.31385,0.25643 z m -0.48165,-1.85356 c -0.11373,-0.13704 -0.33796,-0.24915 -0.4983,-0.24915 -0.38632,0 -0.74972,-0.42596 -0.49678,-0.58229 0.20643,-0.12758 1.49337,0.66253 1.49337,0.91684 0,0.2433 -0.26289,0.19824 -0.49829,-0.0854 z m -45.42811,-2.55219 c -0.70226,-0.15156 -0.79423,-0.79674 -0.13535,-0.94953 0.25715,-0.0596 0.8039,-0.20663 1.215,-0.32666 1.25351,-0.36601 2.78657,-0.42054 3.09695,-0.11016 0.24412,0.24412 0.23118,0.29622 -0.15642,0.62962 -0.37858,0.32563 -1.07371,0.5054 -3.10663,0.8034 -0.22839,0.0335 -0.63948,0.0125 -0.91355,-0.0467 z m -6.42565,-7.6682 c -0.45892,-0.45892 -0.49372,-0.56942 -0.3923,-1.24574 0.0724,-0.48252 0.0496,-0.74216 -0.065,-0.74216 -0.097,0 -0.17628,0.22161 -0.17628,0.49245 0,0.52283 -0.39234,0.85632 -0.83049,0.70594 -0.403,-0.13831 -0.49307,-0.39513 -0.49576,-1.41356 -0.002,-0.80254 0.0653,-1.03042 0.40516,-1.37032 0.92774,-0.92775 2.91428,-0.048 2.91428,1.29054 0,0.20963 0.15808,0.47987 0.3513,0.60053 0.29829,0.18629 0.33508,0.32075 0.24386,0.89125 -0.16172,1.0113 -0.36876,1.29466 -0.94598,1.29466 -0.34108,0 -0.66884,-0.16362 -1.00881,-0.50359 z m 59.26833,-0.94045 c -0.19851,-0.19852 -0.10725,-0.54915 0.14294,-0.54915 0.13703,0 0.24914,0.1077 0.24914,0.23934 0,0.2775 -0.23707,0.46482 -0.39208,0.30981 z m 2.82821,-0.82598 c -0.2023,-0.2023 -0.11446,-0.55367 0.13841,-0.55367 0.13842,0 0.24915,0.14765 0.24915,0.3322 0,0.33091 -0.17699,0.43205 -0.38756,0.22147 z"
     id="path9699"
     inkscape:connector-curvature="0"
     sodipodi:nodetypes="ccscscscccccccsccccccccscscccccscscccsccccsccsccccccsccscccscccccsscscccccccsccccccccscccccccccsccccscsccccccccccccccccccccscscsccscccccccscccccsccscccccsscsccccscccccccccccccccscccccccccccccccccccccccccccccccccccccccccscccccscccccccccsccccscscssccsccccccccccccccccscccscccccscccccccccccsccccsccscccscsccccccccccscccccsccscccccccscccsscsccsccccccccsccscccccccccccccsccscscccscccscccccccccccscccccccccccccccsscscccsccccccccsccccccccccscccccccccccccsccccccsccccccccccccccccccccccccccccsccccccsscsscccsccccsccccscscccccccsccccccccccccscccscccccscsccccccsccccccccccscccscscccccccccccccccscccccccccccsccccccccsccccccccsssscccccccscscscccccccscccccccccsccsccccscscccccccccccccccccsscccccccsccccccccsscccccccccccccccccccccccsccsccccccccccccccccccccccccccccscsccccccccsscccccscccccccccsccscscccccccsccsccscccsscccccscsssccccccscscccccccscsccccsccccccsscccsccscccssccssc" /><g
     id="g4759"
     transform="translate(-468.60902,36.598)"><path
       inkscape:connector-curvature="0"
       id="path4755"
       d="m 711.62855,334.13439 10.30271,-17.84483 v -6.52751 l 3.57019,-6.18375 4.13398,-4.13398 6.5434,-1.7533 5.62255,-5.62255 2.90244,-5.02717 3.28462,-5.68913 -2.23122,-8.32701 -4.64999,-8.05402 3.81514,-3.81513 7.38704,-4.26491 7.12028,-4.1109 5.37376,-1.43989 3.28213,3.28213 2.57997,4.46863 4.90442,1.31414 v 4.78399 l 1.19377,4.4552 0.73225,2.73281 -1.30423,2.25898 1.62325,6.05805 -0.67547,2.52091 -4.34532,2.50877 -2.3919,4.14288 -0.71683,2.67526 2.41687,2.41687 2.30549,2.30549 4.41469,2.54882 4.17887,1.11973 h 3.93988 l 3.96454,-2.28893 h 4.81828 l 4.30449,-2.4852 5.31825,-5.31825 4.39141,-4.39141 3.37361,-0.90396 v -5.20564 l 3.71186,-3.71187 0.94382,-1.63473 h 3.8659 l 5.38925,-3.11149 2.84723,-2.84722 7.53457,-4.35009 2.95028,-2.95028 3.82636,6.62744 1.66016,6.19581 -6.35485,1.70278 -5.45894,3.15172 h -2.51338 -2.41527 l -1.67161,1.6716 1.1672,2.02166 -1.85204,1.06927 -3.05245,3.05246 -4.06206,4.06206 -0.52883,1.97363 v 4.20376 l -4.37063,2.52338 -3.98855,6.90838 -6.19536,6.19535 -7.53992,2.02032 -8.3373,4.81354 -7.42416,4.28635 -3.8458,6.66111 v 7.65129 l -1.41352,5.27534 -1.55959,5.82045 1.00298,3.74317 v 9.31381 h -48.6483 l 1.73897,-6.48993 3.3164,-5.74417 -2.32919,-8.69265 -0.62247,-2.32309 -6.3123,3.64441 -1.77001,1.77001 -3.28448,1.89629 z"
       style="fill:#ffffff;fill-rule:evenodd;stroke:#000000;stroke-width:1px;stroke-linecap:butt;stroke-linejoin:miter;stroke-opacity:1" /><path
       inkscape:connector-curvature="0"
       id="path9701-3"
       d="m 774.34567,363.65168 c -0.12357,-1.52618 -0.16951,-3.67241 -0.1422,-6.64396 0.0248,-2.69745 -0.0168,-3.61266 -0.16412,-3.61266 -0.10854,0 -0.44232,0.18687 -0.74175,0.41525 -0.29943,0.22839 -0.62655,0.41525 -0.72694,0.41525 -0.10039,0 -0.2802,0.13538 -0.39957,0.30084 -0.40766,0.56504 -0.63883,0.58555 -1.14409,0.10148 -0.66454,-0.63667 -0.61997,-1.14491 0.19559,-2.23031 0.37421,-0.49803 0.83138,-1.20609 1.01595,-1.57347 0.18456,-0.36738 0.4304,-0.78009 0.5463,-0.91712 0.63948,-0.75602 1.40102,-2.635 1.50851,-3.72198 0.10682,-1.08027 0.0951,-1.13996 -0.19938,-1.01967 -0.61067,0.24943 -0.79845,0.18094 -0.88926,-0.32437 -0.0705,-0.39251 -0.18635,-0.50945 -0.54553,-0.55085 -0.39103,-0.0451 -0.45598,0.007 -0.45598,0.36801 0,0.83035 -2.12496,4.65951 -3.19159,5.75126 -0.31459,0.322 -0.69334,0.77046 -0.84166,0.9966 -0.33489,0.51059 -1.34175,1.06881 -1.68808,0.93591 -0.58814,-0.22569 -0.2449,-0.90262 1.83939,-3.62752 0.65124,-0.85141 1.34454,-1.847 1.54068,-2.21242 0.19613,-0.36542 0.49639,-0.89612 0.66726,-1.17933 0.17085,-0.28322 0.57099,-0.99329 0.88918,-1.57794 0.3182,-0.58466 0.8893,-1.58622 1.26911,-2.2257 0.82951,-1.39666 2.67159,-5.20085 2.67159,-5.51729 0,-0.0675 0.26928,-0.78008 0.59839,-1.58355 0.62891,-1.53533 0.66262,-2.28376 0.10288,-2.28376 -0.20696,0 -0.40135,0.31826 -0.68479,1.12117 -0.45611,1.29204 -0.60429,1.51552 -1.13987,1.71914 -0.23011,0.0875 -0.52275,0.44916 -0.71489,0.88352 -0.38837,0.87798 -1.10865,1.16753 -1.66096,0.6677 -0.45631,-0.41296 -0.40194,-0.80987 0.26031,-1.90004 0.31973,-0.52635 0.58134,-1.02408 0.58134,-1.10606 0,-0.16598 0.38227,-0.71603 1.5,-2.15837 0.77787,-1.00379 1.82199,-2.74866 1.82199,-3.04482 0,-0.29353 -1.3618,-0.18228 -2.09123,0.17083 -0.38567,0.1867 -1.21278,0.82191 -1.83802,1.41158 -1.62168,1.52944 -2.50938,1.41971 -1.42443,-0.17608 1.2663,-1.8625 5.54262,-6.55792 5.97257,-6.55792 0.12212,0 0.26263,-0.10582 0.31226,-0.23515 0.0496,-0.12934 0.3722,-0.43056 0.71684,-0.66939 0.64279,-0.44545 0.72676,-0.57486 1.29927,-2.0022 0.69845,-1.74133 0.94119,-2.87896 1.28437,-6.0192 0.27416,-2.50884 0.47074,-3.1993 0.91087,-3.1993 0.57984,0 0.67103,0.35028 0.66808,2.56623 -0.003,2.40193 -0.24466,3.83676 -0.89145,5.29729 -0.44134,0.99659 -0.39085,1.60413 0.13332,1.60413 0.51249,0 4.28124,-1.33714 5.7471,-2.03905 0.86958,-0.41639 2.05634,-1.137 2.63724,-1.60135 0.58089,-0.46435 1.14008,-0.84473 1.24262,-0.8453 0.10255,-5.3e-4 0.40333,-0.11412 0.66839,-0.25235 0.26507,-0.13823 0.62863,-0.20477 0.80791,-0.14787 0.26625,0.0845 0.3092,0.20682 0.23443,0.6676 -0.16996,1.04735 0.15224,0.86348 4.28919,-2.44783 1.09626,-0.87747 2.14184,-1.76157 2.32353,-1.96468 0.55722,-0.62292 0.90168,-0.73462 1.26142,-0.40906 0.17511,0.15847 0.31838,0.42838 0.31838,0.59979 0,0.60327 0.4328,0.46456 1.41562,-0.45371 0.54605,-0.5102 1.32916,-1.10521 1.74026,-1.32226 0.41109,-0.21705 1.07723,-0.7354 1.48031,-1.1519 0.40306,-0.41649 0.79188,-0.75726 0.86403,-0.75726 0.0722,0 0.35147,-0.31767 0.62068,-0.70592 0.26921,-0.38826 1.11369,-1.34457 1.87659,-2.12514 1.75761,-1.7983 3.9746,-4.36117 4.27644,-4.94365 0.12746,-0.24596 0.39687,-0.64555 0.5987,-0.88798 0.20182,-0.24243 0.64544,-0.98988 0.98583,-1.66099 0.65681,-1.29498 1.25109,-1.96765 1.73838,-1.96765 0.39389,0 0.84697,0.5179 0.84697,0.96814 0,0.54484 0.22608,0.43981 0.89133,-0.41406 0.60298,-0.77395 0.60356,-0.77633 0.60356,-2.45105 0,-1.72807 -0.0564,-2.03166 -0.66596,-3.5843 -0.19726,-0.50245 -0.40152,-1.05616 -0.45392,-1.23046 -0.0524,-0.17429 -0.23919,-0.46081 -0.41508,-0.63671 -0.1759,-0.17589 -0.26916,-0.36964 -0.20726,-0.43054 0.0619,-0.0609 0.51336,0.31905 1.00323,0.84434 0.93867,1.00653 1.17905,1.09149 2.23293,0.78924 0.54048,-0.155 0.98195,-0.50393 1.87565,-1.48246 0.2022,-0.2214 0.63913,-0.6885 0.97095,-1.03799 0.33181,-0.34949 0.95873,-1.11956 1.39315,-1.71127 0.43442,-0.59171 0.92988,-1.12028 1.10103,-1.1746 0.17116,-0.0543 0.4251,-0.31904 0.56432,-0.58827 0.23089,-0.44649 0.22864,-0.49892 -0.0256,-0.59649 -0.25978,-0.0997 -0.81983,0.42375 -2.38668,2.23071 -0.4291,0.49485 -0.57491,0.47288 -1.02121,-0.15389 -0.35106,-0.49302 -0.3567,-0.53931 -0.086,-0.70592 0.15933,-0.0981 0.67834,-0.53854 1.15336,-0.97882 0.47501,-0.44028 1.16264,-0.9358 1.52806,-1.10115 0.36542,-0.16535 0.85126,-0.50444 1.07964,-0.75353 0.22839,-0.24909 0.57825,-0.51589 0.77747,-0.59288 0.19921,-0.077 0.65499,-0.53631 1.01282,-1.02069 0.35784,-0.48439 0.77329,-0.98252 0.92323,-1.10695 0.32994,-0.27383 0.21006,-0.54163 -0.18583,-0.4151 -0.53523,0.17107 -1.61335,0.74224 -1.99498,1.0569 -0.32129,0.26491 -0.34965,0.36394 -0.18141,0.63334 0.11313,0.18115 0.14549,0.45464 0.0748,0.63201 -0.11804,0.29608 -0.13814,0.29284 -0.37867,-0.061 -0.13971,-0.20554 -0.32193,-0.37372 -0.40493,-0.37372 -0.44684,0 -2.55325,1.47337 -2.90656,2.03304 -0.44252,0.701 -0.50546,0.72173 -1.1656,0.38389 -0.25863,-0.13237 -0.60426,-0.28075 -0.76807,-0.32974 -0.24239,-0.0725 -0.26449,-0.15138 -0.11873,-0.42374 0.0985,-0.18406 0.24526,-0.33466 0.32612,-0.33466 0.22033,0 2.83475,-1.80433 3.45396,-2.38373 0.2969,-0.27781 0.53982,-0.63525 0.53982,-0.79429 0,-0.23831 0.10336,-0.2724 0.58763,-0.19381 0.48163,0.0782 0.69884,0.008 1.20421,-0.38904 0.33913,-0.26641 0.8211,-0.61404 1.07105,-0.77251 0.63787,-0.4044 1.05928,-1.07854 0.82233,-1.31549 -0.1352,-0.13519 -0.41899,-0.0598 -1.06281,0.2822 -1.59601,0.84789 -2.03503,1.0418 -2.62241,1.1583 l -0.58135,0.1153 0.4983,-0.42396 c 0.4516,-0.38423 1.36503,-0.76094 1.85084,-0.76331 0.10442,-5.3e-4 0.23002,-0.10561 0.27912,-0.23354 0.0491,-0.12794 0.55062,-0.46706 1.1145,-0.75361 1.13336,-0.57593 1.48469,-0.50528 1.49488,0.30064 0.007,0.52244 0.8106,1.74191 1.19758,1.81644 0.23797,0.0458 0.25147,-0.0206 0.10115,-0.49746 -0.0954,-0.30269 -0.21321,-0.73721 -0.26175,-0.9656 -0.0485,-0.22838 -0.21878,-0.56473 -0.3783,-0.74744 -0.35089,-0.4019 -1.08205,-2.0672 -1.3224,-3.01196 -0.24213,-0.95171 -0.54919,-1.17887 -0.99325,-0.73482 -0.3246,0.32461 -0.33014,0.38018 -0.0942,0.94495 0.35493,0.84948 0.31476,1.20827 -0.22669,2.02438 -0.52784,0.7956 -1.38741,1.45132 -2.11729,1.61519 -1.59343,0.35773 -2.33593,0.90847 -1.55778,1.15545 0.18271,0.058 0.3322,0.19988 0.3322,0.31532 0,0.23016 -0.28767,0.39462 -1.66099,0.9496 -0.50245,0.20306 -1.36404,0.68478 -1.91463,1.07052 -0.88069,0.61698 -1.93457,1.06583 -2.50915,1.06866 -0.25905,0.001 -0.38279,-0.55707 -0.19702,-0.88903 0.0839,-0.15 0.26103,-0.27274 0.39353,-0.27274 0.15191,0 0.24113,-0.16873 0.24152,-0.45677 5.4e-4,-0.38674 0.21396,-0.60115 1.39218,-1.39858 0.76535,-0.51799 1.71806,-1.05429 2.11713,-1.19178 0.39907,-0.13749 1.13669,-0.47846 1.63914,-0.7577 0.50244,-0.27925 1.05009,-0.50908 1.21699,-0.51073 0.1669,-0.002 0.52871,-0.24593 0.80402,-0.54283 0.27531,-0.29691 0.69043,-0.73671 0.92247,-0.97735 0.43275,-0.44877 0.39971,-0.80822 -0.0743,-0.80822 -0.1469,0 -0.7269,0.25275 -1.2889,0.56166 -0.562,0.30892 -1.31566,0.61215 -1.67479,0.67385 -1.28314,0.22044 -2.47602,0.74026 -3.51509,1.53175 -2.04035,1.55421 -2.45664,1.87687 -2.85669,2.21417 -0.5869,0.49485 -0.78409,0.20897 -0.57155,-0.8286 0.29362,-1.43334 -0.45908,-0.96662 -0.93699,0.58099 -0.11284,0.36542 -0.37017,0.88863 -0.57185,1.1627 -0.58016,0.78839 -1.21911,2.26433 -1.92694,4.45111 -0.71376,2.20508 -0.75337,2.44334 -0.45573,2.74098 0.10963,0.10962 0.16569,0.20332 0.12458,0.2082 -0.0411,0.005 -0.71008,0.0236 -1.48659,0.0415 -1.6576,0.0383 -2.19048,0.29923 -3.23893,1.5858 -0.37658,0.46212 -1.08076,1.04613 -1.62555,1.34817 -0.59078,0.32753 -1.27478,0.90973 -1.775,1.51081 -0.44762,0.53787 -1.13915,1.29743 -1.53673,1.68793 -1.02784,1.00951 -1.62364,2.1054 -1.62364,2.98647 0,1.36655 -0.71377,1.87534 -2.27539,1.62194 -1.28075,-0.20783 -1.87708,-0.47005 -1.87708,-0.8254 0,-0.36567 0.14622,-0.48032 1.56234,-1.22501 1.02444,-0.53872 1.19822,-0.70457 1.62521,-1.55108 0.60453,-1.19848 0.83696,-1.45627 1.96152,-2.17554 0.50244,-0.32137 1.33764,-0.9084 1.85599,-1.30451 0.51836,-0.39612 0.96835,-0.72021 0.99998,-0.72021 0.14759,0 2.28438,-2.14596 2.68536,-2.69688 0.58976,-0.81026 1.00721,-1.02436 2.01437,-1.03313 0.82439,-0.007 0.83148,-0.0119 1.37031,-0.91341 0.60682,-1.01527 0.68772,-1.6633 0.24234,-1.94145 -0.38862,-0.2427 -0.77011,-1.40735 -0.63601,-1.94166 0.22796,-0.90827 1.37855,-1.86632 2.51325,-2.0927 0.42845,-0.0855 0.60929,-0.31339 1.29013,-1.6259 0.71189,-1.37237 0.87186,-1.56668 1.58447,-1.92461 1.25806,-0.63188 2.03579,-0.84813 3.10497,-0.86333 0.54812,-0.008 1.44506,-0.15093 1.99319,-0.31808 0.54812,-0.16716 1.5198,-0.44489 2.15928,-0.61718 2.01498,-0.54288 2.57321,-0.82972 2.57392,-1.32258 6.6e-4,-0.44449 0.64831,-1.44852 1.34968,-2.09228 0.21862,-0.20066 1.14437,-0.75179 2.05722,-1.22473 0.91286,-0.47294 2.08868,-1.14964 2.61293,-1.50378 0.52426,-0.35413 0.99855,-0.64388 1.05397,-0.64388 0.3719,0 3.09982,-2.08353 4.55255,-3.47715 0.95856,-0.91955 1.79569,-1.67192 1.86029,-1.67192 0.34328,0 1.61553,1.06138 1.79678,1.49897 0.11561,0.2791 0.35406,0.60822 0.5299,0.73138 0.1947,0.13637 0.41575,0.63568 0.56537,1.27707 0.13513,0.57923 0.50418,1.51537 0.82011,2.08031 0.35642,0.63733 0.57442,1.25246 0.57442,1.6208 0,0.51888 0.53797,2.10284 1.69809,4.99976 0.58998,1.47321 0.57696,1.64472 -0.14746,1.9437 -0.80746,0.33325 -1.55615,0.53444 -4.70651,1.26473 -1.4305,0.3316 -4.15154,1.21978 -4.70251,1.53495 -0.16548,0.0947 -0.72607,0.31239 -1.24574,0.48384 -0.51967,0.17146 -1.46807,0.51217 -2.10755,0.75715 -1.09641,0.42002 -1.22146,0.434 -2.19344,0.24527 -0.96542,-0.18746 -1.06296,-0.17721 -1.53893,0.16171 -0.67623,0.48151 -1.00146,1.15333 -1.00146,2.06866 0,0.81941 -0.21936,1.12602 -2.15929,3.01813 -0.50245,0.49007 -1.17515,1.14582 -1.49489,1.45724 -0.31974,0.31141 -0.73084,0.84912 -0.91354,1.19491 -0.36277,0.68655 -1.99291,2.33858 -3.35301,3.39802 -0.83021,0.64669 -0.85907,0.69653 -0.79395,1.37123 0.24955,2.58582 0.2617,3.24633 0.0823,4.47342 -0.24275,1.66013 -0.58448,2.36294 -1.6083,3.30764 -0.43259,0.39916 -1.1287,1.0621 -1.5469,1.47319 -0.41821,0.4111 -1.43139,1.31644 -2.25152,2.01188 -2.73107,2.31583 -4.92663,4.68021 -6.38359,6.87443 -0.93115,1.40234 -3.21518,3.40503 -3.88338,3.40503 -0.12559,0 -0.81846,0.29865 -1.53973,0.66367 -0.72125,0.36503 -1.37839,0.66401 -1.46029,0.6644 -0.0819,2.7e-4 -0.53037,0.25011 -0.99659,0.55491 -0.46623,0.3048 -3.16477,1.69086 -5.99676,3.08012 -2.83199,1.38926 -5.29856,2.6129 -5.48127,2.7192 -0.18271,0.1063 -1.22914,0.64691 -2.32539,1.20136 -2.47688,1.25273 -3.58673,1.98708 -4.65078,3.07726 -0.76114,0.77985 -0.79236,0.84154 -0.37372,0.73875 0.34606,-0.085 0.45677,-0.0514 0.45677,0.13851 0,0.27613 -0.67787,1.80574 -0.95079,2.14546 -0.0947,0.11793 -0.55864,1.1861 -1.03086,2.37371 -0.77115,1.93939 -1.06648,2.99838 -1.94389,6.9706 -0.14058,0.63642 -0.35179,1.34649 -0.46936,1.57794 -0.23846,0.46944 -0.75417,2.44373 -0.75417,2.88723 0,0.15725 -0.12071,0.47014 -0.26826,0.69531 -0.26174,0.39949 -0.25762,0.40941 0.17022,0.40941 0.9695,0 0.96883,1.50541 -0.002,3.76501 -0.66298,1.54358 -0.93772,3.15824 -0.74493,4.3779 0.10203,0.64542 0.0685,0.86351 -0.1818,1.18262 -0.37443,0.47734 -0.37977,2.25752 -0.0106,3.54715 0.13073,0.45677 0.33816,1.18386 0.46096,1.61575 0.12279,0.43189 0.25531,1.83335 0.29448,3.11436 l 0.0712,2.3291 h -1.05747 c -0.72628,0 -1.06273,-0.065 -1.07428,-0.20763 z m 44.98045,-88.07473 c 0.57565,-0.4998 0.6961,-0.94794 0.18096,-0.67328 -2.02505,1.07973 -2.37354,1.40312 -1.38801,1.28807 0.34293,-0.04 0.83196,-0.28911 1.20705,-0.61479 z m 15.00048,0.23739 c 0.50116,-0.18955 1.09807,-0.40436 1.32645,-0.47735 0.22839,-0.073 0.78897,-0.30585 1.24575,-0.51745 2.74749,-1.27277 4.10644,-1.90619 5.03978,-2.34906 0.7707,-0.3657 1.10279,-0.45045 1.23744,-0.31581 0.53442,0.53442 0.61998,-0.19474 0.0892,-0.75978 -0.19835,-0.21114 -0.56,-0.9634 -0.80367,-1.6717 -0.24367,-0.7083 -0.49823,-1.41278 -0.5657,-1.56551 -0.0675,-0.15273 -0.0412,-0.42989 0.0583,-0.6159 0.14895,-0.27831 0.1218,-0.36988 -0.15331,-0.51712 -0.18387,-0.0984 -0.33431,-0.2526 -0.33431,-0.34266 0,-0.0901 -0.21863,-0.62933 -0.48585,-1.19838 -0.26722,-0.56904 -0.52558,-1.22149 -0.57414,-1.44987 -0.0486,-0.22839 -0.19118,-0.55594 -0.31695,-0.72789 -0.21663,-0.29618 -0.25117,-0.29791 -0.6558,-0.0328 -0.23492,0.15393 -0.46963,0.44411 -0.52159,0.64485 -0.0519,0.20074 -0.40047,0.53829 -0.77448,0.75012 -0.37401,0.21183 -1.14366,0.77241 -1.71033,1.24574 -1.25771,1.05054 -2.51433,1.94025 -2.7404,1.94025 -0.0922,0 -0.39764,0.19345 -0.67864,0.4299 -0.281,0.23645 -0.90338,0.62886 -1.38306,0.87202 l -0.87215,0.44212 -0.004,0.83049 c -0.003,0.62914 0.081,0.91291 0.34577,1.17038 0.19225,0.18694 0.55733,0.89702 0.81128,1.57795 0.72321,1.93916 0.97814,2.51524 1.22018,2.75728 0.27343,0.27343 0.11969,0.28878 1.20003,-0.11983 z m 1.58391,-3.7805 c 0.0868,-0.0763 0.52187,-0.34638 0.96686,-0.60013 0.91257,-0.52038 0.99695,-0.23671 0.10863,0.36517 -0.51305,0.34762 -1.43186,0.54835 -1.07549,0.23496 z m -1.00521,-1.02343 c 0.0684,-0.11065 0.39541,-0.32546 0.72672,-0.47735 0.60649,-0.27805 1.21845,-0.63881 2.04902,-1.20795 0.53025,-0.36335 0.63176,-0.37976 0.62329,-0.10077 -0.007,0.22699 -1.21336,1.12117 -1.51272,1.12117 -0.10219,0 -0.41886,0.14097 -0.70371,0.31326 -0.70492,0.42639 -1.34674,0.61723 -1.1826,0.35164 z m 3.73754,-2.24284 c 0.11372,-0.13703 0.28152,-0.24915 0.37287,-0.24915 0.0927,0 0.0747,0.11017 -0.0407,0.24915 -0.11372,0.13703 -0.28152,0.24915 -0.37287,0.24915 -0.0927,0 -0.0747,-0.11017 0.0407,-0.24915 z m 6.05543,5.95378 c -0.3715,-0.27165 -0.51942,-0.28021 -0.66869,-0.0387 -0.15534,0.25135 0.22118,0.45894 0.63577,0.35053 0.32526,-0.0851 0.32654,-0.0971 0.0329,-0.31184 z m -2.4843,-0.34639 c 0.45677,-0.13131 1.0921,-0.28915 1.41184,-0.35076 0.63716,-0.12278 0.87099,-0.64286 0.44717,-0.9946 -0.18317,-0.15203 -0.4256,-0.0862 -1.12918,0.30675 -0.49276,0.27518 -1.2136,0.66402 -1.60185,0.86409 -0.74596,0.38438 -0.96446,0.73476 -0.3322,0.5327 0.20554,-0.0657 0.74744,-0.22687 1.20422,-0.35818 z m -115.27278,86.12435 c -0.9082,-0.32423 -0.8849,-0.53144 0.33205,-2.95177 0.43636,-0.86787 0.92516,-1.95166 1.08622,-2.40844 0.53443,-1.51563 1.14913,-2.74063 1.37525,-2.74063 0.38144,0 0.69151,0.83062 0.67458,1.80715 -0.0105,0.61019 -0.23278,1.56627 -0.64161,2.76057 -0.68416,1.99861 -1.25769,3.11016 -1.80122,3.49086 -0.40066,0.28064 -0.36199,0.27905 -1.02527,0.0423 z m -6.154,-4.00547 c -0.0566,-0.22564 -0.0219,-0.56179 0.0773,-0.747 0.0991,-0.18521 0.18287,-0.84619 0.18611,-1.46884 0.003,-0.66649 0.10351,-1.30286 0.24326,-1.54733 0.35854,-0.62721 0.29931,-0.98255 -0.24915,-1.49489 -0.64768,-0.60502 -0.62889,-1.07742 0.0782,-1.96692 0.4868,-0.61234 1.04063,-1.01488 2.74546,-1.99542 0.32479,-0.1868 0.32479,-0.62862 0,-0.52887 -0.13704,0.0421 -0.79837,0.10431 -1.46962,0.13827 -1.09522,0.0554 -1.26322,0.022 -1.63709,-0.32567 -0.22913,-0.21308 -0.48568,-0.56636 -0.57008,-0.78506 -0.18963,-0.49137 0.0691,-1.35277 0.5322,-1.77187 0.3226,-0.29195 0.35087,-0.28031 1.11492,0.45937 1.00594,0.97385 2.16582,1.3246 2.98293,0.90206 0.28883,-0.14936 0.63365,-0.27156 0.76627,-0.27156 0.26972,0 0.60585,0.81879 0.60585,1.47577 0,0.58367 -0.71891,1.96169 -1.55544,2.98147 -0.69227,0.84393 -1.55091,2.86598 -1.95129,4.59516 -0.10576,0.45677 -0.35779,1.24159 -0.56008,1.74404 -0.29981,0.74473 -0.44806,0.92316 -0.80227,0.96555 -0.34462,0.0412 -0.4558,-0.0329 -0.53747,-0.35826 z m 25.31707,-0.31662 c -0.13611,-0.32257 -0.22777,-1.14143 -0.22777,-2.03471 0,-2.12529 0.59085,-3.32166 1.04589,-2.11776 0.25299,0.66933 0.39957,3.98692 0.19318,4.37255 -0.26653,0.49804 -0.75296,0.39219 -1.0113,-0.22008 z m 17.18652,-1.04913 c -0.55622,-0.55621 -0.48547,-0.88852 0.69605,-3.26923 0.91356,-1.84081 1.26213,-2.4451 2.67538,-4.63813 0.79669,-1.23627 1.00107,-1.4218 1.27002,-1.15286 0.20475,0.20476 -0.15608,1.06204 -1.12652,2.67642 -1.10657,1.84085 -2.40917,4.54907 -2.40917,5.00887 0,0.35688 0.0788,0.4724 0.32239,0.4724 0.17731,0 0.36381,-0.067 0.41442,-0.1489 0.0506,-0.0819 0.39904,-0.30892 0.77428,-0.5045 0.5293,-0.27589 0.73429,-0.31242 0.91437,-0.16297 0.51019,0.42342 0.19076,0.74932 -1.73072,1.76581 -0.92096,0.4872 -1.27564,0.47796 -1.8005,-0.0469 z m 3.32129,0.16716 c -0.1556,-0.40547 2.08398,-2.36642 2.44666,-2.14228 0.44787,0.2768 -0.3305,1.29936 -1.58936,2.08798 -0.60651,0.37996 -0.72935,0.38773 -0.8573,0.0543 z m -32.43094,-0.47071 c -0.14739,-0.1776 -0.12685,-0.39474 0.0882,-0.93221 0.20248,-0.50602 0.23793,-0.82134 0.12764,-1.13496 -0.13162,-0.37423 -0.24929,-0.4348 -0.85124,-0.43811 l -0.6985,-0.004 0.0932,0.5836 c 0.12556,0.78601 -0.38571,1.30031 -1.05773,1.06397 -0.93029,-0.32716 -1.46815,-1.60894 -2.05045,-4.8865 -0.29258,-1.64676 -0.32564,-2.32632 -0.2398,-4.92848 0.07,-2.12078 0.0451,-3.05203 -0.0837,-3.13162 -0.25764,-0.15923 -2.05681,0.99115 -2.12797,1.36061 -0.1263,0.65589 -0.90257,1.15814 -1.06001,0.68584 -0.0496,-0.14885 -0.25692,-0.12755 -0.80837,0.0831 -0.4079,0.15578 -0.9484,0.28323 -1.20111,0.28323 -0.25271,0 -0.68803,0.1182 -0.9674,0.26267 -0.5523,0.2856 -1.13278,0.21568 -1.53313,-0.18468 -0.28582,-0.28583 -0.18554,-0.74239 0.16308,-0.74239 0.12609,0 0.85758,-0.65402 1.62554,-1.45337 2.8491,-2.96558 3.65313,-4.11164 3.55901,-5.073 -0.0416,-0.42457 -0.14854,-0.55012 -0.57145,-0.67061 -0.42817,-0.122 -0.65134,-0.0715 -1.26033,0.28543 -0.80723,0.47307 -1.28246,0.54307 -1.59116,0.23437 -0.45353,-0.45353 -0.46234,-0.44235 2.73123,-3.4627 1.34491,-1.27196 1.62301,-1.89488 1.50355,-3.36774 -0.0848,-1.04602 -0.40042,-2.57657 -0.9549,-4.63122 -0.0913,-0.33846 -0.33984,-0.8243 -0.55222,-1.07965 -0.71655,-0.8615 -0.80039,-1.14411 -0.53084,-1.78925 0.20971,-0.5019 0.32249,-0.58515 0.79279,-0.58516 l 0.5483,-1e-5 0.46272,-3.77874 c 0.62503,-5.10394 0.94161,-8.48904 0.94571,-10.1117 0.003,-1.0347 0.0658,-1.40175 0.27054,-1.57167 0.22696,-0.18836 0.30187,-0.17415 0.4983,0.0945 0.39547,0.54084 0.36981,3.95086 -0.0494,6.56442 -0.35642,2.22219 -0.42701,8.97003 -0.10337,9.8829 0.30047,0.84753 0.47023,4.22845 0.26696,5.31686 -0.18855,1.00958 0.0135,7.80907 0.2646,8.90349 0.0967,0.42148 0.33408,1.79222 0.52752,3.0461 0.31376,2.03379 0.32795,2.39019 0.13151,3.3031 -0.12112,0.56284 -0.21891,1.77078 -0.2173,2.68432 l 0.003,1.66099 0.84922,1.661 c 0.46707,0.91354 0.94156,1.88522 1.05442,2.15928 0.11287,0.27407 0.23717,0.4104 0.27623,0.30296 0.0391,-0.10743 -0.0829,-0.53312 -0.27092,-0.94595 -0.18808,-0.41284 -0.34196,-0.8909 -0.34196,-1.06235 0,-0.17144 -0.11753,-0.65667 -0.26118,-1.07827 -0.30753,-0.9025 -0.26344,-1.70106 0.0939,-1.70106 0.16086,0 0.30672,0.27361 0.41524,0.77892 0.20921,0.9742 1.0093,1.89565 1.37933,1.58854 0.34356,-0.28512 1.05096,0.60237 1.53185,1.92183 0.44057,1.20886 0.63504,3.64682 0.32106,4.02514 -0.25314,0.30501 -0.89005,0.30956 -1.1402,0.008 z m -6.67806,-15.15863 c 0.0113,-0.11187 -0.11667,-0.15647 -0.30657,-0.10681 -0.33955,0.0888 -1.16885,1.05899 -1.16885,1.36745 0,0.0975 -0.0721,0.17718 -0.16026,0.17718 -0.0881,0 -0.24794,0.16818 -0.3551,0.37372 -0.10717,0.20555 0.29254,-0.0747 0.88823,-0.62287 0.5957,-0.54813 1.09184,-1.08303 1.10255,-1.18867 z m -9.41586,7.24575 c -0.44619,-0.41568 -0.47868,-1.23452 -0.0728,-1.83387 0.6802,-1.0043 1.77637,-2.14697 2.05963,-2.14697 0.3959,0 0.39923,0.4965 0.007,1.01572 -0.45514,0.6022 -0.82162,1.69354 -0.75091,2.23619 0.11526,0.88463 -0.61554,1.31328 -1.24276,0.72893 z m 6.47523,-2.59887 c 0.0599,-0.30932 0.89619,-0.85297 1.34063,-0.87153 0.70611,-0.0295 -0.0443,0.90376 -0.84233,1.04757 -0.45465,0.0819 -0.54227,0.051 -0.4983,-0.17604 z m 22.08961,-0.60064 c -0.28851,-0.34763 -0.27232,-4.06188 0.0384,-8.8169 0.14852,-2.27273 0.30674,-4.29084 0.35159,-4.48468 0.077,-0.3326 0.25077,-2.94949 0.30473,-4.58796 0.0243,-0.7388 0.0313,-0.74744 0.60596,-0.74744 h 0.58134 l 0.05,1.05854 c 0.0275,0.5822 -0.0624,1.74075 -0.1997,2.57454 -0.13735,0.83379 -0.29529,2.30081 -0.35101,3.26003 -0.0557,0.95922 -0.17473,2.46922 -0.2645,3.35554 -0.0898,0.88633 -0.22585,3.07986 -0.30239,4.87451 -0.10615,2.48905 -0.1964,3.32026 -0.38053,3.50438 -0.20618,0.20618 -0.26944,0.20756 -0.43387,0.009 z m -25.44128,-1.91993 c 0,-0.36252 0.75559,-0.98486 0.95438,-0.78607 0.15191,0.15191 -0.14033,0.59419 -0.58981,0.89263 -0.33645,0.22339 -0.36457,0.21517 -0.36457,-0.10656 z m -11.46084,-6.02863 c 0,-0.19644 0.17583,-0.73834 0.39072,-1.20422 0.62662,-1.35842 0.98953,-2.27009 2.0233,-5.08258 0.25185,-0.68516 0.79167,-2.03056 1.19962,-2.98978 0.66631,-1.5667 0.73924,-1.86587 0.71719,-2.94218 -0.0337,-1.64426 0.66122,-4.44995 1.45163,-5.86107 0.7125,-1.27202 1.5259,-3.21691 1.5259,-3.6485 0,-0.16728 0.22424,-0.73042 0.4983,-1.25143 0.27407,-0.521 0.4983,-1.05332 0.4983,-1.18294 0,-0.12962 0.28905,-0.85079 0.64234,-1.6026 0.35328,-0.75181 0.73538,-1.66591 0.84908,-2.03133 0.11371,-0.36542 0.30625,-0.88863 0.42787,-1.16269 0.12162,-0.27407 0.44888,-1.04634 0.72727,-1.71616 0.89923,-2.16373 1.83312,-3.15279 4.04751,-4.28662 0.29218,-0.1496 0.75725,-0.46875 1.03351,-0.70922 0.27624,-0.24047 1.12429,-0.76083 1.88453,-1.15635 1.34349,-0.69896 2.55223,-1.50872 4.25716,-2.85196 0.45678,-0.35987 1.30537,-0.88134 1.88577,-1.15882 1.24662,-0.596 2.01807,-1.13849 2.94911,-2.07388 0.37532,-0.37708 1.54325,-1.25886 2.59539,-1.95953 1.96581,-1.30912 2.38696,-1.73935 2.56268,-2.61795 0.0675,-0.33739 0.34696,-0.69477 0.8344,-1.06696 0.94675,-0.7229 1.15126,-0.99755 2.22786,-2.99203 0.88475,-1.63907 0.89656,-1.67963 0.89528,-3.07283 0,-0.78148 -0.1388,-2.00513 -0.30927,-2.74064 -0.16938,-0.73083 -0.36547,-1.70251 -0.43575,-2.15929 -0.0703,-0.45677 -0.21128,-1.0916 -0.31333,-1.41074 -0.10205,-0.31914 -0.18556,-0.85164 -0.18556,-1.18334 0,-1.10935 -0.78223,-2.70848 -2.72627,-5.57334 -0.54023,-0.79612 -1.23545,-1.89547 -1.54493,-2.443 l -0.5627,-0.99551 1.12968,-1.09162 c 0.62133,-0.6004 1.50188,-1.52081 1.95678,-2.04536 0.61502,-0.70919 1.30751,-1.23185 2.70071,-2.03837 2.01745,-1.16791 5.10774,-3.28365 5.3146,-3.6386 0.21016,-0.36063 2.31091,-1.90025 2.9855,-2.18804 0.34625,-0.14771 0.9492,-0.40954 1.33989,-0.58183 0.39071,-0.1723 0.84967,-0.31327 1.01994,-0.31327 0.62,0 3.46171,-0.82467 4.82951,-1.40154 0.77158,-0.32541 1.51725,-0.59238 1.65705,-0.59327 0.13981,-8e-4 0.65403,-0.18776 1.14271,-0.41525 0.48869,-0.22749 1.00383,-0.41363 1.14478,-0.41363 0.44548,0 2.00845,1.47854 2.77959,2.62941 0.40827,0.6093 0.90997,1.33206 1.11489,1.60612 0.20492,0.27407 0.88063,1.18195 1.50157,2.01753 1.19976,1.61445 1.84304,2.0519 3.01737,2.0519 0.30641,0 0.87488,0.11212 1.26327,0.24915 0.3884,0.13703 0.91193,0.24915 1.16343,0.24915 0.48126,0 0.46119,-0.0314 1.08739,1.70098 0.37371,1.03386 0.25491,1.70391 -0.60361,3.40491 -0.62486,1.23807 -0.68411,1.4609 -0.62085,2.33538 0.0725,1.00197 0.54083,2.11653 1.2005,2.85687 0.68277,0.76627 0.97778,1.72488 0.98353,3.19596 0.004,0.9716 -0.0761,1.52684 -0.27373,1.90334 -0.32365,0.61648 -0.36726,1.90214 -0.0824,2.42761 0.10819,0.19954 0.25255,0.66178 0.32081,1.0272 0.0683,0.36541 0.2865,1.11286 0.48497,1.66099 0.31494,0.86977 0.33655,1.09171 0.16981,1.74404 -0.10507,0.41109 -0.32276,1.30604 -0.48375,1.98878 l -0.2927,1.24133 -0.7571,0.27087 c -1.6173,0.57862 -5.22528,3.63658 -5.91124,5.01009 -0.48988,0.9809 -0.50788,2.4407 -0.0394,3.19865 0.18262,0.29549 0.63045,0.73473 0.99518,0.9761 0.36472,0.24136 0.86459,0.75587 1.11081,1.14335 0.24623,0.38747 0.78427,1.05781 1.19562,1.48964 0.41137,0.43183 0.71508,0.80704 0.67491,0.83381 -0.0402,0.0268 -0.43368,0.2171 -0.87445,0.42297 l -0.80144,0.3743 -1.33608,-0.79286 c -0.74971,-0.4449 -1.70373,-1.1938 -2.17378,-1.70641 -0.48757,-0.53173 -0.86691,-0.82677 -0.90763,-0.70592 -0.1091,0.32382 -0.61742,0.24477 -1.068,-0.1661 -0.65981,-0.60165 -2.34537,-1.88335 -2.77528,-2.11031 -0.87598,-0.46248 -4.51154,-1.55183 -5.91578,-1.77259 -2.36316,-0.37152 -4.95397,-0.55608 -5.17943,-0.36897 -0.10858,0.0901 -0.24811,0.40163 -0.31004,0.69222 -0.0619,0.29058 -0.392,1.3879 -0.73348,2.43848 -0.34149,1.05058 -0.86356,2.95656 -1.16016,4.23553 -0.2966,1.27896 -0.7952,3.14757 -1.10799,4.15247 -0.5758,1.84987 -0.75757,2.61786 -1.08104,4.56773 -0.0985,0.5938 -0.29993,1.34125 -0.44761,1.66099 -0.1477,0.31974 -0.38287,0.9177 -0.52262,1.32879 -0.1859,0.54689 -0.35278,0.76148 -0.62193,0.79976 -0.5279,0.0751 -0.65258,-0.60455 -0.32469,-1.7698 0.28138,-0.9999 0.4184,-1.62222 0.9384,-4.26208 0.59174,-3.00401 1.14349,-5.49847 1.30691,-5.9085 0.0884,-0.22179 0.32766,-0.96385 0.53169,-1.64901 0.20403,-0.68516 0.73146,-2.35966 1.17206,-3.72112 0.4406,-1.36146 0.76635,-2.53159 0.7239,-2.6003 -0.13032,-0.21085 -2.11079,0.0423 -2.87301,0.36725 -0.39584,0.16874 -0.89756,0.3068 -1.11494,0.3068 -0.56428,0 -2.07383,0.59326 -2.71702,1.06779 -0.54141,0.39943 -1.01268,0.41185 -1.01268,0.0267 0,-0.58963 2.52573,-2.22362 3.98638,-2.57894 0.41109,-0.10001 1.12117,-0.28753 1.57794,-0.41672 1.70021,-0.48089 2.55461,-0.60664 3.5888,-0.52822 0.58408,0.0443 1.92154,0.13055 2.97212,0.19171 2.13261,0.12413 4.55869,0.58637 6.06262,1.1551 0.54812,0.20729 1.63191,0.6153 2.40843,0.9067 1.43123,0.5371 1.91564,0.92472 2.86504,2.29254 0.56039,0.80738 0.64279,0.65432 0.22358,-0.41535 -0.20612,-0.52597 -0.51033,-1.38729 -0.67602,-1.91404 -0.26637,-0.84688 -0.47151,-1.11319 -1.77217,-2.3006 -0.80901,-0.73858 -1.47092,-1.44091 -1.47092,-1.56075 0,-0.34122 -1.81739,-1.89164 -2.77663,-2.36875 -0.91518,-0.4552 -1.15162,-0.74055 -0.82615,-0.99708 0.29673,-0.23388 4.33658,0.96755 5.42987,1.61481 1.07081,0.63395 1.85276,1.33064 1.72518,1.53707 -0.0496,0.0802 -0.34587,0.0978 -0.65849,0.0392 -0.31262,-0.0587 -0.56839,-0.0391 -0.56839,0.0434 0,0.0825 0.33634,0.4801 0.74744,0.88356 l 0.74745,0.73357 v -0.82927 c 0,-0.73031 0.0545,-0.86058 0.45677,-1.09166 0.25122,-0.14431 0.65604,-0.30977 0.89961,-0.36767 0.24355,-0.0579 1.30712,-0.52084 2.36348,-1.02872 1.05636,-0.50789 2.23987,-1.01532 2.63,-1.12761 0.59626,-0.17163 0.78156,-0.33562 1.16224,-1.02857 0.58254,-1.06039 0.57449,-1.43062 -0.0465,-2.13791 -0.6779,-0.77209 -0.84267,-1.39278 -0.55276,-2.08228 0.30048,-0.71461 0.29587,-1.33802 -0.01,-1.33802 -0.41092,0 -0.45643,-0.30537 -0.18474,-1.23991 l 0.26261,-0.90335 -0.50061,-0.92531 c -0.27533,-0.50891 -0.5006,-1.04042 -0.5006,-1.18112 0,-0.15384 0.42915,-0.45041 1.07654,-0.74395 1.61695,-0.73316 1.61088,-0.96321 -0.073,-2.76298 -1.58571,-1.69485 -2.3105,-2.25085 -2.93413,-2.25085 -0.63922,0 -0.93797,0.4727 -0.81354,1.28726 0.0558,0.36542 0.14209,1.05119 0.19172,1.52393 0.0574,0.54699 0.20569,0.96403 0.40778,1.14692 0.35712,0.32319 0.39854,0.85109 0.13988,1.7826 -0.19202,0.69152 -0.49692,0.73786 -0.67079,0.10196 -0.10527,-0.385 -0.11567,-0.37875 -0.23365,0.14035 -0.0679,0.2988 -0.19693,0.58867 -0.2867,0.64415 -0.21096,0.13038 -0.47121,-0.28329 -0.3813,-0.60608 0.0382,-0.13703 0.11887,-0.67146 0.17936,-1.18761 0.10364,-0.88439 0.0875,-0.94558 -0.2808,-1.06195 -0.21493,-0.0679 -0.48845,-0.26225 -0.60783,-0.43186 -0.15491,-0.22008 -0.42436,-0.30837 -0.94122,-0.30837 -0.4291,0 -0.75439,-0.0846 -0.79829,-0.20762 -0.0833,-0.23337 0.28645,-1.05343 0.67445,-1.49591 0.14068,-0.16043 0.21235,-0.33514 0.15925,-0.38823 -0.11621,-0.11621 -1.85956,0.2306 -2.40233,0.4779 -0.49202,0.22418 -0.64862,0.84536 -0.39203,1.55497 0.19253,0.53244 0.16915,0.5965 -0.56676,1.55286 -0.72081,0.93676 -0.92092,1.08759 -1.32949,1.00211 -0.0914,-0.0191 -0.78371,-0.12546 -1.53856,-0.23631 -2.25229,-0.33077 -2.61811,0.009 -2.57209,2.39101 0.02,1.03485 0.0471,1.10212 0.65391,1.62134 0.34817,0.29794 1.02151,0.73456 1.49629,0.97027 0.72004,0.35748 1.02311,0.41522 1.82709,0.34814 0.53012,-0.0442 1.16722,-0.13412 1.41579,-0.19973 0.38478,-0.10158 0.48204,-0.0532 0.65459,0.32547 0.16712,0.36681 0.15309,0.57849 -0.08,1.20751 -0.32663,0.88128 -0.36144,0.79701 1.15587,2.79768 0.93131,1.228 1.13416,1.89867 0.57425,1.89867 -0.19071,0 -0.63574,-0.40999 -1.12117,-1.03291 -0.44271,-0.5681 -1.18597,-1.42766 -1.65169,-1.91014 -0.71948,-0.74538 -0.93826,-0.87723 -1.45561,-0.87723 -0.33489,0 -0.73868,-0.0726 -0.89731,-0.16137 -0.49056,-0.27448 -2.53952,-0.83522 -3.05188,-0.83522 -0.59303,0 -1.51256,0.36958 -2.33833,0.93983 -0.43608,0.30115 -0.97208,0.46959 -1.82709,0.5742 -2.78653,0.34091 -3.25963,0.35065 -3.80554,0.0783 -0.29057,-0.14495 -0.5847,-0.26355 -0.65364,-0.26355 -0.21416,0 -0.83383,2.04603 -0.66944,2.21041 0.0909,0.0909 0.56135,0.009 1.17978,-0.20468 0.89011,-0.30804 1.2442,-0.34143 2.63114,-0.24808 3.43588,0.23123 3.76191,0.28763 3.76191,0.65079 0,0.23509 -0.0971,0.32024 -0.3322,0.2913 -0.88629,-0.10911 -3.57678,-0.0318 -3.95969,0.1138 -0.2381,0.0905 -0.914,0.11966 -1.50202,0.0648 -0.94377,-0.0881 -1.15796,-0.0502 -1.82717,0.32386 -0.41693,0.23303 -0.98764,0.47411 -1.26825,0.53574 -0.59133,0.12988 -1.18607,0.93951 -1.51237,2.05879 -0.11714,0.40186 -0.44958,0.96245 -0.73874,1.24574 -0.28916,0.2833 -0.58321,0.70195 -0.65345,0.93034 -0.26311,0.85551 -2.82427,4.15488 -3.59388,4.62973 -0.20333,0.12546 -0.93521,0.68605 -1.62641,1.24575 -1.6988,1.3756 -1.95064,1.54371 -4.28803,2.86228 -1.11647,0.62982 -2.38605,1.34841 -2.82129,1.59686 -0.43525,0.24845 -1.53881,0.75425 -2.45236,1.12399 -2.68684,1.08744 -4.34266,2.54937 -5.74047,5.06825 -1.83525,3.30716 -2.28829,4.52905 -2.81722,7.5982 -0.18491,1.07296 -0.39978,2.11938 -0.47749,2.32539 -0.0777,0.206 -0.22625,0.93513 -0.33008,1.62029 -0.52622,3.47244 -0.54303,3.5326 -1.32238,4.73383 -0.41489,0.63948 -0.90808,1.42737 -1.09597,1.75087 -0.18789,0.3235 -0.54839,0.88408 -0.8011,1.24574 -0.25271,0.36166 -0.73208,1.06866 -1.06523,1.57111 -0.33317,0.50245 -0.93446,1.28174 -1.33621,1.73175 -0.40176,0.45001 -0.92356,1.16008 -1.15956,1.57794 -0.236,0.41786 -0.59475,1.02135 -0.79721,1.34109 -0.20245,0.31974 -0.73356,1.42901 -1.18024,2.46504 -0.44668,1.03603 -1.04093,2.15075 -1.32057,2.47715 -0.48516,0.56628 -0.53383,0.58461 -1.0629,0.40017 -0.72195,-0.25167 -0.8371,-0.24399 -0.8371,0.0559 0,0.13703 -0.0747,0.24915 -0.1661,0.24915 -0.0914,0 -0.1661,-0.16073 -0.1661,-0.35717 z m 38.0367,-62.01304 c 0.22838,-0.13056 0.67684,-0.24247 0.99659,-0.24869 0.31974,-0.006 0.99244,-0.15592 1.49489,-0.33266 0.50245,-0.17675 1.0651,-0.3238 1.25032,-0.32678 0.18522,-0.003 0.4842,-0.1016 0.6644,-0.21916 0.39689,-0.25894 1.77202,-0.80578 3.23436,-1.28619 0.59379,-0.19508 1.4358,-0.57273 1.87111,-0.83922 0.4353,-0.26649 0.88377,-0.48481 0.99659,-0.48515 0.11282,-2.7e-4 0.46673,-0.16852 0.78648,-0.37373 0.57312,-0.36782 1.07894,-0.65632 2.51071,-1.43203 0.40053,-0.217 1.11615,-0.75889 1.5903,-1.20422 0.90234,-0.8475 1.39941,-0.99416 1.88378,-0.55581 0.22577,0.20433 0.37417,0.21775 0.76052,0.0688 0.264,-0.1018 0.81634,-0.24962 1.22744,-0.3285 1.46727,-0.28153 2.0855,-0.44848 2.74064,-0.74009 1.51644,-0.675 2.48803,-1.16664 3.02306,-1.52971 0.31208,-0.21179 0.85662,-0.5326 1.21006,-0.71292 0.72395,-0.36933 0.91311,-0.76738 0.75786,-1.59487 -0.16047,-0.8554 -1.01409,-1.26281 -3.10817,-1.48346 -0.73418,-0.0774 -1.10564,-0.22751 -1.69084,-0.68343 -0.41248,-0.32136 -0.82955,-0.81256 -0.92681,-1.09155 -0.0973,-0.27899 -0.471,-0.97305 -0.83055,-1.54236 -0.35955,-0.5693 -0.76725,-1.30681 -0.90601,-1.6389 -0.13876,-0.3321 -0.31224,-0.60381 -0.38551,-0.60381 -0.0733,0 -0.65635,0.36829 -1.29574,0.81841 -1.67273,1.1776 -3.14216,2.17068 -4.56755,3.08686 -0.68517,0.4404 -1.73159,1.11528 -2.32539,1.49974 -1.27734,0.82703 -3.73043,2.13828 -4.31858,2.30841 -0.22839,0.0661 -1.05058,0.40628 -1.82709,0.75603 -4.61423,2.0783 -5.27364,2.32879 -6.56091,2.49225 -1.22752,0.15586 -1.54706,0.0624 -1.20485,-0.35254 0.23533,-0.28531 1.98933,-1.02673 3.11346,-1.31607 0.41026,-0.10559 0.94501,-0.33375 1.18834,-0.50701 0.24333,-0.17327 0.57175,-0.31503 0.72984,-0.31503 0.15808,0 1.12409,-0.48584 2.14666,-1.07964 1.02259,-0.5938 1.91692,-1.07964 1.98741,-1.07964 0.21043,0 2.98121,-1.34243 3.25083,-1.575 0.13702,-0.11821 0.66007,-0.42766 1.16232,-0.68768 1.09557,-0.5672 2.40988,-1.40579 3.01848,-1.92594 0.24397,-0.20851 0.71822,-0.56597 1.0539,-0.79436 2.07686,-1.41308 3.31357,-2.79391 2.98231,-3.3299 -0.1284,-0.20774 -1.58844,-0.0568 -3.56624,0.36859 -2.59277,0.55771 -4.58661,1.23208 -7.14226,2.41571 -1.34088,0.62102 -6.96844,3.91694 -8.07826,4.73124 -2.11253,1.55002 -4.87747,4.08945 -4.87747,4.47966 0,0.10218 0.33941,0.64218 0.75426,1.19999 0.82369,1.10756 1.90333,2.70811 1.90333,2.82168 0,0.0393 0.44846,1.00766 0.99659,2.15191 0.54813,1.14426 0.99659,2.15547 0.99659,2.24713 0,0.0917 0.0729,0.3584 0.162,0.59273 0.1816,0.47766 0.54446,0.53268 1.1668,0.17692 z m 12.26834,-5.89551 c -0.74448,-0.44557 -0.36486,-1.96146 0.44059,-1.7593 0.32991,0.0828 0.39894,0.0289 0.44335,-0.34628 0.0681,-0.57518 0.36016,-0.6607 0.78966,-0.2312 0.43642,0.43642 0.48257,1.50527 0.065,1.50527 -0.15268,0 -0.42695,-0.1308 -0.6095,-0.29067 -0.31919,-0.27952 -0.32669,-0.27793 -0.19535,0.0415 0.0751,0.18271 0.14386,0.51906 0.15275,0.74745 0.0127,0.32659 -0.0725,0.42388 -0.39909,0.45567 -0.22839,0.0222 -0.53771,-0.0329 -0.68739,-0.12246 z m 5.04543,-1.70353 c -0.26826,-0.3329 0.0343,-0.84647 0.81084,-1.37648 0.83455,-0.56957 1.84908,-1.45253 3.10802,-2.70495 0.88822,-0.88361 1.35685,-1.01819 1.35685,-0.38966 0,0.2866 -1.07898,1.42676 -1.91817,2.02695 -0.18713,0.13383 -0.6111,0.6015 -0.94215,1.03926 -0.61033,0.80706 -1.62265,1.61251 -2.02665,1.61251 -0.12179,0 -0.29672,-0.0934 -0.38874,-0.20763 z m 34.19049,40.84078 c -0.23692,-0.38338 -0.34646,-0.84076 -0.34801,-1.45337 -0.003,-1.10079 -0.1378,-1.64139 -0.40991,-1.64139 -0.11403,0 -0.60051,-0.64113 -1.08105,-1.42474 -0.76744,-1.25145 -0.85142,-1.47368 -0.6904,-1.82709 0.23877,-0.52405 0.45089,-0.5075 0.99218,0.0774 0.96453,1.04225 1.19145,1.47078 1.19145,2.24994 0,0.41335 0.0746,0.59226 0.24692,0.59226 0.32628,0 0.79341,1.13258 0.6883,1.66882 -0.0978,0.49863 0.0114,0.70288 0.51815,0.96975 0.45216,0.23811 0.48227,0.69979 0.07,1.07292 -0.45882,0.41522 -0.79539,0.3339 -1.1776,-0.28453 z m 4.13894,0.23703 c 0,-0.086 0.0747,-0.20249 0.1661,-0.25895 0.0914,-0.0565 0.16609,0.0139 0.16609,0.15629 0,0.14242 -0.0747,0.25895 -0.16609,0.25895 -0.0914,0 -0.1661,-0.0703 -0.1661,-0.15629 z m -1.38886,-1.42165 c -0.0627,-0.16348 -0.32199,-0.24915 -0.75402,-0.24915 -0.81079,0 -0.8415,-0.0804 -0.82456,-2.15929 0.0149,-1.8322 0.0769,-2.15928 0.40931,-2.15928 0.36692,0 0.45062,-0.41186 0.19104,-0.94008 -0.12751,-0.25947 -0.20294,-0.59865 -0.16761,-0.75373 0.17273,-0.7584 -0.9271,-1.5663 -1.88711,-1.3862 -0.40312,0.0756 -0.56117,0.19396 -0.56117,0.42015 0,0.46493 -0.19187,0.51006 -0.99387,0.23375 -0.54515,-0.18782 -0.82768,-0.20561 -1.15153,-0.0725 -0.25789,0.106 -0.62797,0.12206 -0.92743,0.0403 -0.80674,-0.2204 -1.12707,-0.0798 -0.99901,0.43857 0.06,0.24302 0.28197,0.62871 0.49317,0.85709 0.52163,0.56407 0.70905,1.8681 0.34775,2.41953 -0.40613,0.61983 -0.82304,0.50372 -1.39572,-0.38873 -0.68461,-1.06687 -1.2888,-1.6009 -2.18342,-1.92991 -0.68636,-0.25242 -0.82211,-0.2535 -1.66099,-0.0133 -0.50246,0.14389 -1.17516,0.32312 -1.49489,0.39829 -0.76447,0.17972 -1.72143,0.63156 -2.78281,1.31392 -0.47402,0.30475 -1.06955,0.5708 -1.32339,0.59122 -0.62365,0.0502 -2.04009,0.7318 -2.03693,0.98023 0.001,0.10992 0.0712,0.3084 0.15515,0.44107 0.25049,0.39597 0.0213,0.5214 -0.47959,0.26241 -0.43002,-0.22237 -0.47502,-0.3348 -0.53954,-1.34826 -0.0774,-1.21586 -0.33131,-1.5638 -1.14109,-1.5638 -0.24428,0 -0.62241,-0.1392 -0.84028,-0.30935 -0.21786,-0.17014 -0.58201,-0.36766 -0.80919,-0.43892 -0.22718,-0.0713 -0.67565,-0.30143 -0.99659,-0.51146 -0.32095,-0.21004 -0.93396,-0.4687 -1.36227,-0.57481 -1.33392,-0.33047 -1.6379,-1.07124 -0.61369,-1.49548 0.39226,-0.16248 0.58628,-0.1619 0.94314,0.003 0.94553,0.43643 1.98387,0.66613 3.02383,0.66891 0.79574,0.002 1.21067,0.0897 1.57794,0.33291 0.27406,0.1815 0.70385,0.3305 0.95507,0.3311 0.49368,10e-4 0.55859,0.16487 0.27528,0.69424 -0.11854,0.2215 -0.12502,0.39558 -0.0187,0.50192 0.25231,0.25231 3.09715,-0.15231 4.25922,-0.60579 0.55384,-0.21612 1.62477,-0.58318 2.37985,-0.81569 0.75508,-0.2325 1.53784,-0.53828 1.73947,-0.67951 0.48616,-0.34051 1.02756,-0.32379 2.08998,0.0645 0.72696,0.26571 0.8944,0.28137 0.96766,0.0905 0.11223,-0.29247 1.71338,-1.0997 1.92358,-0.96978 0.0864,0.0534 0.44703,-0.0336 0.80129,-0.19331 0.53392,-0.24076 0.72599,-0.25653 1.12274,-0.0922 0.26324,0.10904 0.66636,0.15113 0.89582,0.0935 0.90359,-0.22678 2.95586,1.21755 2.95586,2.08026 0,0.24492 0.15186,0.58275 0.3375,0.75073 0.18562,0.16799 0.41873,0.62804 0.51801,1.02234 0.20193,0.80194 0.24095,0.82834 0.66164,0.44762 0.4079,-0.36915 0.80895,-0.1755 0.80495,0.38865 -0.002,0.25409 -0.22455,1.08948 -0.495,1.85643 -0.68696,1.94809 -1.13981,2.57658 -1.38887,1.92754 z m -2.8882,-6.05655 c -0.53202,-0.67456 -0.46227,-0.81745 0.12458,-0.25521 0.48178,0.46158 0.63147,0.75727 0.37372,0.73825 -0.0685,-0.005 -0.29274,-0.22242 -0.4983,-0.48304 z m 15.88735,-10.85908 c -0.32615,-0.28862 -0.76192,-0.66093 -0.96837,-0.82734 -0.20645,-0.16641 -0.32963,-0.34829 -0.27375,-0.40417 0.0559,-0.0559 0.19005,-0.0132 0.29816,0.0949 0.1081,0.1081 0.32486,0.19655 0.48169,0.19655 0.15682,0 0.31453,0.0882 0.35046,0.19598 0.098,0.29402 0.64417,0.0224 0.7472,-0.37155 0.0888,-0.33973 0.0892,-0.33972 0.46841,0.0165 0.32538,0.30567 0.35534,0.42587 0.21005,0.84263 -0.27498,0.78883 -0.63322,0.85874 -1.31385,0.25643 z m -0.48165,-1.85357 c -0.11373,-0.13703 -0.33796,-0.24914 -0.4983,-0.24914 -0.38632,0 -0.74972,-0.42596 -0.49678,-0.58229 0.20643,-0.12758 1.49337,0.66253 1.49337,0.91684 0,0.2433 -0.26289,0.19824 -0.49829,-0.0854 z m -45.42811,-2.55218 c -0.70226,-0.15156 -0.79423,-0.79674 -0.13536,-0.94953 0.25716,-0.0596 0.8039,-0.20663 1.21501,-0.32666 1.25351,-0.36601 2.78657,-0.42054 3.09695,-0.11016 0.24412,0.24412 0.23118,0.29622 -0.15643,0.62961 -0.37857,0.32564 -1.0737,0.50541 -3.10662,0.80342 -0.2284,0.0335 -0.63948,0.0125 -0.91355,-0.0467 z m -6.42565,-7.6682 c -0.45893,-0.45892 -0.49372,-0.56942 -0.3923,-1.24574 0.0724,-0.48252 0.0496,-0.74216 -0.065,-0.74216 -0.0969,0 -0.17628,0.22161 -0.17628,0.49246 0,0.52282 -0.39234,0.85631 -0.83049,0.70593 -0.403,-0.13831 -0.49307,-0.39513 -0.49576,-1.41356 -0.002,-0.80254 0.0652,-1.03042 0.40516,-1.37032 0.92773,-0.92775 2.91428,-0.048 2.91428,1.29054 0,0.20963 0.15809,0.47987 0.35129,0.60053 0.2983,0.18629 0.33508,0.32075 0.24386,0.89125 -0.16171,1.0113 -0.36875,1.29466 -0.94596,1.29466 -0.34109,0 -0.66885,-0.16362 -1.00882,-0.50359 z m 59.26833,-0.94045 c -0.19851,-0.19852 -0.10725,-0.54915 0.14294,-0.54915 0.13703,0 0.24914,0.1077 0.24914,0.23934 0,0.2775 -0.23707,0.46482 -0.39208,0.30981 z m 2.82821,-0.82598 c -0.2023,-0.2023 -0.11446,-0.55367 0.13841,-0.55367 0.13842,0 0.24915,0.14765 0.24915,0.3322 0,0.33091 -0.17699,0.43204 -0.38756,0.22147 z"
       style="fill:#000000;stroke-width:0.13287929" /></g></svg>