<svg xmlns="http://www.w3.org/2000/svg" width="40" height="40">
<path d="m 19.993419,2.5 c -1.557821,3.8193582 -2.497423,6.3176668 -4.231855,10.023502 1.063424,1.127226 2.368728,2.439936 4.488531,3.922528 C 17.971098,15.50824 16.41654,14.566713 15.254797,13.589699 13.035056,18.221518 9.55736,24.819352 2.5,37.5 8.046849,34.29771 12.346668,32.323457 16.353895,31.570133 16.181816,30.830058 16.083991,30.02953 16.090638,29.194236 l 0.0064,-0.177695 c 0.088,-3.553706 1.936658,-6.286525 4.126552,-6.100979 2.189894,0.185551 3.892077,3.218565 3.804061,6.77229 -0.01661,0.668691 -0.09198,1.311983 -0.223767,1.908612 3.963718,0.775371 8.217557,2.744568 13.689357,5.903536 -1.078931,-1.98639 -2.041972,-3.776974 -2.961642,-5.482322 -1.448624,-1.122781 -2.959614,-2.584093 -6.041744,-4.16605 2.11848,0.550472 3.635283,1.185574 4.817603,1.89546 C 23.957115,12.338045 23.199923,10.024736 19.993419,2.5 Z" fill="#1793d1" />
</svg>
