<?xml version="1.0" encoding="UTF-8" standalone="no"?>
<svg
   xmlns:dc="http://purl.org/dc/elements/1.1/"
   xmlns:cc="http://creativecommons.org/ns#"
   xmlns:rdf="http://www.w3.org/1999/02/22-rdf-syntax-ns#"
   xmlns:svg="http://www.w3.org/2000/svg"
   xmlns="http://www.w3.org/2000/svg"
   xmlns:xlink="http://www.w3.org/1999/xlink"
   id="svg2424"
   height="40"
   width="40"
   version="1.0">
  <metadata
     id="metadata34">
    <rdf:RDF>
      <cc:Work
         rdf:about="">
        <dc:format>image/svg+xml</dc:format>
        <dc:type
           rdf:resource="http://purl.org/dc/dcmitype/StillImage" />
        <dc:title></dc:title>
      </cc:Work>
    </rdf:RDF>
  </metadata>
  <defs
     id="defs2426">
    <linearGradient
       gradientTransform="translate(287,-83)"
       gradientUnits="userSpaceOnUse"
       id="path1082_2_"
       y2="129.3468"
       x2="112.49853"
       y1="6.1372099"
       x1="112.49854">
      <stop
         offset="0"
         style="stop-color:#ffffff;stop-opacity:0"
         id="stop193" />
      <stop
         offset="1"
         style="stop-color:#ffffff;stop-opacity:0.27450982"
         id="stop195" />
      <midPointStop
         id="midPointStop197"
         style="stop-color:#FFFFFF"
         offset="0" />
      <midPointStop
         id="midPointStop199"
         style="stop-color:#FFFFFF"
         offset="0.5" />
      <midPointStop
         id="midPointStop201"
         style="stop-color:#000000"
         offset="1" />
    </linearGradient>
    <linearGradient
       gradientTransform="matrix(-0.3937741,0,0,0.393752,357.51969,122.00151)"
       gradientUnits="userSpaceOnUse"
       xlink:href="#path1082_2_"
       id="linearGradient2544"
       y2="303.14029"
       x2="606.91248"
       y1="104.50665"
       x1="541.33502" />
    <linearGradient
       id="linearGradient3388">
      <stop
         offset="0"
         style="stop-color:#000000;stop-opacity:0"
         id="stop3390" />
      <stop
         offset="1"
         style="stop-color:#000000;stop-opacity:0.37113401"
         id="stop3392" />
    </linearGradient>
    <linearGradient
       gradientTransform="matrix(0.749107,0,0,0.749107,-35.459862,91.44108)"
       gradientUnits="userSpaceOnUse"
       xlink:href="#linearGradient3388"
       id="linearGradient4416"
       y2="183.9644"
       x2="490.72305"
       y1="237.72447"
       x1="490.72305" />
  </defs>
  <path
     style="fill:#1793d1;fill-opacity:1;fill-rule:evenodd;stroke:none;stroke-width:0.240692"
     id="path2518"
     d="M 19.992479,8.2128906e-6 C 18.212112,4.3649882 17.138281,7.2201982 15.156075,11.455438 c 1.21534,1.28826 2.707114,2.7885 5.129748,4.48289 -2.60457,-1.07176 -4.381205,-2.14779 -5.708913,-3.26438 C 12.040064,17.967458 8.0655565,25.507838 0,40.000008 c 6.3392565,-3.65976 11.253335,-5.91605 15.833021,-6.77699 -0.196654,-0.8458 -0.308459,-1.76069 -0.300865,-2.71531 l 0.0075,-0.20308 c 0.100589,-4.06138 2.213322,-7.1846 4.716059,-6.97255 2.502737,0.21206 4.448087,3.67836 4.3475,7.73976 -0.01892,0.76422 -0.105121,1.49941 -0.255736,2.18127 4.529963,0.88614 9.391496,3.13665 15.64498,6.7469 -1.233065,-2.27016 -2.333682,-4.31654 -3.384731,-6.26551 -1.655573,-1.28318 -3.382418,-2.95325 -6.904852,-4.7612 2.421119,0.62911 4.154609,1.35494 5.50583,2.16624 C 24.522417,11.243488 23.657054,8.5997082 19.992479,8.2128906e-6 Z" />
</svg>
