<?xml version="1.0" encoding="UTF-8" standalone="no"?>
<svg
   xmlns:dc="http://purl.org/dc/elements/1.1/"
   xmlns:cc="http://creativecommons.org/ns#"
   xmlns:rdf="http://www.w3.org/1999/02/22-rdf-syntax-ns#"
   xmlns:svg="http://www.w3.org/2000/svg"
   xmlns="http://www.w3.org/2000/svg"
   id="svg4300"
   height="40"
   width="40"
   version="1.1">
  <metadata
     id="metadata43">
    <rdf:RDF>
      <cc:Work
         rdf:about="">
        <dc:format>image/svg+xml</dc:format>
        <dc:type
           rdf:resource="http://purl.org/dc/dcmitype/StillImage" />
        <dc:title>The CentOS Logo Vertical Version</dc:title>
      </cc:Work>
    </rdf:RDF>
  </metadata>
  <title
     id="title3589">The CentOS Logo Vertical Version</title>
  <defs
     id="defs4302">
    <clipPath
       id="clipPath4429">
      <g
         id="g4431"
         transform="matrix(0.9947658,0,0,1,1.7860989,0)">
        <path
           style="display:inline;overflow:visible;visibility:visible;fill:#efa724;fill-opacity:1;fill-rule:evenodd;stroke:none;stroke-width:30;marker:none"
           id="path4433"
           d="m 322.54143,2800.9375 -4.43505,5.7298 -4.43495,-5.7298 v -43.1429 h -18.93972 l 23.37467,-25.5367 23.13125,25.5367 h -18.6962 z" />
      </g>
    </clipPath>
  </defs>
  <g
     id="layer1"
     transform="translate(-64.032001,-614.25134)">
    <g
       id="g5189"
       transform="matrix(1.0008826,0,0,1.0094534,-0.05651152,-6.184848)">
      <g
         id="g3664"
         transform="matrix(0.24923087,0,0,0.24711576,89.720291,385.08194)">
        <g
           id="g12802"
           transform="rotate(-90,-298.5197,1636.0002)">
          <g
             id="g12804"
             transform="translate(16.279512,-899.16723)">
            <g
               id="g12806"
               transform="matrix(1.0666663,0,0,1,-26.935596,-4.1328125e-5)">
              <path
                 style="display:inline;overflow:visible;visibility:visible;fill:#932279;fill-opacity:1;fill-rule:evenodd;stroke:none;stroke-width:30;marker:none"
                 id="path12808"
                 d="m 323.36653,2798.1614 -5.40616,5.8005 -5.40616,-5.8005 v -40.8261 h -18.01333 l 23.41949,-24.8979 23.02487,24.8979 h -17.6187 z" />
            </g>
            <g
               id="g12812"
               clip-path="url(#clipPath4429)"
               transform="matrix(1.0722788,0,0,1,-28.850792,-4.1328125e-5)" />
          </g>
        </g>
        <g
           id="g12768"
           transform="translate(-351.30671,-902.55818)">
          <g
             id="g12770"
             transform="translate(16.279512,-899.16723)">
            <g
               id="g12772"
               transform="matrix(1.0666663,0,0,1,-26.935596,-4.1328125e-5)">
              <path
                 style="display:inline;overflow:visible;visibility:visible;fill:#efa724;fill-opacity:1;fill-rule:evenodd;stroke:none;stroke-width:30;marker:none"
                 id="path12774"
                 d="m 323.36653,2798.1614 -5.40616,5.8005 -5.40616,-5.8005 v -40.8261 h -18.01333 l 23.41949,-24.8979 23.02487,24.8979 h -17.6187 z" />
            </g>
            <g
               id="g12778"
               clip-path="url(#clipPath4429)"
               transform="matrix(1.0722788,0,0,1,-28.850792,-4.1328125e-5)" />
          </g>
        </g>
        <g
           id="g12780"
           transform="rotate(90,1045.4823,1742.4169)">
          <g
             id="g12782"
             transform="matrix(1.0666663,0,0,1,-26.935596,-4.1328125e-5)">
            <path
               style="display:inline;overflow:visible;visibility:visible;fill:#262577;fill-opacity:1;fill-rule:evenodd;stroke:none;stroke-width:30;marker:none"
               id="path12784"
               d="m 323.36653,2798.1614 -5.40616,5.8005 -5.40616,-5.8005 v -40.8261 h -18.01333 l 23.41949,-24.8979 23.02487,24.8979 h -17.6187 z" />
          </g>
          <g
             id="g12788"
             clip-path="url(#clipPath4429)"
             transform="matrix(1.0722788,0,0,1,-28.850792,-4.1328125e-5)" />
        </g>
        <g
           id="g12790"
           transform="rotate(180,152.75931,1460.3469)">
          <g
             id="g12792"
             transform="translate(16.279512,-899.16723)">
            <g
               id="g12794"
               transform="matrix(1.0666663,0,0,1,-26.935596,-4.1328125e-5)">
              <path
                 style="display:inline;overflow:visible;visibility:visible;fill:#9ccd2a;fill-opacity:1;fill-rule:evenodd;stroke:none;stroke-width:30;marker:none"
                 id="path12796"
                 d="m 323.36653,2798.1614 -5.40616,5.8005 -5.40616,-5.8005 v -40.8261 h -18.01333 l 23.41949,-24.8979 23.02487,24.8979 h -17.6187 z" />
            </g>
            <g
               id="g12800"
               clip-path="url(#clipPath4429)"
               transform="matrix(1.0722788,0,0,1,-28.850792,-4.1328125e-5)" />
          </g>
        </g>
        <g
           id="g12742"
           transform="translate(-749.79982,-1331.6428)">
          <path
             style="fill:#9ccd2a;fill-opacity:1;stroke:#ffffff;stroke-width:3.54330707;stroke-linecap:butt;stroke-linejoin:miter;stroke-miterlimit:4;stroke-dashoffset:0;stroke-opacity:1"
             id="rect12744"
             d="m 671.98437,2285.7893 h 49.60645 v 49.6065 h -49.60645 z" />
          <path
             style="fill:#932279;fill-opacity:1;stroke:#ffffff;stroke-width:3.54330707;stroke-linecap:butt;stroke-linejoin:miter;stroke-miterlimit:4;stroke-dashoffset:0;stroke-opacity:1"
             id="rect12746"
             d="m 732.22076,2285.7893 h 49.60645 v 49.6065 h -49.60645 z" />
          <path
             style="fill:#efa724;fill-opacity:1;stroke:#ffffff;stroke-width:3.54330707;stroke-linecap:butt;stroke-linejoin:miter;stroke-miterlimit:4;stroke-dashoffset:0;stroke-opacity:1"
             id="rect12748"
             d="m 732.22076,2346.0256 h 49.60645 v 49.6065 h -49.60645 z" />
          <path
             style="fill:#262577;fill-opacity:1;stroke:#ffffff;stroke-width:3.54330707;stroke-linecap:butt;stroke-linejoin:miter;stroke-miterlimit:4;stroke-dashoffset:0;stroke-opacity:1"
             id="rect12750"
             d="m 671.98437,2346.0256 h 49.60645 v 49.6065 h -49.60645 z" />
        </g>
        <path
           style="fill:none;stroke:#ffffff;stroke-width:3.54330707;stroke-linecap:butt;stroke-linejoin:miter;stroke-miterlimit:4;stroke-dashoffset:0;stroke-opacity:1"
           id="rect12760"
           transform="rotate(-45)"
           d="m -784.62878,642.40875 h 49.60644 v 49.60645 h -49.60644 z" />
        <path
           style="fill:none;stroke:#ffffff;stroke-width:3.54306793;stroke-linecap:butt;stroke-linejoin:miter;stroke-miterlimit:4;stroke-dasharray:none;stroke-dashoffset:0;stroke-opacity:1"
           id="rect12762"
           transform="rotate(-45)"
           d="m -724.39233,642.40875 h 49.60645 v 49.60645 h -49.60645 z" />
        <path
           style="fill:none;stroke:#ffffff;stroke-width:3.54330707;stroke-linecap:butt;stroke-linejoin:miter;stroke-miterlimit:4;stroke-dashoffset:0;stroke-opacity:1"
           id="rect12764"
           d="m -15.377623,1009.0679 35.077058,-35.0771 35.077058,35.0771 -35.077058,35.077 z" />
        <path
           style="fill:none;stroke:#ffffff;stroke-width:3.54330707;stroke-linecap:butt;stroke-linejoin:miter;stroke-miterlimit:4;stroke-dashoffset:0;stroke-opacity:1"
           id="rect12766"
           transform="rotate(-45)"
           d="m -784.62878,702.64508 h 49.60644 v 49.60645 h -49.60644 z" />
      </g>
    </g>
  </g>
</svg>
