<svg xmlns="http://www.w3.org/2000/svg" height="40" width="40">
<path fill="#932279" d="m 16.849029,18.539272 1.44694,1.438481 -1.44694,1.438482 H 6.6649249 v 4.793016 L 0.4541221,19.977753 6.6649249,13.85125 v 4.688022 z" />
<path fill="#efa724" d="m 21.460668,16.848872 -1.438475,1.44694 -1.438475,-1.44694 V 6.6647287 h -4.793001 l 6.231476,-6.21083368 6.126476,6.21083368 h -4.687998 z" />
<path d="m 23.151057,21.46054 -1.44694,-1.438482 1.44694,-1.438481 h 10.184104 v -4.793016 l 6.210803,6.231497 -6.210803,6.126504 V 21.46054 Z" fill="#262577" />
<path fill="#9ccd2a" d="m 18.539376,23.15094 1.438476,-1.446951 1.438475,1.446951 v 10.184143 h 4.793002 l -6.231477,6.210834 -6.126476,-6.210834 h 4.687998 z" />
<path fill="#9ccd2a" stroke="#ffffff" d="M 6.299836,6.2996901 H 18.674207 V 18.674125 H 6.299836 Z" />
<path fill="#932279" stroke="#ffffff" d="M 21.325854,6.2996901 H 33.700225 V 18.674125 H 21.325854 Z" />
<path fill="#efa724" stroke="#ffffff" d="M 21.325854,21.325747 H 33.700225 V 33.700172 H 21.325854 Z" />
<path fill="#262577" stroke="#ffffff" d="M 6.299836,21.325747 H 18.674207 V 33.700172 H 6.299836 Z" />
<path d="M 9.375,10.625 0,20 0.3125,20.3125 9.375,29.375 18.75,20 Z m 0,1.25 L 17.5,20 9.375,28.125 1.25,20 Z" fill="#ffffff" />
<path d="M 20,0 10.625,9.375 10.9375,9.6875 20,18.75 29.375,9.375 Z M 20,1.25 28.125,9.375 20,17.5 11.875,9.375 Z" fill="#ffffff" />
<path d="M 30.625,10.625 21.25,20 21.5625,20.3125 30.625,29.375 40,20 Z m 0,1.25 L 38.75,20 30.625,28.125 22.5,20 Z" fill="#ffffff" />
<path d="m 20,21.25 -9.375,9.375 0.3125,0.3125 L 20,40 29.375,30.625 Z m 0,1.25 8.125,8.125 L 20,38.75 11.875,30.625 Z" fill="#ffffff" />
</svg>
