<svg xmlns="http://www.w3.org/2000/svg" height="40" width="40">
<path d="M 22.099609 2.5 C 21.557419 2.545505 21.017206 2.5718832 20.484375 2.640625 L 20.71875 2.6738281 C 21.11087 2.5302122 21.683607 2.5945603 22.099609 2.5 z M 19.730469 2.75 C 18.848764 2.803574 17.626309 3.2616884 18.003906 2.84375 C 16.56581 3.4853419 14.011379 4.3866113 12.578125 5.7304688 L 12.533203 5.4296875 C 11.876442 6.2181226 9.6700298 7.7835623 9.4941406 8.8046875 L 9.3183594 8.8457031 C 8.9765859 9.4243622 8.7554701 10.08034 8.484375 10.675781 C 8.0373907 11.43743 7.8289998 10.970433 7.8925781 11.089844 C 7.0134552 12.872295 6.5764929 14.369337 6.1992188 15.597656 C 6.4680548 15.999458 6.2049752 18.016552 6.3066406 19.630859 C 5.8651427 27.603639 11.903044 35.343568 18.501953 37.130859 C 19.469181 37.476829 20.90738 37.464499 22.130859 37.5 C 20.687277 37.087225 20.501848 37.281247 19.095703 36.791016 C 18.081355 36.313372 17.859028 35.76805 17.140625 35.144531 L 17.423828 35.646484 C 16.014778 35.147862 16.605329 35.02909 15.458984 34.666016 L 15.761719 34.269531 C 15.305053 34.235001 14.551606 33.500715 14.345703 33.09375 L 13.847656 33.113281 C 13.247374 32.372611 12.925982 31.839201 12.949219 31.425781 L 12.789062 31.712891 C 12.606074 31.398872 10.580043 28.934317 11.630859 29.507812 C 11.435606 29.329342 11.175953 29.218239 10.894531 28.707031 L 11.109375 28.462891 C 10.603654 27.812262 10.178665 26.977092 10.210938 26.699219 C 10.480742 27.063584 10.668267 27.133026 10.853516 27.195312 C 9.5764633 24.026723 9.5043383 27.019539 8.5371094 23.96875 L 8.7421875 23.953125 C 8.5853396 23.716886 8.4894697 23.460715 8.3632812 23.208984 L 8.453125 22.320312 C 7.5336607 21.257233 8.195482 17.800349 8.328125 15.904297 C 8.4201037 15.133289 9.0955851 14.312448 9.609375 13.025391 L 9.2949219 12.972656 C 9.8932677 11.928943 12.712448 8.7793946 14.017578 8.9414062 C 14.649811 8.1471619 13.891184 8.9383752 13.767578 8.7382812 C 15.156295 7.3011542 15.594036 7.7233524 16.53125 7.4648438 C 17.542048 6.8648843 15.663321 7.6991263 16.142578 7.2363281 C 17.889851 6.7899893 17.380697 6.2226518 19.660156 5.9960938 C 19.900591 6.1329323 19.102761 6.2072628 18.902344 6.3847656 C 20.358189 5.6724953 23.509872 5.8336912 25.556641 6.7792969 C 27.931628 7.8891734 30.599867 11.170877 30.705078 14.257812 L 30.824219 14.289062 C 30.763549 15.516091 31.012555 16.934765 30.582031 18.238281 L 30.875 17.621094 C 30.90953 18.558954 30.600784 19.014772 30.322266 19.820312 L 29.820312 20.070312 C 29.41012 20.866816 29.860097 20.577414 29.566406 21.210938 C 28.926105 21.780237 27.624001 22.990865 27.207031 23.101562 C 26.902694 23.094763 27.411711 22.743599 27.478516 22.605469 C 26.621339 23.194133 26.791408 23.488115 25.480469 23.845703 L 25.441406 23.761719 C 22.208273 25.282756 17.718284 22.267198 17.777344 18.154297 C 17.742814 18.415388 17.679069 18.351498 17.607422 18.457031 C 17.440569 16.340875 18.584055 14.215483 20.513672 13.347656 C 22.401011 12.413346 24.614872 12.796694 25.966797 14.056641 C 25.22419 13.083925 23.745932 12.05194 21.994141 12.148438 C 20.278173 12.175548 18.672454 13.265437 18.136719 14.449219 C 17.257596 15.002705 17.154567 16.583878 16.771484 16.873047 C 16.256081 20.660956 17.74208 22.297558 20.253906 24.222656 C 20.45158 24.355945 20.47973 24.433171 20.464844 24.501953 C 23.428172 25.608925 26.49058 25.338685 29.054688 23.283203 C 29.70693 22.775222 30.419097 21.912332 30.625 21.900391 C 30.314855 22.366739 30.677631 22.123349 30.439453 22.535156 C 31.089436 21.486921 30.157008 22.110116 31.111328 20.726562 L 31.464844 21.210938 C 31.333814 20.340851 32.544836 19.284333 32.421875 17.908203 C 32.699748 17.48736 32.732476 18.361881 32.4375 19.330078 C 32.846724 18.256025 32.54518 18.081535 32.650391 17.195312 C 32.763993 17.493195 32.911793 17.810658 32.988281 18.125 C 32.721704 17.087093 33.262873 16.376623 33.396484 15.773438 C 33.264809 15.715018 32.983823 16.233873 32.919922 15.007812 C 32.929322 14.475305 33.069473 14.726732 33.123047 14.595703 C 33.018482 14.535673 32.743024 14.128651 32.576172 13.345703 C 32.697196 13.161745 32.899859 13.822499 33.064453 13.849609 C 32.958597 13.227058 32.776954 12.753035 32.769531 12.275391 C 32.28866 11.270402 32.599167 12.409177 32.208984 11.84375 C 31.69713 10.247193 32.634011 11.473549 32.697266 10.748047 C 33.473115 11.872123 33.914189 13.612355 34.117188 14.333984 C 33.962277 13.454216 33.711877 12.601925 33.40625 11.777344 C 33.641845 11.876424 33.027085 9.9679567 33.712891 11.232422 C 32.980289 8.5369616 30.577582 6.0177834 28.367188 4.8359375 C 28.637638 5.0834732 28.98006 5.3946268 28.857422 5.4433594 C 27.758189 4.7888572 27.950462 4.7375191 27.792969 4.4609375 C 26.897386 4.0965727 26.839276 4.4916138 26.246094 4.4628906 C 24.558204 3.5676311 24.232999 3.6624714 22.679688 3.1015625 L 22.75 3.4316406 C 21.631733 3.0592075 21.446914 3.5736606 20.238281 3.4335938 C 20.164701 3.3761477 20.626648 3.2251091 21.005859 3.1699219 C 19.924705 3.3125696 19.973932 2.9566081 18.916016 3.2089844 C 19.176783 3.0259951 19.452274 2.905557 19.730469 2.75 z M 20.464844 24.501953 C 20.44939 24.570041 20.391403 24.631761 20.417969 24.732422 C 19.583383 24.341593 18.819766 23.751572 18.191406 23.029297 C 18.524789 23.517268 18.884551 23.990525 19.349609 24.363281 C 18.562787 24.096704 17.511996 22.457431 17.205078 22.390625 C 18.561522 24.819186 22.707562 26.650356 24.878906 25.742188 C 23.87424 25.779297 22.597667 25.763001 21.46875 25.345703 C 20.994656 25.101717 20.349629 24.596513 20.464844 24.501953 z M 20.605469 2.9511719 C 20.91497 3.0066819 21.273002 3.0491415 21.222656 3.1230469 C 21.561202 3.0488179 21.639181 2.9805406 20.605469 2.9511719 z M 21.222656 3.1230469 L 21.003906 3.1679688 L 21.208984 3.1503906 L 21.222656 3.1230469 z M 6.953125 9.9941406 C 7.04349 10.830663 6.3245233 11.155066 7.1132812 10.603516 C 7.5360605 9.6511326 6.9473158 10.340755 6.953125 9.9941406 z M 6.3105469 12.650391 C 5.8083753 13.292305 6.0802719 13.428577 6.0273438 13.865234 C 6.209042 13.307552 6.2411594 12.973123 6.3105469 12.650391 z M 26.978516 16.527344 C 26.906789 16.529159 26.813891 16.710869 26.767578 16.910156 C 26.875694 16.966316 26.961841 17.647084 27.066406 17.226562 C 27.101421 16.704382 27.050242 16.525528 26.978516 16.527344 z M 33.318359 18.287109 L 33.234375 18.5 C 33.078173 19.609554 32.741627 20.708665 32.224609 21.726562 C 32.795846 20.65251 33.163447 19.477346 33.318359 18.287109 z M 26.603516 18.677734 C 26.526056 19.06243 26.315685 19.393654 26.119141 19.744141 C 25.035083 20.42672 26.017803 19.339202 26.119141 18.925781 C 24.953432 20.392923 25.958294 19.804974 25.916016 20.214844 C 26.26134 19.738168 26.514765 19.217342 26.603516 18.677734 z M 24.238281 20.917969 C 23.766769 21.033507 23.288141 21.036408 22.804688 20.992188 C 22.224737 21.000287 22.914745 21.289744 23.671875 21.40625 C 23.881005 21.242947 24.069169 21.078689 24.238281 20.917969 z M 16.919922 20.994141 C 17.047724 21.464362 17.309071 21.868459 17.552734 22.279297 L 17.375 21.751953 C 17.173292 21.528944 17.053534 21.261686 16.919922 20.994141 z M 16.474609 21.787109 L 16.392578 22.195312 C 16.773725 22.712975 17.07582 23.273027 17.5625 23.677734 C 17.212336 22.994187 16.953221 22.711092 16.474609 21.787109 z " fill="#a80030" />
</svg>
