<?xml version="1.0" encoding="UTF-8" standalone="no"?>
<svg
   xmlns:dc="http://purl.org/dc/elements/1.1/"
   xmlns:cc="http://creativecommons.org/ns#"
   xmlns:rdf="http://www.w3.org/1999/02/22-rdf-syntax-ns#"
   xmlns:svg="http://www.w3.org/2000/svg"
   xmlns="http://www.w3.org/2000/svg"
   id="svg8"
   version="1.1"
   viewBox="-1.8 -1.8 40 40"
   height="40"
   width="40">
  <metadata
     id="metadata14">
    <rdf:RDF>
      <cc:Work
         rdf:about="">
        <dc:format>image/svg+xml</dc:format>
        <dc:type
           rdf:resource="http://purl.org/dc/dcmitype/StillImage" />
        <dc:title></dc:title>
      </cc:Work>
    </rdf:RDF>
  </metadata>
  <defs
     id="defs12" />
  <path
     style="fill:#072b61;stroke-width:1.21580553"
     id="path2"
     d="M 38.2,18.139209 C 38.2,7.1969591 29.203039,-1.800001 18.139209,-1.800001 7.0753799,-1.800001 -1.8,7.1969591 -1.8,18.139209 v 0 15.562311 0 C -1.8,36.133129 0.14528849,38.2 2.6984802,38.2 v 0 0 H 18.139209 C 29.203039,38.2 38.2,29.20304 38.2,18.139209" />
  <path
     style="fill:#0a57a4;stroke-width:1.21580553"
     id="path4"
     d="m 24.096657,2.9416415 c -5.227964,0 -9.483283,4.2553176 -9.483283,9.3617035 v 4.9848 H 9.6285714 c -5.106383,0 -9.36170218,4.133742 -9.36170218,9.361704 0,5.227963 4.25531918,9.361699 9.36170218,9.361699 5.2279636,0 9.4832826,-4.133736 9.4832826,-9.361699 v -4.984805 h 4.984803 c 5.106382,0 9.361701,-4.133736 9.361701,-9.361699 0,-5.1063859 -4.255319,-9.3617035 -9.361701,-9.3617035 z m 0,4.3768989 c 2.674771,0 4.863221,2.3100332 4.863221,4.9848046 0,2.796354 -2.18845,4.9848 -4.863221,4.9848 h -0.121581 -4.133739 c -0.486319,0 -0.729483,-0.364738 -0.729483,-0.729482 v -4.255318 c 0,-2.6747714 2.18845,-4.9848046 4.984803,-4.9848046 z M 9.6285714,21.665044 H 13.88389 c 0.486325,0 0.729484,0.364739 0.729484,0.729482 v 4.255323 c 0,2.796353 -2.18845,4.9848 -4.9848026,4.9848 -2.674772,0 -4.9848025,-2.188447 -4.9848025,-4.9848 0,-2.674772 2.3100305,-4.984805 4.9848025,-4.984805 z M 32.607294,33.458357 v 0.243142 h 0.364744 v 1.094226 h 0.243163 v -1.094226 h 0.364743 v -0.243142 z m 1.094225,0 v 1.337389 h 0.243163 v -0.729482 -0.121597 0.121597 l 0.364744,0.729482 0.364743,-0.729482 v -0.243142 0.243142 0.729482 h 0.243163 v -1.337389 h -0.243163 l -0.243162,0.607907 -0.121581,0.243141 v -0.243141 l -0.364744,-0.607907 z" />
  <path
     style="fill:#ffffff;stroke-width:1.21580553"
     id="path6"
     d="m 14.613374,17.288145 v -4.9848 0 c 0,-5.1063859 4.255319,-9.3617035 9.361702,-9.3617035 0.851063,0 1.337386,0.1215968 2.066869,0.2431418 1.094225,0.3647386 1.945289,1.2158021 1.945289,2.1884469 0,1.2158072 -0.851064,2.0668707 -2.18845,2.0668707 -0.607903,0 -0.851064,-0.1215967 -1.823708,-0.1215967 -2.674772,0 -4.863222,2.3100332 -4.863222,4.9848048 v 4.255318 0 c 0,0.486335 0.243163,0.729482 0.607903,0.729482 v 0 h 3.282675 c 1.215805,0 2.188449,0.972645 2.188449,2.188452 0,1.215802 -0.972644,2.188447 -2.188449,2.188447 h -3.890578 v 4.984805 0 c 0,5.227962 -4.255319,9.361699 -9.4832826,9.361699 -0.7294833,0 -1.337386,0 -2.0668694,-0.243142 -0.9726443,-0.243142 -1.8237081,-1.094226 -1.8237081,-2.188452 0,-1.215807 0.8510638,-2.066871 2.1884498,-2.066871 0.6079027,0 0.8510638,0.121597 1.7021277,0.121597 2.7963526,0 4.9848026,-2.188447 4.9848026,-4.9848 v -4.255323 c 0,-0.364738 -0.243163,-0.729482 -0.729484,-0.729482 v 0 h -3.161094 c -1.2158052,0 -2.1884496,-0.972645 -2.1884496,-2.188447 0,-1.215807 0.9726444,-2.188452 2.1884496,-2.188452 h 3.890578" />
</svg>
