<svg xmlns="http://www.w3.org/2000/svg" width="40" height="40">
<path fill="#072b61" d="M 37.5,19.946808 C 37.5,10.372339 29.627659,2.4999991 19.946808,2.4999991 10.265957,2.4999991 2.5,10.372339 2.5,19.946808 v 0 13.617022 0 C 2.5,35.691488 4.2021274,37.5 6.4361702,37.5 v 0 0 H 19.946808 C 29.627659,37.5 37.5,29.62766 37.5,19.946808" />
<path fill="#0a57a4" d="m 25.159575,6.6489363 c -4.574469,0 -8.297873,3.7234027 -8.297873,8.1914907 v 4.3617 H 12.5 c -4.4680851,0 -8.1914894,3.617024 -8.1914894,8.191491 0,4.574467 3.7234043,8.191486 8.1914894,8.191486 4.574468,0 8.297872,-3.617019 8.297872,-8.191486 v -4.361705 h 4.361703 c 4.468084,0 8.191488,-3.617019 8.191488,-8.191486 0,-4.468088 -3.723404,-8.1914907 -8.191488,-8.1914907 z m 0,3.8297867 c 2.340424,0 4.255318,2.021279 4.255318,4.361704 0,2.44681 -1.914894,4.3617 -4.255318,4.3617 H 25.053191 21.43617 c -0.425529,0 -0.638298,-0.319146 -0.638298,-0.638297 v -3.723403 c 0,-2.340425 1.914894,-4.361704 4.361703,-4.361704 z M 12.5,23.031913 h 3.723404 c 0.425534,0 0.638298,0.319147 0.638298,0.638297 v 3.723408 c 0,2.446809 -1.914894,4.3617 -4.361702,4.3617 -2.340425,0 -4.3617022,-1.914891 -4.3617022,-4.3617 0,-2.340426 2.0212772,-4.361705 4.3617022,-4.361705 z m 20.106382,10.319149 v 0.21275 h 0.319151 v 0.957447 h 0.212768 v -0.957447 h 0.31915 v -0.21275 z m 0.957447,0 v 1.170216 h 0.212768 v -0.638297 -0.106397 0.106397 l 0.319151,0.638297 0.31915,-0.638297 v -0.212749 0.212749 0.638297 h 0.212768 v -1.170216 h -0.212768 l -0.212767,0.531919 -0.106383,0.212748 v -0.212748 l -0.319151,-0.531919 z" />
<path fill="#ffffff" d="m 16.861702,19.202127 v -4.3617 0 c 0,-4.468088 3.723404,-8.1914907 8.191489,-8.1914907 0.744681,0 1.170213,0.1063972 1.808511,0.2127491 0.957447,0.3191463 1.702128,1.0638268 1.702128,1.914891 0,1.0638316 -0.744681,1.8085116 -1.914894,1.8085116 -0.531915,0 -0.744681,-0.106397 -1.595745,-0.106397 -2.340425,0 -4.255319,2.021279 -4.255319,4.361704 v 3.723404 0 c 0,0.425543 0.212768,0.638296 0.531915,0.638296 v 0 h 2.872341 c 1.063829,0 1.914893,0.851065 1.914893,1.914896 0,1.063827 -0.851064,1.914891 -1.914893,1.914891 h -3.404256 v 4.361704 0 c 0,4.574467 -3.723404,8.191487 -8.297872,8.191487 -0.638298,0 -1.170213,0 -1.808511,-0.212749 -0.8510635,-0.21275 -1.5957443,-0.957448 -1.5957443,-1.914896 0,-1.063831 0.7446808,-1.808512 1.9148933,-1.808512 0.531915,0 0.744681,0.106398 1.489362,0.106398 2.446809,0 4.361702,-1.914892 4.361702,-4.361701 v -3.723407 c 0,-0.319146 -0.212767,-0.638297 -0.638298,-0.638297 v 0 h -2.765957 c -1.06383,0 -1.914894,-0.851064 -1.914894,-1.914891 0,-1.063831 0.851064,-1.914896 1.914894,-1.914896 h 3.404255" />
</svg>
