<svg xmlns="http://www.w3.org/2000/svg" width="40" height="40">
<path d="M 0 12 L 0 13.09375 L 7.7851562 13.09375 L 7.7851562 12 L 0 12 z M 8.8886719 12 L 8.8886719 13.09375 L 19.984375 13.09375 C 19.984375 13.09375 18.850661 12 17.349609 12 L 8.8886719 12 z M 22.160156 12 L 22.160156 13.09375 L 28.867188 13.09375 L 28.474609 12 L 22.160156 12 z M 33.685547 12 L 33.298828 13.09375 L 39.939453 13.09375 L 39.939453 12 L 33.685547 12 z M 0 14.128906 L 0 15.224609 L 7.7851562 15.224609 L 7.7851562 14.128906 L 0 14.128906 z M 8.8886719 14.128906 L 8.8886719 15.224609 L 21.271484 15.224609 L 21.271484 15.222656 C 21.271484 15.222656 21.127242 14.381461 20.875 14.130859 L 20.873047 14.128906 L 8.8886719 14.128906 z M 22.160156 14.128906 L 22.160156 15.224609 L 29.630859 15.224609 L 29.238281 14.128906 L 22.160156 14.128906 z M 32.931641 14.128906 L 32.544922 15.224609 L 39.939453 15.224609 L 39.939453 14.128906 L 32.931641 14.128906 z M 2.2382812 16.257812 L 2.2382812 17.353516 L 5.609375 17.353516 L 5.609375 16.257812 L 2.2382812 16.257812 z M 11.126953 16.257812 L 11.126953 17.353516 L 14.498047 17.353516 L 14.498047 16.257812 L 11.126953 16.257812 z M 17.777344 16.257812 L 17.777344 17.353516 L 21.150391 17.353516 C 21.150391 17.353516 21.363281 16.775137 21.363281 16.257812 L 17.777344 16.257812 z M 24.398438 16.257812 L 24.398438 17.353516 L 30.394531 17.353516 L 30.001953 16.257812 L 24.398438 16.257812 z M 32.179688 16.257812 L 31.791016 17.353516 L 37.761719 17.353516 L 37.761719 16.257812 L 32.179688 16.257812 z M 2.2382812 18.388672 L 2.2382812 19.482422 L 5.609375 19.482422 L 5.609375 18.388672 L 2.2382812 18.388672 z M 11.126953 18.388672 L 11.126953 19.482422 L 19.738281 19.482422 C 19.738281 19.482422 20.459891 18.921676 20.689453 18.388672 L 11.126953 18.388672 z M 24.398438 18.388672 L 24.398438 19.482422 L 27.769531 19.482422 L 27.769531 18.873047 L 27.990234 19.482422 L 34.173828 19.482422 L 34.390625 18.873047 L 34.390625 19.482422 L 37.761719 19.482422 L 37.761719 18.388672 L 31.425781 18.388672 L 31.097656 19.316406 L 30.765625 18.388672 L 24.398438 18.388672 z M 2.2382812 20.517578 L 2.2382812 21.611328 L 5.609375 21.611328 L 5.609375 20.517578 L 2.2382812 20.517578 z M 11.126953 20.517578 L 11.126953 21.611328 L 20.689453 21.611328 C 20.459891 21.078324 19.738281 20.517578 19.738281 20.517578 L 11.126953 20.517578 z M 24.398438 20.517578 L 24.398438 21.611328 L 27.769531 21.611328 L 27.769531 20.517578 L 24.398438 20.517578 z M 28.365234 20.517578 L 28.761719 21.611328 L 33.416016 21.611328 L 33.804688 20.517578 L 28.365234 20.517578 z M 34.390625 20.517578 L 34.390625 21.611328 L 37.761719 21.611328 L 37.761719 20.517578 L 34.390625 20.517578 z M 2.2382812 22.646484 L 2.2382812 23.740234 L 5.609375 23.740234 L 5.609375 22.646484 L 2.2382812 22.646484 z M 11.126953 22.646484 L 11.126953 23.740234 L 14.498047 23.740234 L 14.498047 22.646484 L 11.126953 22.646484 z M 17.777344 22.646484 L 17.777344 23.740234 L 21.363281 23.740234 C 21.362752 23.223404 21.150391 22.646484 21.150391 22.646484 L 17.777344 22.646484 z M 24.398438 22.646484 L 24.398438 23.740234 L 27.769531 23.740234 L 27.769531 22.646484 L 24.398438 22.646484 z M 29.136719 22.646484 L 29.533203 23.740234 L 32.660156 23.740234 L 33.048828 22.646484 L 29.136719 22.646484 z M 34.390625 22.646484 L 34.390625 23.740234 L 37.761719 23.740234 L 37.761719 22.646484 L 34.390625 22.646484 z M 0.060546875 24.775391 L 0.060546875 25.871094 L 7.8476562 25.871094 L 7.8476562 24.775391 L 0.060546875 24.775391 z M 8.8886719 24.775391 L 8.8886719 25.871094 L 20.873047 25.871094 L 20.875 25.869141 C 21.127242 25.618539 21.271484 24.777344 21.271484 24.777344 L 21.271484 24.775391 L 8.8886719 24.775391 z M 22.222656 24.775391 L 22.222656 25.871094 L 27.769531 25.871094 L 27.769531 24.775391 L 22.222656 24.775391 z M 29.908203 24.775391 L 30.306641 25.871094 L 31.900391 25.871094 L 32.291016 24.775391 L 29.908203 24.775391 z M 34.390625 24.775391 L 34.390625 25.871094 L 40 25.871094 L 40 24.775391 L 34.390625 24.775391 z M 0.060546875 26.90625 L 0.060546875 28 L 7.8476562 28 L 7.8476562 26.90625 L 0.060546875 26.90625 z M 8.8886719 26.90625 L 8.8886719 28 L 17.349609 28 C 18.850661 28 19.984375 26.90625 19.984375 26.90625 L 8.8886719 26.90625 z M 22.222656 26.90625 L 22.222656 28 L 27.769531 28 L 27.769531 26.90625 L 22.222656 26.90625 z M 30.681641 26.90625 L 31.076172 27.996094 L 31.144531 27.998047 L 31.533203 26.90625 L 30.681641 26.90625 z M 34.390625 26.90625 L 34.390625 28 L 40 28 L 40 26.90625 L 34.390625 26.90625 z " fill="#1f70c1" />
</svg>
