<svg xmlns="http://www.w3.org/2000/svg" width="40" height="40">
<path fill="#dbdbdb" d="M 20,0 A 20,20 0 0 0 0,20 20,20 0 0 0 20,40 20,20 0 0 0 40,20 20,20 0 0 0 20,0 Z m 0,12.941177 A 7.0588235,7.0588235 0 0 1 27.058824,20 7.0588235,7.0588235 0 0 1 20,27.058824 7.0588235,7.0588235 0 0 1 12.941176,20 7.0588235,7.0588235 0 0 1 20,12.941177 Z" />
<path fill="#dbdbdb" d="m 20.036765,12.943474 a 7.0588235,7.0588235 0 0 0 -7.058824,7.058824 7.0588235,7.0588235 0 0 0 7.058824,7.058823 7.0588235,7.0588235 0 0 0 7.058823,-7.058823 7.0588235,7.0588235 0 0 0 -7.058823,-7.058824 z M 20,16.470588 A 3.5294118,3.5294118 0 0 1 23.529412,20 3.5294118,3.5294118 0 0 1 20,23.529412 3.5294118,3.5294118 0 0 1 16.470588,20 3.5294118,3.5294118 0 0 1 20,16.470588 Z" />
<path fill="#99cc33" d="M 20,1.1764706 A 18.823529,18.823529 0 0 0 1.1764706,20 18.823529,18.823529 0 0 0 20,38.823529 18.823529,18.823529 0 0 0 38.823529,20 18.823529,18.823529 0 0 0 20,1.1764706 Z M 20,12.941177 A 7.0588235,7.0588235 0 0 1 27.058824,20 7.0588235,7.0588235 0 0 1 20,27.058824 7.0588235,7.0588235 0 0 1 12.941176,20 7.0588235,7.0588235 0 0 1 20,12.941177 Z" />
<path fill="#a0892c" d="m 23.444393,3.5294118 -3.407628,9.4140622 a 7.0588235,7.0588235 0 0 1 2.849264,0.622702 z m -10.181525,1.0868564 2.67693,9.6185658 A 7.0588235,7.0588235 0 0 1 18.621324,13.08364 Z M 32.306986,8.7339153 24.140625,14.29228 a 7.0588235,7.0588235 0 0 1 1.957721,2.171415 z M 5.6571692,11.580882 13.327206,17.718291 a 7.0588235,7.0588235 0 0 1 1.502758,-2.513787 z M 26.718751,17.860754 A 7.0588235,7.0588235 0 0 1 27.058824,20 a 7.0588235,7.0588235 0 0 1 -0.04366,0.772059 l 9.455422,-2.53217 z m -13.733917,1.367187 -9.4554222,2.53217 9.7518372,0.379135 A 7.0588235,7.0588235 0 0 1 12.941176,20 a 7.0588235,7.0588235 0 0 1 0.04366,-0.772059 z m 13.68796,3.053768 a 7.0588235,7.0588235 0 0 1 -1.502758,2.513787 l 9.172795,3.623622 z m -12.77114,1.254596 -6.2086393,7.72978 8.1663603,-5.558365 a 7.0588235,7.0588235 0 0 1 -1.957721,-2.171415 z m 10.158548,2.228861 a 7.0588235,7.0588235 0 0 1 -2.681526,1.151194 l 5.358456,8.467372 z m -6.946231,0.668658 -0.558364,10.036764 3.407628,-9.414062 a 7.0588235,7.0588235 0 0 1 -2.849264,-0.622702 z" />
<path fill="#241c1c" d="m 16.640625,9.1773896 a 1.301799,0.55559226 78.366607 0 0 -0.05515,0.00689 1.301799,0.55559226 78.366607 0 0 -0.280331,1.3901654 1.301799,0.55559226 78.366607 0 0 0.808824,1.158088 1.301799,0.55559226 78.366607 0 0 0.278033,-1.390165 1.301799,0.55559226 78.366607 0 0 -0.751379,-1.1649818 z M 27.414981,12.189798 A 0.56224368,1.2863987 60.263328 0 0 26.436121,12.5 a 0.56224368,1.2863987 60.263328 0 0 -0.847886,1.128217 0.56224368,1.2863987 60.263328 0 0 1.390166,-0.140165 0.56224368,1.2863987 60.263328 0 0 0.847886,-1.128218 0.56224368,1.2863987 60.263328 0 0 -0.411306,-0.170036 z m 3.977483,0.349264 a 1.0744958,2.3377982 55.855655 0 0 -1.723346,0.611213 1.0744958,2.3377982 55.855655 0 0 -1.493566,2.224265 1.0744958,2.3377982 55.855655 0 0 2.444853,-0.278033 1.0744958,2.3377982 55.855655 0 0 1.493566,-2.224265 1.0744958,2.3377982 55.855655 0 0 -0.721507,-0.33318 z m -20.409008,0.121784 a 1.7214723,1.1397162 34.884095 0 0 -0.97886,0.737592 1.7214723,1.1397162 34.884095 0 0 1.399356,1.829043 1.7214723,1.1397162 34.884095 0 0 1.69807,-0.588235 A 1.7214723,1.1397162 34.884095 0 0 11.702665,12.8125 1.7214723,1.1397162 34.884095 0 0 10.983456,12.660846 Z M 9.8345588,21.54182 a 0.37989642,0.86919293 60.263328 0 0 -0.6617647,0.209099 0.37989642,0.86919293 60.263328 0 0 -0.5744485,0.762868 0.37989642,0.86919293 60.263328 0 0 0.9397978,-0.09651 0.37989642,0.86919293 60.263328 0 0 0.5721506,-0.76057 0.37989642,0.86919293 60.263328 0 0 -0.2757352,-0.114895 z m 3.5294122,2.431066 a 0.39509201,0.90396008 60.263333 0 0 -0.68704,0.21829 0.39509201,0.90396008 60.263333 0 0 -0.597427,0.792739 0.39509201,0.90396008 60.263333 0 0 0.976562,-0.0988 0.39509201,0.90396008 60.263333 0 0 0.597427,-0.792739 0.39509201,0.90396008 60.263333 0 0 -0.289522,-0.119485 z m 13.34329,1.024816 a 1.9246442,0.7837468 23.913934 0 0 -0.659467,0.252758 1.9246442,0.7837468 23.913934 0 0 1.360294,1.493566 1.9246442,0.7837468 23.913934 0 0 2.132353,0.121783 1.9246442,0.7837468 23.913934 0 0 -1.360294,-1.493567 1.9246442,0.7837468 23.913934 0 0 -1.472886,-0.37454 z m -9.802389,2.768842 a 0.55721691,1.2980032 27.513921 0 0 -0.939799,0.912224 0.55721691,1.2980032 27.513921 0 0 -0.112592,1.415441 0.55721691,1.2980032 27.513921 0 0 1.091453,-0.882353 0.55721691,1.2980032 27.513921 0 0 0.11489,-1.415441 0.55721691,1.2980032 27.513921 0 0 -0.153952,-0.02987 z m 8.065256,1.070772 a 1.2969522,0.55766857 59.238486 0 0 -0.170036,0.03676 1.2969522,0.55766857 59.238486 0 0 0.193015,1.40625 1.2969522,0.55766857 59.238486 0 0 1.139706,0.820313 1.2969522,0.55766857 59.238486 0 0 -0.193015,-1.406251 1.2969522,0.55766857 59.238486 0 0 -0.96967,-0.857077 z" />
</svg>
