<svg xmlns="http://www.w3.org/2000/svg" height="40" width="40">
<path d="M 19.205078 0 A 1.5101811 1.5101811 0 0 0 17.652344 1.5097656 A 1.5101811 1.5101811 0 1 0 20.671875 1.5097656 A 1.5101811 1.5101811 0 0 0 19.205078 0 z M 22.912109 2.8691406 A 1.7367083 1.7367083 0 0 0 21.125 4.6054688 A 1.7367083 1.7367083 0 1 0 24.597656 4.6054688 A 1.7367083 1.7367083 0 0 0 22.912109 2.8691406 z M 19.896484 5.890625 A 1.8877265 1.8877265 0 0 0 17.953125 7.7773438 A 1.8877265 1.8877265 0 1 0 21.728516 7.7773438 A 1.8877265 1.8877265 0 0 0 19.896484 5.890625 z M 23.466797 9.5859375 C 22.300881 9.5868968 21.353569 10.535917 21.355469 11.703125 C 21.356237 12.867256 22.303606 13.814453 23.46875 13.814453 L 23.470703 13.814453 C 24.636426 13.813299 25.583984 12.864473 25.583984 11.697266 C 25.582834 10.533134 24.633478 9.5859375 23.466797 9.5859375 z M 17.347656 10.945312 C 16.098736 10.946636 15.082084 11.963763 15.083984 13.214844 C 15.085306 14.461771 16.101822 15.476562 17.349609 15.476562 L 17.351562 15.476562 C 18.600483 15.47524 19.615234 14.458113 19.615234 13.207031 C 19.613726 11.960103 18.597329 10.945312 17.347656 10.945312 z " fill="#2397d4" />
<path d="M 11.038999,17.516323 C 9.084845,20.049233 7.5,22.898183 7.5,26.349493 c 0,7.48092 5.676823,13.65051 12.715544,13.65051 7.038509,0 12.715543,-6.16956 12.715543,-13.65051 0,-3.452 -1.587365,-6.21042 -3.65201,-8.83317 -0.774198,-0.81242 -1.891918,-0.69162 -2.705605,-0.17176 -2.380978,1.23201 -3.666207,1.72425 -6.357928,1.71219 -2.603325,-0.0117 -3.971115,-0.43682 -6.352224,-1.7348 -0.813686,-0.49725 -2.050125,-0.61805 -2.824321,0.19437 z m 1.696813,2.10141 c 2.46799,1.36459 4.669056,2.05693 7.479732,2.05693 2.813052,0 5.010474,-0.69235 7.479731,-2.05693 1.34738,1.89983 2.617906,4.25558 2.617906,6.73176 0,6.13362 -4.520621,11.0326 -10.097637,11.0326 -5.577285,0 -10.284631,-4.89895 -10.284631,-11.0326 0,-2.47292 1.454581,-4.83045 2.804899,-6.73176 z" fill="#262f45" />
</svg>
