<svg xmlns="http://www.w3.org/2000/svg" width="40" height="40">
<path d="m 28.217591,13.971413 c 0.43856,0.95493 0.92805,1.88588 1.36306,2.84244 0.83717,1.84088 1.47289,3.78476 1.73706,5.78973 0.26417,2.00497 0.14882,4.07496 -0.47859,5.99747 -0.70817,2.16997 -2.05228,4.10052 -3.69946,5.68074 -1.94842,1.86922 -4.44969,3.31048 -7.14766,3.41669 -1.75804,0.0692 -3.50829,-0.43343 -5.06521,-1.25287 -1.30839,-0.68863 -2.50274,-1.60625 -3.45578,-2.73665 -0.95303,-1.13041 -1.66058,-2.47629 -1.98823,-3.91807 -0.40348,-1.77544 -0.22101,-3.6602 0.38972,-5.37542 0.43676,-1.22665 1.08406,-2.36862 1.54498,-3.58639 0.50365,-1.33068 0.78495,-2.75141 1.45222,-4.00804 0.60489,-1.13915 1.5119,-2.11253 1.99374,-3.30893 0.2878,-0.71461 0.41258,-1.48214 0.59842,-2.22977 0.18584,-0.74764 0.44603,-1.5008401 0.95216,-2.0816301 0.60989,-0.69986 1.52762,-1.07934 2.44981,-1.18576 0.92219,-0.10641 1.85549,0.0373 2.7606,0.24356 0.7206,0.16422 1.43225,0.36837 2.12859,0.61603 0.59437,0.2114 1.1832,0.45758 1.69715,0.82339 0.70016,0.4983401 1.23366,1.2000401 1.65854,1.9470601 0.42489,0.74702 0.75021,1.54544 1.10888,2.32642 z" fill="#020204" />
<path d="m 20.475351,37.715153 c 0.74083,0.0431 1.4802,0.11508 2.21396,0.22589 0.64535,0.0975 1.2861,0.22492 1.92041,0.37865 0.99351,0.24078 1.98351,0.54785 3.00537,0.57696 0.26898,0.008 0.54008,-0.004 0.80274,-0.0628 0.26266,-0.0585 0.51746,-0.16504 0.72785,-0.33282 0.31368,-0.25015 0.5131,-0.62738 0.58679,-1.02177 0.0737,-0.39439 0.0281,-0.8048 -0.0874,-1.18903 -0.231,-0.76847 -0.72585,-1.42422 -1.13618,-2.11381 -0.23497,-0.39489 -0.44436,-0.80534 -0.69884,-1.18794 -0.25448,-0.38261 -0.55908,-0.74087 -0.94529,-0.98984 -0.53434,-0.34447 -1.19696,-0.4568 -1.82958,-0.39373 -0.63261,0.0631 -1.23905,0.29159 -1.80362,0.5839 -0.79138,0.40975 -1.53624,0.97229 -1.9678,1.75199 -0.15019,0.27135 -0.25928,0.56309 -0.38684,0.84578 -0.12756,0.2827 -0.27684,0.56102 -0.49294,0.78348 -0.24093,0.24802 -0.55378,0.41533 -0.80305,0.65497 -0.12464,0.11982 -0.23372,0.2593 -0.29761,0.41995 -0.0639,0.16065 -0.0797,0.34421 -0.0214,0.50698 0.04,0.11162 0.11327,0.20989 0.20347,0.28683 0.0902,0.0769 0.19693,0.13314 0.30879,0.17244 0.22371,0.0786 0.46448,0.0902 0.7012,0.10393 z" fill="#020204" />
<path d="m 18.273611,37.667533 c -0.61734,0.0142 -1.22824,0.1247 -1.83296,0.2497 -0.57807,0.11949 -1.15337,0.25258 -1.72432,0.40246 -0.96344,0.25292 -1.9282,0.5558 -2.92406,0.57696 -0.26209,0.006 -0.52606,-0.009 -0.78147,-0.0678 -0.2554,-0.0591 -0.50273,-0.16436 -0.70771,-0.32778 -0.31312,-0.24965 -0.51213,-0.62615 -0.58588,-1.01976 -0.0738,-0.39361 -0.0287,-0.8032 0.0856,-1.18702 0.22852,-0.76762 0.71867,-1.42467 1.11992,-2.11783 0.22801,-0.39388 0.42923,-0.80353 0.67579,-1.18607 0.24656,-0.38254 0.5436,-0.74165 0.92386,-0.99171 0.51827,-0.34081 1.1645,-0.4562 1.7818,-0.39535 0.6173,0.0609 1.20872,0.28818 1.7531,0.58552 0.76852,0.41975 1.47019,0.99744 1.91456,1.75199 0.31176,0.52938 0.49167,1.13457 0.85598,1.62926 0.19616,0.26637 0.44299,0.49643 0.6062,0.78417 0.0816,0.14387 0.14136,0.30239 0.1553,0.46721 0.0139,0.16481 -0.0204,0.33641 -0.11313,0.47336 -0.0613,0.0906 -0.14644,0.16385 -0.24152,0.21796 -0.0951,0.0541 -0.20003,0.0895 -0.30711,0.11187 -0.21418,0.0447 -0.43517,0.0379 -0.65391,0.0429 z" fill="#020204" />
<path d="m 14.824091,11.960113 c -0.0111,-1.04727 -0.0461,-2.0942801 -0.10494,-3.1399501 -0.0566,-1.00564 -0.13538,-2.01238 -0.0963,-3.01885 0.0398,-1.02455 0.2075,-2.06132 0.66177,-2.98051 0.45463,-0.91991 1.19548,-1.69824 2.09896,-2.18470003 0.85,-0.45766 1.82701,-0.65344 2.79233,-0.64306 1.30888,0.0141 2.62127,0.40959 3.68123,1.17761003 0.66431,0.48134 1.22347,1.10143 1.66427,1.79331 0.37621,0.59049 0.66846,1.23551 0.85186,1.91121 0.37614,1.38581 0.28694,2.84807 0.36009,4.28215 0.0693,1.3590901 0.28691,2.7150901 0.21295,4.0739301 -0.0161,0.29511 -0.048,0.59713 -0.17952,0.86179 -0.12818,0.25791 -0.34586,0.46533 -0.5959,0.60826 -0.25004,0.14294 -0.5316,0.22431 -0.81624,0.26823 -0.56929,0.0878 -1.15128,0.0299 -1.72484,0.0831 -0.83227,0.0772 -1.62614,0.38608 -2.45221,0.51359 -0.98444,0.15195 -1.98743,0.0432 -2.98275,0.004 -0.39868,-0.0157 -0.7986,-0.0203 -1.19451,-0.0697 -0.39591,-0.0495 -0.79064,-0.14559 -1.14238,-0.33394 -0.21661,-0.11599 -0.41563,-0.26687 -0.57724,-0.45196 -0.1616,-0.18509 -0.28517,-0.40488 -0.34829,-0.64235 -0.0949,-0.35686 -0.0511,-0.73338 -0.0424,-1.10253 0.008,-0.33777 -0.0142,-0.67625 -0.066,-1.01011 z" fill="#020204" />
<path d="m 16.390521,11.558073 c 0.0401,0.8969 -0.12593,1.80241 -0.48169,2.62672 -0.1906,0.44164 -0.43403,0.85865 -0.69461,1.26296 -0.45264,0.70231 -0.96613,1.38462 -1.21571,2.18202 -0.15148,0.48396 -0.19993,0.99991 -0.1412,1.50361 -0.54345,0.79811 -1.01394,1.64587 -1.40369,2.52927 -0.59071,1.33888 -0.99607,2.7644 -1.13862,4.22084 -0.17455,1.78341 0.0535,3.61761 0.75788,5.26531 0.50925,1.19132 1.26833,2.28189 2.24714,3.13072 0.49768,0.43159 1.05041,0.79989 1.64161,1.09047 2.04874,1.00698 4.58075,1.00884 6.5954,-0.0647 1.05293,-0.56107 1.94171,-1.38152 2.79864,-2.21167 0.51605,-0.49992 1.02939,-1.01174 1.42305,-1.61279 0.75788,-1.15717 1.02183,-2.56362 1.18586,-3.93712 0.28681,-2.40168 0.29607,-4.93851 -0.75705,-7.11595 -0.36257,-0.74965 -0.84561,-1.44086 -1.42494,-2.03903 -0.15875,-1.047 -0.46299,-2.07183 -0.90126,-3.03585 -0.31623,-0.69558 -0.7013,-1.35864 -1.00612,-2.05929 -0.24982,-0.57423 -0.4563,-1.19015 -0.89126,-1.64066 -0.45255,-0.46873 -1.10716,-0.70059 -1.75601,-0.75982 -0.64885,-0.0592 -1.30083,0.0385 -1.94391,0.14316 -0.96737,0.15748 -1.93206,0.33145 -2.89351,0.52179 z" fill="#fdfdfb" />
<path d="m 16.596321,5.9755329 c -0.23985,0.0131 -0.46929,0.12376 -0.6448,0.28776 -0.17551,0.164 -0.29916,0.37867 -0.37523,0.60652 -0.15213,0.45569 -0.1179,0.94969 -0.0833,1.42886 0.0313,0.43387 0.0633,0.8761 0.22581,1.27962 0.0812,0.20176 0.19531,0.39193 0.34751,0.5473101 0.15219,0.15538 0.34365,0.27499 0.55463,0.32786 0.19782,0.0496 0.40916,0.0393 0.60371,-0.0218 0.19456,-0.0611 0.37223,-0.17223 0.51799,-0.31486 0.21265,-0.2080801 0.35598,-0.4802701 0.43815,-0.7662201 0.0822,-0.28595 0.10561,-0.58604 0.10134,-0.88353 -0.005,-0.37229 -0.054,-0.7459 -0.17046,-1.09954 -0.11647,-0.35364 -0.30244,-0.68728 -0.56197,-0.95425 -0.12569,-0.1293 -0.26905,-0.2431 -0.43077,-0.32288 -0.16172,-0.0798 -0.34253,-0.12462 -0.52259,-0.11481 z" fill="#fefefc" />
<path d="m 20.840931,5.9755329 c -0.39194,0.2339 -0.69617,0.61113 -0.84172,1.04373 -0.1823,0.54182 -0.11505,1.14165 0.0674,1.68343 0.18743,0.55656 0.50736,1.08674 0.99129,1.4194601 0.24197,0.16636 0.52216,0.27999 0.81385,0.31369 0.2917,0.0337 0.59457,-0.0144 0.85467,-0.15072 0.31641,-0.16578 0.55767,-0.4549101 0.70773,-0.7790701 0.15007,-0.32416 0.21433,-0.68243 0.235,-1.03904 0.0264,-0.45463 -0.0171,-0.91719 -0.16834,-1.34675 -0.16361,-0.46482 -0.46079,-0.89143 -0.87539,-1.15776 -0.2073,-0.13317 -0.44198,-0.22498 -0.68584,-0.26017 -0.24386,-0.0352 -0.49671,-0.0131 -0.72824,0.0712 -0.13264,0.0483 -0.25795,0.11663 -0.37035,0.20201 z" fill="#fefefc" />
<path d="m 17.723301,9.1403829 c 0.23802,-0.26755 0.40082,-0.59398 0.62949,-0.86956 0.11433,-0.13779 0.24624,-0.26334 0.40155,-0.35242 0.15532,-0.0891 0.33561,-0.14021 0.51399,-0.12476 0.19857,0.0172 0.38443,0.11613 0.52981,0.25248 0.14539,0.13635 0.25316,0.30844 0.3392,0.48823 0.0824,0.17215 0.14784,0.35557 0.26654,0.50502 0.12664,0.15945 0.3043,0.2683 0.46477,0.39364 0.0802,0.0627 0.15723,0.13051 0.22065,0.21016 0.0634,0.0796 0.11307,0.17184 0.13346,0.27159 0.0207,0.1012901 0.0104,0.2080801 -0.0249,0.3052401 -0.0353,0.0972 -0.0952,0.18474 -0.16964,0.25646 -0.14893,0.14344 -0.35198,0.2208 -0.55672,0.24977 -0.40947,0.0579 -0.82348,-0.0641 -1.23687,-0.0527 -0.41842,0.0115 -0.82712,0.15941 -1.24542,0.14411 -0.20915,-0.008 -0.42127,-0.0587 -0.59314,-0.17818 -0.0859,-0.0597 -0.1608,-0.13609 -0.21492,-0.22566 -0.0541,-0.0896 -0.0871,-0.19244 -0.0906,-0.29703 -0.003,-0.0998 0.0199,-0.1994401 0.0598,-0.2909701 0.0399,-0.0915 0.096,-0.17531 0.1592,-0.25258 0.12645,-0.15454 0.28107,-0.28364 0.41379,-0.43283 z" fill="#020204" />
<path d="m 21.704397,7.1061029 c -0.140799,0.0101 -0.278017,0.0582 -0.397471,0.13336 -0.119455,0.0752 -0.221306,0.17713 -0.301268,0.29346 -0.159923,0.23266 -0.23015,0.51806 -0.241471,0.80015 -0.0085,0.21175 0.01495,0.42626 0.08517,0.6262 0.07023,0.19995 0.188664,0.38501 0.351872,0.52019 0.167011,0.13832 0.379306,0.22135 0.595913,0.23176 0.216608,0.0104 0.436275,-0.0521 0.614257,-0.17596 0.141796,-0.0987 0.256164,-0.23456 0.337583,-0.38694 0.08142,-0.15238 0.130471,-0.321 0.152896,-0.4923 0.03961,-0.30259 -0.0052,-0.61856 -0.145034,-0.88979 -0.139847,-0.27124 -0.377157,-0.49462 -0.663505,-0.60012 -0.124026,-0.0457 -0.257109,-0.0695 -0.388947,-0.06 z" fill="#020204" />
<path d="m 22.040373,8.0293229 c -0.116615,0.046 -0.301208,0.0171 -0.352337,0.13154 -0.03029,0.0678 0.01248,0.17945 0.08127,0.20748 0.139043,0.0566 0.354454,-0.0459 0.41059,-0.18519 0.02438,-0.0605 -0.01258,-0.15636 -0.07269,-0.18163 -0.02224,-0.009 -0.04439,0.019 -0.06683,0.0278 z" fill="#141413" />
<path d="m 16.018097,7.9619129 c -0.05011,0.30244 -0.05193,0.61977 0.05204,0.90817 0.06866,0.19043 0.181866,0.3632 0.319472,0.51167 0.0901,0.0972 0.192347,0.18555 0.311873,0.24284 0.119527,0.0573 0.258007,0.0817 0.386563,0.0494 0.118666,-0.0298 0.222423,-0.1062 0.298995,-0.20163 0.07657,-0.0954 0.127617,-0.20914 0.163992,-0.32596 0.10739,-0.34486 0.09013,-0.72207 -0.01649,-1.06718 -0.07768,-0.25144 -0.206332,-0.49398 -0.407611,-0.66351 -0.09603,-0.0809 -0.208439,-0.14426 -0.330597,-0.17328 -0.122159,-0.029 -0.254365,-0.0222 -0.368676,0.0297 -0.126904,0.0577 -0.225121,0.16741 -0.289425,0.29108 -0.06431,0.12367 -0.09735,0.26118 -0.120139,0.3987 z" fill="#020204" />
<path d="m 15.454179,11.722013 c 0.0083,0.0398 0.02323,0.0782 0.04405,0.11306 0.03578,0.06 0.08807,0.10859 0.14454,0.14967 0.05647,0.0411 0.117543,0.0754 0.176669,0.11252 0.314283,0.19756 0.570395,0.47527 0.79791,0.7686 0.305245,0.39354 0.575317,0.83025 0.98303,1.11629 0.287904,0.20199 0.632392,0.31716 0.982323,0.35232 0.410934,0.0413 0.826883,-0.025 1.223073,-0.14168 0.367174,-0.1081 0.722272,-0.25987 1.048057,-0.46078 0.619301,-0.38192 1.136551,-0.94174 1.819453,-1.19282 0.149088,-0.0548 0.304259,-0.094 0.447995,-0.16165 0.143734,-0.0676 0.278959,-0.16888 0.347608,-0.31213 0.06599,-0.13769 0.06343,-0.29661 0.08492,-0.44778 0.02299,-0.16172 0.07457,-0.31808 0.102871,-0.47896 0.02829,-0.16088 0.03167,-0.33296 -0.03789,-0.48075 -0.05761,-0.12239 -0.16233,-0.21924 -0.282793,-0.28077 -0.120464,-0.0615 -0.256027,-0.0895 -0.391133,-0.0961 -0.270213,-0.0133 -0.537025,0.0559 -0.806443,0.0805 -0.356824,0.0326 -0.716181,-0.0132 -1.07433,-0.003 -0.445543,0.0133 -0.884596,0.11376 -1.329813,0.13535 -0.507926,0.0246 -1.014729,-0.0537 -1.522835,-0.0743 -0.220067,-0.009 -0.441727,-0.007 -0.658803,0.0303 -0.217076,0.0372 -0.430316,0.11092 -0.611556,0.23606 -0.176618,0.12195 -0.317282,0.28823 -0.479466,0.42881 -0.08109,0.0703 -0.168274,0.13458 -0.264807,0.18146 -0.09653,0.0469 -0.20302,0.076 -0.310311,0.0737 -0.05516,-10e-4 -0.111896,-0.0104 -0.164478,0.006 -0.03285,0.0104 -0.06201,0.0306 -0.08667,0.0547 -0.02465,0.0241 -0.04509,0.0521 -0.06435,0.0807 -0.04478,0.0665 -0.08391,0.13675 -0.116819,0.20983 z" fill="#f5c021" />
<path d="m 16.516454,9.9877429 c -0.25984,0.1748901 -0.493735,0.3882601 -0.691691,0.6309801 -0.11322,0.13883 -0.21598,0.28967 -0.272997,0.45949 -0.04485,0.13358 -0.06013,0.27494 -0.08839,0.41298 -0.01059,0.0517 -0.02308,0.1036 -0.02286,0.15638 1.11e-4,0.0264 0.0035,0.0529 0.01164,0.078 0.0082,0.0251 0.02132,0.0487 0.0396,0.0678 0.03026,0.0315 0.07278,0.0486 0.115565,0.0574 0.04278,0.009 0.0867,0.0101 0.130103,0.0151 0.195902,0.0223 0.376342,0.11744 0.538742,0.22924 0.1624,0.1118 0.312056,0.2418 0.478692,0.34719 0.368185,0.23285 0.807312,0.33645 1.242627,0.35323 0.435314,0.0168 0.86964,-0.0494 1.296845,-0.13465 0.339501,-0.0678 0.67794,-0.14824 1.000016,-0.27521 0.493233,-0.19446 0.937806,-0.49384 1.362661,-0.811 0.192989,-0.14407 0.38328,-0.29267 0.556543,-0.45995 0.05881,-0.0568 0.115707,-0.11575 0.178789,-0.16774 0.06308,-0.052 0.13308,-0.0972 0.210896,-0.12224 0.118617,-0.0382 0.247211,-0.0272 0.370111,-0.007 0.09257,0.0155 0.185312,0.0362 0.279084,0.0325 0.04689,-0.002 0.09382,-0.01 0.137376,-0.0274 0.04356,-0.0174 0.08371,-0.0445 0.113571,-0.0807 0.03924,-0.0476 0.05925,-0.10969 0.05947,-0.17135 2.7e-4,-0.0617 -0.01868,-0.12268 -0.04997,-0.17582 -0.06258,-0.10626 -0.170801,-0.17818 -0.283495,-0.22827 -0.154356,-0.0686 -0.321374,-0.10254 -0.48557,-0.14218 -0.504394,-0.1217801 -0.994537,-0.3017501 -1.4593,-0.5324801 -0.231047,-0.11471 -0.455678,-0.24182 -0.683035,-0.36368 -0.233736,-0.12527 -0.471976,-0.24566 -0.725764,-0.32259 -0.567426,-0.172 -1.18763,-0.11559 -1.747734,0.0789 -0.622183,0.21608 -1.18479,0.60107 -1.611535,1.10276 z" fill="#f5c021" />
<path d="m 28.834051,19.858753 c 0.81947,0.65918 1.33941,1.65461 1.5004,2.6939 0.12556,0.81055 0.044,1.64235 -0.1388,2.44195 -0.18276,0.79959 -0.46492,1.57248 -0.74498,2.3434 -0.11168,0.30742 -0.22386,0.61776 -0.26824,0.94182 -0.0444,0.32405 -0.0163,0.66721 0.14,0.95454 0.17915,0.32938 0.51351,0.55623 0.87294,0.66299 0.35486,0.1054 0.73816,0.10318 1.09735,0.0137 0.3592,-0.0895 0.69457,-0.26442 0.98695,-0.49146 0.7428,-0.57682 1.191,-1.47451 1.3645,-2.39883 0.1735,-0.92433 0.0938,-1.87876 -0.0675,-2.80529 -0.21998,-1.26343 -0.5901,-2.49835 -1.06122,-3.69112 -0.34654,-0.87736 -0.75204,-1.74 -1.31865,-2.49419 -0.55446,-0.73802 -1.25339,-1.35928 -1.79657,-2.10564 -0.37744,-0.51862 -0.6798,-1.09752 -1.13212,-1.55231 -0.22617,-0.22739 -0.49027,-0.42184 -0.78923,-0.53796 -0.29895,-0.11612 -0.63467,-0.15032 -0.94339,-0.0634 -0.40691,0.11452 -0.73933,0.43515 -0.91618,0.8191 -0.17685,0.38395 -0.20778,0.82463 -0.13898,1.24171 0.0888,0.53807 0.33484,1.03734 0.61228,1.50683 0.31335,0.53025 0.67634,1.04064 1.14958,1.43483 0.49387,0.41137 1.09107,0.68263 1.5919,1.0855 z" fill="#020204" />
<path fill="#f5c021" d="m 37.036282,34.191623 c -0.09042,0.23151 -0.21909,0.44803 -0.379214,0.63812 -0.353359,0.41949 -0.844139,0.69632 -1.332802,0.9454 -0.833446,0.42481 -1.697125,0.79751 -2.480653,1.30856 -0.524964,0.34241 -1.009506,0.74431 -1.462585,1.17738 -0.387484,0.37037 -0.75496,0.76595 -1.189507,1.07978 -0.438456,0.31665 -0.9453,0.546 -1.480154,0.62626 -0.650512,0.0976 -1.322682,-0.0287 -1.925706,-0.29146 -0.422546,-0.18413 -0.829013,-0.44751 -1.072413,-0.83892 -0.244333,-0.39292 -0.300064,-0.87379 -0.300682,-1.33648 -0.0011,-0.81837 0.150598,-1.62822 0.293386,-2.43403 0.118644,-0.66957 0.231571,-1.34066 0.304381,-2.01676 0.132435,-1.22973 0.131483,-2.47164 0.04308,-3.70533 -0.0148,-0.20661 -0.03199,-0.41523 -0.0011,-0.62005 0.03087,-0.20483 0.115113,-0.40897 0.272135,-0.54407 0.145039,-0.12479 0.339505,-0.17992 0.530546,-0.1905 0.191041,-0.0106 0.381672,0.0197 0.570995,0.0474 0.446114,0.0652 0.895798,0.11648 1.331817,0.23118 0.275118,0.0724 0.543162,0.16959 0.81777,0.24387 0.45824,0.12395 0.938194,0.18335 1.409689,0.1282 0.50761,-0.0594 1.000613,-0.25006 1.511535,-0.23766 0.209631,0.005 0.417692,0.0447 0.617682,0.10771 0.204085,0.0643 0.405254,0.15647 0.555237,0.3091 0.113987,0.11599 0.193364,0.26199 0.253016,0.41329 0.08886,0.22538 0.136683,0.46556 0.157169,0.70696 0.01815,0.21385 0.01528,0.43021 0.0558,0.64096 0.06667,0.34673 0.248806,0.66301 0.475196,0.93396 0.22639,0.27095 0.496924,0.50105 0.76716,0.7283 0.269225,0.22639 0.540125,0.45179 0.830548,0.65026 0.136304,0.0931 0.276947,0.18039 0.406361,0.2829 0.129414,0.1025 0.248428,0.22178 0.329336,0.36568 0.109749,0.19521 0.143263,0.432 0.09199,0.64999 z" />
<path d="m 33.020543,27.922823 c -0.05456,-0.14864 -0.150626,-0.28033 -0.268097,-0.3865 -0.117471,-0.10617 -0.255946,-0.1875 -0.401703,-0.24935 -0.291515,-0.12371 -0.608799,-0.1699 -0.920031,-0.22835 -0.29348,-0.0551 -0.584727,-0.12206 -0.87913,-0.17203 -0.305894,-0.0519 -0.621912,-0.0851 -0.924579,-0.0169 -0.264747,0.0597 -0.509675,0.19646 -0.709966,0.3796 -0.200291,0.18313 -0.356767,0.41161 -0.469339,0.65856 -0.198264,0.43494 -0.260529,0.92455 -0.222743,1.40104 0.02812,0.35463 0.117884,0.71996 0.351334,0.98839 0.188633,0.2169 0.456187,0.35221 0.731818,0.43378 0.47473,0.14048 0.992097,0.13309 1.462615,-0.0209 0.776652,-0.26007 1.464675,-0.77759 1.929929,-1.45166 0.153341,-0.22216 0.284456,-0.46437 0.343851,-0.7277 0.04525,-0.2006 0.04691,-0.41494 -0.02396,-0.60799 z" fill="#020204" />
<path fill="#020204" d="m 14.477321,14.333763 c -0.374875,0.46784 -0.749021,0.93626 -1.122437,1.40526 -0.384753,0.48324 -0.768736,0.9671 -1.156488,1.44793 -0.475762,0.58998 -0.962806,1.18436 -1.272554,1.87608 -0.26615,0.59436 -0.392006,1.23998 -0.574383,1.86515 -0.207116,0.70997 -0.4883414,1.39661 -0.8041017,2.06538 -0.2915646,0.61752 -0.612744,1.22054 -0.9344932,1.82289 -0.2340909,0.43824 -0.4720524,0.88629 -0.553218,1.37647 -0.064143,0.38736 -0.026733,0.78706 0.071883,1.16712 0.098615,0.38005 0.2571808,0.74213 0.4360432,1.09167 0.7632331,1.49152 1.9083397,2.77721 3.2647437,3.76074 0.615546,0.44634 1.27492,0.83244 1.966576,1.14823 0.374727,0.17109 0.769468,0.32381 1.181344,0.33095 0.205938,0.004 0.414003,-0.0304 0.602579,-0.1132 0.188576,-0.0828 0.356978,-0.21598 0.469009,-0.38881 0.137742,-0.21251 0.184492,-0.47652 0.156843,-0.72825 -0.02765,-0.25172 -0.125899,-0.49195 -0.257665,-0.70821 -0.321867,-0.52826 -0.830293,-0.91047 -1.319326,-1.2893 -1.055921,-0.81795 -2.077306,-1.68079 -3.0547,-2.59113 -0.275964,-0.25703 -0.551951,-0.52221 -0.744775,-0.84631 -0.187776,-0.31561 -0.289227,-0.67522 -0.357942,-1.03598 -0.188506,-0.98969 -0.140185,-2.03128 0.196568,-2.98081 0.131742,-0.37146 0.30587,-0.72616 0.473805,-1.08273 0.291075,-0.61803 0.566608,-1.24785 0.949364,-1.81369 0.476475,-0.7044 1.113419,-1.30102 1.501817,-2.05756 0.327829,-0.63856 0.460579,-1.35649 0.58743,-2.06298 0.09925,-0.55275 0.197272,-1.10572 0.294078,-1.65891 z" />
<path d="m 8.9662881,27.342553 c 0.2153833,-0.0893 0.4576503,-0.10553 0.6869388,-0.0632 0.2292871,0.0423 0.4459621,0.14134 0.6388171,0.27236 0.38571,0.26205 0.671784,0.64344 0.945768,1.02077 0.629184,0.8665 1.234786,1.75107 1.783746,2.6705 0.44528,0.74578 0.854309,1.51601 1.36885,2.2158 0.335875,0.4568 0.714663,0.8807 1.052211,1.33627 0.337546,0.45556 0.636732,0.95024 0.786405,1.49712 0.194484,0.71061 0.119137,1.49393 -0.219069,2.14846 -0.23792,0.46045 -0.602865,0.85549 -1.046746,1.12305 -0.44388,0.26756 -0.965701,0.40597 -1.48362,0.38654 -0.823416,-0.0309 -1.575614,-0.44242 -2.341128,-0.74731 -1.5596592,-0.62119 -3.2537022,-0.81605 -4.8612938,-1.29985 -0.494065,-0.14868 -0.9798663,-0.32465 -1.4773615,-0.46143 -0.2210342,-0.0608 -0.4455916,-0.11423 -0.654349,-0.20894 -0.208756,-0.0947 -0.4039621,-0.23556 -0.5200732,-0.43321 -0.089746,-0.15277 -0.1277233,-0.33265 -0.1252724,-0.50982 0.00245,-0.17716 0.043889,-0.35211 0.1042131,-0.51871 0.1206481,-0.33319 0.3155772,-0.63482 0.4471406,-0.96385 0.2148204,-0.53727 0.2534154,-1.12971 0.2244442,-1.7076 -0.02897,-0.57789 -0.1226587,-1.15076 -0.1622206,-1.72802 -0.017667,-0.25778 -0.02433,-0.51884 0.024887,-0.77249 0.049217,-0.25365 0.1583461,-0.50161 0.3444579,-0.68084 0.1715832,-0.16523 0.3992987,-0.26333 0.6324887,-0.31197 0.23319,-0.0487 0.4734248,-0.0508 0.7115748,-0.0455 0.2381487,0.005 0.4768374,0.0181 0.7142468,-0.001 0.2374093,-0.0195 0.4758677,-0.0728 0.682679,-0.191 0.1966192,-0.11239 0.3574702,-0.27939 0.4907184,-0.46251 0.1332468,-0.18312 0.2409445,-0.38324 0.3513532,-0.58098 0.1104101,-0.19773 0.2246826,-0.3948 0.3692192,-0.56915 0.1445379,-0.17435 0.321768,-0.32632 0.5309752,-0.41304 z" fill="#f5c021" />
</svg>
