<?xml version="1.0" encoding="UTF-8" standalone="no"?>
<svg
   xmlns:dc="http://purl.org/dc/elements/1.1/"
   xmlns:cc="http://creativecommons.org/ns#"
   xmlns:rdf="http://www.w3.org/1999/02/22-rdf-syntax-ns#"
   xmlns:svg="http://www.w3.org/2000/svg"
   xmlns="http://www.w3.org/2000/svg"
   id="svg16"
   version="1.1"
   xml:space="preserve"
   viewBox="137.227 42.791 40 39.999999"
   height="40"
   width="40"><metadata
     id="metadata22"><rdf:RDF><cc:Work
         rdf:about=""><dc:format>image/svg+xml</dc:format><dc:type
           rdf:resource="http://purl.org/dc/dcmitype/StillImage" /><dc:title></dc:title></cc:Work></rdf:RDF></metadata><defs
     id="defs20" /><g
     style="fill:#58595b"
     transform="matrix(0.19772224,0,0,0.19772224,109.5358,47.442139)"
     id="g8"><path
       id="path2"
       d="m 188.409,50.299 h -5.91 c -0.361,0 -0.689,0.211 -0.836,0.542 L 164.911,88.275 147.71,50.833 c -0.149,-0.326 -0.473,-0.534 -0.831,-0.534 h -5.913 c -0.241,0 -0.478,0.098 -0.646,0.27 -0.171,0.17 -0.269,0.406 -0.269,0.647 v 55.375 c 0,0.241 0.098,0.477 0.269,0.647 0.17,0.169 0.405,0.268 0.646,0.268 h 5.912 c 0.243,0 0.473,-0.096 0.646,-0.269 0.172,-0.173 0.267,-0.402 0.267,-0.646 V 68.684 l 13.654,29.579 c 0.148,0.324 0.474,0.531 0.832,0.531 h 5.055 c 0.359,0 0.684,-0.209 0.833,-0.536 l 13.417,-29.515 v 37.848 c 0,0.241 0.098,0.477 0.27,0.647 0.17,0.169 0.406,0.268 0.646,0.268 h 5.91 c 0.246,0 0.475,-0.096 0.649,-0.269 0.172,-0.173 0.267,-0.402 0.267,-0.646 V 51.215 c 0,-0.241 -0.096,-0.477 -0.267,-0.647 -0.17,-0.171 -0.405,-0.269 -0.648,-0.269 z" /><path
       id="path4"
       d="m 210.02,66.943 c -5.085,-0.01 -9.335,1.926 -12.213,5.503 -2.885,3.569 -4.414,8.687 -4.414,15.012 0,6.907 1.688,12.057 4.808,15.489 3.119,3.438 7.602,5.034 12.831,5.024 0.049,0 0.099,0 0.149,0 6.633,0 10.583,-2.22 14.5,-6.178 0.177,-0.179 0.274,-0.426 0.266,-0.678 -0.008,-0.253 -0.123,-0.493 -0.312,-0.658 l -3.81,-3.346 c -0.363,-0.318 -0.91,-0.3 -1.253,0.042 -2.979,2.936 -5.137,4.053 -9.384,4.087 -3.462,-0.009 -5.961,-1.111 -7.681,-3.137 -1.588,-1.873 -2.53,-4.641 -2.665,-8.254 h 24.889 c 0.241,0 0.475,-0.097 0.647,-0.267 0.17,-0.172 0.27,-0.408 0.27,-0.648 V 86.37 c 0,-5.831 -1.497,-10.681 -4.366,-14.102 -2.866,-3.427 -7.105,-5.333 -12.262,-5.325 z m -9.142,16.876 c 0.146,-2.38 0.322,-3.319 1.045,-5.115 1.333,-3.146 4.395,-5.18 8.097,-5.187 3.703,0.007 6.763,2.041 8.101,5.197 v 0 c 0.718,1.788 0.896,2.729 1.042,5.104 h -18.285 z" /><path
       id="path6"
       d="m 246.457,66.944 c -5.085,-0.01 -9.333,1.925 -12.213,5.502 -2.885,3.571 -4.413,8.687 -4.414,15.013 0,6.906 1.688,12.056 4.809,15.49 3.119,3.437 7.602,5.031 12.831,5.023 0.047,0.002 0.096,0.002 0.144,0.002 6.635,0 10.586,-2.223 14.5,-6.18 0.181,-0.183 0.277,-0.424 0.268,-0.679 -0.008,-0.254 -0.118,-0.491 -0.31,-0.658 l -3.812,-3.346 c -0.362,-0.317 -0.908,-0.3 -1.252,0.042 -2.977,2.935 -5.136,4.054 -9.382,4.088 -3.462,-0.01 -5.961,-1.112 -7.681,-3.138 -1.587,-1.873 -2.529,-4.641 -2.665,-8.254 h 24.889 c 0.245,0 0.475,-0.094 0.647,-0.269 0.173,-0.171 0.268,-0.401 0.268,-0.646 V 86.37 c 0,-5.83 -1.497,-10.681 -4.364,-14.102 -2.869,-3.427 -7.108,-5.333 -12.263,-5.324 z m -9.143,16.875 c 0.146,-2.38 0.323,-3.319 1.045,-5.115 1.333,-3.146 4.397,-5.18 8.097,-5.186 3.702,0.006 6.762,2.041 8.102,5.197 v 0 c 0.717,1.788 0.896,2.729 1.039,5.104 z m 18.088,-5.461 z" /></g><g
     style="fill:#562a7a"
     transform="matrix(0.19772224,0,0,0.19772224,109.5358,47.442139)"
     id="g14"><path
       id="path10"
       d="m 305.843,76.666 h -19.521 c -0.241,0 -0.477,0.098 -0.647,0.267 -0.17,0.171 -0.269,0.406 -0.269,0.65 v 5.208 c 0,0.242 0.099,0.477 0.269,0.649 0.171,0.168 0.406,0.267 0.647,0.267 h 12.694 v 3.285 c -0.012,4.17 -0.804,6.899 -2.9,9.448 -2.375,2.879 -5.993,4.413 -9.794,4.413 -3.424,0.001 -6.689,-1.315 -8.909,-3.61 -1.641,-1.694 -2.489,-3.291 -3.015,-6.015 -0.515,-2.722 -0.618,-6.542 -0.617,-12.326 -0.001,-5.784 0.103,-9.583 0.617,-12.283 0.522,-2.705 1.371,-4.281 3.013,-5.975 2.229,-2.306 5.503,-3.693 8.911,-3.692 6.519,0.037 11.039,3.897 12.56,10.561 0.094,0.418 0.467,0.717 0.895,0.717 h 5.912 c 0.269,0 0.525,-0.12 0.697,-0.325 0.175,-0.205 0.249,-0.479 0.204,-0.743 -1.654,-10.089 -9.269,-17.362 -20.268,-17.329 -5.747,-0.007 -10.906,2.119 -14.803,6.023 -2.728,2.711 -4.147,5.616 -4.812,9.229 -0.674,3.616 -0.664,7.944 -0.666,13.816 0.002,5.872 -0.008,10.202 0.666,13.819 0.665,3.612 2.085,6.518 4.812,9.229 3.902,3.908 9.131,6.026 14.803,6.022 0.005,0 0.009,0 0.017,0 5.903,0 11.374,-2.284 15.429,-6.668 v 0.001 c 3.608,-3.834 5.007,-8.45 4.991,-14.936 V 77.58 c 0,-0.244 -0.099,-0.479 -0.268,-0.65 -0.17,-0.167 -0.405,-0.264 -0.648,-0.264 z" /><path
       id="path12"
       d="m 336.774,102.703 0.654,0.641 c 4.151,-4.245 4.928,-9.918 4.927,-15.885 10e-4,-5.969 -0.775,-11.641 -4.927,-15.887 -2.808,-2.812 -6.729,-4.635 -11.621,-4.629 -4.893,-0.006 -8.815,1.817 -11.614,4.623 -4.161,4.252 -4.935,9.924 -4.935,15.893 0,5.967 0.772,11.64 4.928,15.885 2.806,2.812 6.728,4.637 11.621,4.628 0.009,0 0.018,0 0.025,0 4.88,0 8.795,-1.822 11.588,-4.623 z m -1.85,-15.244 c 0.021,4.26 -0.307,8.772 -2.767,11.173 -1.61,1.609 -3.855,2.53 -6.351,2.532 -2.497,-0.003 -4.654,-0.914 -6.276,-2.53 -2.465,-2.412 -2.861,-6.928 -2.843,-11.175 -0.019,-4.248 0.378,-8.765 2.843,-11.176 1.622,-1.617 3.779,-2.529 6.276,-2.532 2.494,0.002 4.74,0.923 6.351,2.532 2.461,2.403 2.788,6.915 2.767,11.176 z" /></g></svg>