<svg xmlns="http://www.w3.org/2000/svg" height="40" width="40">
<path fill="#73ba25" d="M 18.730469 7.4628906 C 15.913979 7.4763906 12.306297 7.9335 7.8847656 10.652344 L 7.7109375 10.761719 C 4.9373125 12.491844 3.0224844 14.624891 2.0214844 17.103516 C 1.7074844 17.883516 1.284625 19.642703 1.703125 21.298828 C 1.883375 22.022703 2.2207031 22.751219 2.6738281 23.402344 C 3.6980781 24.873594 5.4170781 25.848797 7.2675781 26.013672 C 9.8807031 26.247422 11.85875 25.074578 12.5625 22.876953 C 13.046375 21.360828 12.561906 19.135 10.707031 18 C 9.1982813 17.076125 7.5758906 17.287531 6.6347656 17.910156 C 5.8182656 18.451531 5.3551563 19.290969 5.3632812 20.214844 C 5.3821563 21.853594 6.7954219 22.725891 7.8105469 22.728516 C 8.1054219 22.728516 8.4005 22.677109 8.734375 22.568359 C 8.85325 22.532109 8.9646406 22.486406 9.0878906 22.410156 L 9.1269531 22.388672 L 9.1425781 22.376953 C 9.3739531 22.219328 9.5136719 21.962375 9.5136719 21.6875 C 9.5136719 21.6125 9.5039219 21.537438 9.4824219 21.460938 C 9.3625469 21.045938 8.9522187 20.793719 8.5273438 20.871094 L 8.46875 20.884766 L 8.3925781 20.908203 L 8.2792969 20.947266 C 8.0455469 21.004766 7.8713594 21.010469 7.8339844 21.011719 C 7.7151094 21.004094 7.1308594 20.829328 7.1308594 20.189453 L 7.1308594 20.179688 C 7.1308594 19.944688 7.2233906 19.779578 7.2753906 19.689453 C 7.4571406 19.404453 7.9565312 19.125094 8.6289062 19.183594 C 9.5112812 19.259969 10.146984 19.712781 10.568359 20.566406 C 10.959484 21.360031 10.857187 22.335656 10.304688 23.050781 C 9.7559375 23.759406 8.7795937 24.06175 7.4804688 23.921875 C 6.1703437 23.777 5.0619063 23.023234 4.4414062 21.849609 C 3.8344063 20.702359 3.8009688 19.34175 4.3554688 18.296875 C 5.6815938 15.79325 8.1870469 15.819266 9.5605469 16.056641 C 11.593047 16.409266 13.904484 18.284344 14.724609 20.449219 C 14.857109 20.794344 14.925375 21.068109 14.984375 21.318359 L 15.072266 21.691406 L 17.369141 22.8125 L 17.398438 22.835938 L 17.455078 22.830078 L 17.464844 22.763672 C 17.450594 22.712297 17.418234 22.666063 17.365234 22.023438 C 17.321609 21.453187 17.231578 19.890812 18.017578 19.117188 C 18.322703 18.814812 18.787047 18.545359 19.154297 18.458984 C 20.659297 18.091359 22.42525 18.345969 24.09375 20.277344 C 24.957625 21.274969 25.378594 21.729969 25.589844 21.933594 L 25.664062 22 L 25.75 22.064453 C 25.81925 22.102078 28.619141 23.392578 28.619141 23.392578 L 28.677734 23.378906 L 28.677734 23.318359 C 28.659109 23.297109 26.904172 21.027203 27.216797 19.158203 C 27.462922 17.669703 28.646406 17.805234 30.285156 17.990234 C 30.820156 18.052734 31.430047 18.122719 32.060547 18.136719 C 33.820922 18.147844 35.717969 17.821797 36.886719 17.310547 C 37.642844 16.981797 38.125359 16.763156 38.427734 16.488281 C 38.536484 16.398156 38.591516 16.251125 38.650391 16.09375 L 38.691406 15.990234 C 38.740281 15.862609 38.81225 15.594641 38.84375 15.447266 C 38.8565 15.382391 38.864734 15.313719 38.818359 15.277344 L 38.65625 15.306641 C 38.143 15.615516 36.859656 16.201562 35.660156 16.226562 C 34.170906 16.256688 31.173828 14.728906 30.861328 14.566406 L 30.830078 14.53125 C 30.756453 14.35125 30.307188 13.2875 30.210938 13.0625 C 32.369687 14.484875 34.160625 15.271328 35.53125 15.392578 C 37.057125 15.528453 38.245906 14.695844 38.753906 14.339844 C 38.854531 14.273344 38.927859 14.217328 38.958984 14.205078 L 38.992188 14.154297 C 38.907063 13.619297 38.110938 11.024016 37.507812 10.400391 C 37.341687 10.230391 37.208828 10.063875 36.939453 9.90625 C 34.757578 8.635 29.580391 7.8670312 29.337891 7.8320312 L 29.296875 7.84375 L 29.28125 7.8808594 C 29.28125 7.8808594 29.260813 8.9543437 29.257812 9.0742188 C 28.729188 8.8965938 24.887531 7.6542969 21.285156 7.5292969 C 20.521406 7.5024531 19.669299 7.4583906 18.730469 7.4628906 z M 35.125 10.023438 C 36.345125 10.067063 37.303594 11.097656 37.261719 12.316406 C 37.238719 12.907656 36.991797 13.456297 36.560547 13.857422 C 36.128047 14.263672 35.565078 14.471172 34.970703 14.451172 C 33.752078 14.406297 32.795188 13.379906 32.835938 12.160156 C 32.857813 11.568906 33.104859 11.019688 33.537109 10.617188 C 33.969609 10.213313 34.533375 10.004688 35.125 10.023438 z M 35.107422 10.675781 C 34.693547 10.660906 34.3 10.806641 34 11.087891 C 33.700125 11.369141 33.524219 11.751438 33.511719 12.164062 C 33.482969 13.016687 34.151328 13.732297 35.001953 13.763672 C 35.415578 13.776172 35.809578 13.630859 36.111328 13.349609 C 36.412453 13.066984 36.584531 12.686391 36.597656 12.275391 C 36.626406 11.423016 35.960047 10.706031 35.107422 10.675781 z M 35.359375 11.451172 C 35.73825 11.451172 36.044922 11.654578 36.044922 11.908203 C 36.044672 12.159453 35.738 12.365234 35.359375 12.365234 C 34.9805 12.365234 34.675781 12.159453 34.675781 11.908203 C 34.675781 11.654578 34.9805 11.451172 35.359375 11.451172 z M 34.216797 24.962891 L 34.216797 24.964844 C 33.928047 24.964844 33.710938 25.177313 33.710938 25.460938 L 33.710938 30.380859 C 33.710938 30.663234 33.922703 30.876953 34.205078 30.876953 L 38.126953 30.876953 C 38.428828 30.876953 38.646484 30.667109 38.646484 30.380859 L 38.646484 30.251953 C 38.646484 29.964453 38.428828 29.753906 38.126953 29.753906 L 34.916016 29.753906 L 34.916016 28.501953 L 37.267578 28.501953 C 37.568828 28.501953 37.789062 28.290281 37.789062 28.003906 L 37.789062 27.873047 C 37.789062 27.585422 37.568828 27.376953 37.267578 27.376953 L 34.916016 27.376953 L 34.916016 26.087891 L 37.962891 26.087891 C 38.263641 26.087891 38.482422 25.880797 38.482422 25.591797 L 38.482422 25.460938 C 38.482422 25.173313 38.263641 24.962891 37.962891 24.962891 L 34.216797 24.962891 z M 16.748047 24.964844 C 15.775047 24.964844 15.238281 25.786719 15.238281 26.355469 L 15.238281 27.085938 C 15.238281 27.923437 15.924094 28.441406 16.558594 28.441406 L 18.785156 28.441406 C 19.065781 28.441406 19.125 28.62625 19.125 28.78125 L 19.125 29.251953 C 19.125 29.301953 19.114406 29.753906 18.785156 29.753906 L 15.748047 29.753906 C 15.446172 29.753906 15.226562 29.964453 15.226562 30.251953 L 15.226562 30.380859 C 15.226562 30.667234 15.446172 30.876953 15.748047 30.876953 L 18.951172 30.876953 C 19.788422 30.876953 20.328125 30.294953 20.328125 29.392578 L 20.328125 28.603516 C 20.328125 27.756141 19.719734 27.376953 19.115234 27.376953 L 16.923828 27.376953 C 16.593828 27.376953 16.443359 27.130078 16.443359 26.955078 L 16.443359 26.519531 C 16.443359 26.245781 16.627266 26.087891 16.947266 26.087891 L 19.373047 26.087891 C 19.670547 26.087891 19.894531 25.874422 19.894531 25.591797 L 19.894531 25.460938 C 19.894531 25.177312 19.667031 24.964844 19.363281 24.964844 L 16.748047 24.964844 z M 21.880859 24.964844 C 21.588984 24.964844 21.359375 25.19325 21.359375 25.484375 L 21.359375 29.355469 C 21.359375 30.256719 22.068047 30.912109 23.044922 30.912109 L 24.855469 30.912109 C 25.831094 30.912109 26.539062 30.256844 26.539062 29.355469 L 26.539062 25.484375 C 26.539062 25.19325 26.310906 24.964844 26.019531 24.964844 L 25.855469 24.964844 C 25.567844 24.964844 25.335937 25.19675 25.335938 25.484375 L 25.335938 29.214844 C 25.335938 29.513719 25.092 29.753906 24.796875 29.753906 L 23.103516 29.753906 C 22.807391 29.753906 22.564453 29.513719 22.564453 29.214844 L 22.564453 25.484375 C 22.564453 25.19675 22.332297 24.964844 22.044922 24.964844 L 21.880859 24.964844 z M 29.097656 24.964844 C 28.125156 24.964844 27.587891 25.786719 27.587891 26.355469 L 27.587891 27.085938 C 27.587891 27.923437 28.273328 28.441406 28.908203 28.441406 L 31.134766 28.441406 C 31.415766 28.441406 31.474609 28.62625 31.474609 28.78125 L 31.474609 29.251953 C 31.474609 29.301953 31.464641 29.753906 31.134766 29.753906 L 28.095703 29.753906 C 27.795203 29.753906 27.576172 29.964453 27.576172 30.251953 L 27.576172 30.380859 C 27.576172 30.667234 27.795203 30.876953 28.095703 30.876953 L 31.298828 30.876953 C 32.136328 30.876953 32.679687 30.294953 32.679688 29.392578 L 32.679688 28.603516 C 32.679688 27.756141 32.069344 27.376953 31.464844 27.376953 L 29.273438 27.376953 C 28.942687 27.376953 28.792969 27.130078 28.792969 26.955078 L 28.792969 26.519531 C 28.792969 26.245781 28.97675 26.087891 29.296875 26.087891 L 31.722656 26.087891 C 32.019406 26.087891 32.244141 25.874422 32.244141 25.591797 L 32.244141 25.460938 C 32.244141 25.177312 32.016063 24.964844 31.710938 24.964844 L 29.097656 24.964844 z M 5.6386719 27.283203 C 5.2927969 27.283203 5.0316406 27.406562 4.8222656 27.507812 C 4.6946406 27.569062 4.5837969 27.621094 4.4980469 27.621094 C 4.4592969 27.621094 4.4276562 27.602969 4.4101562 27.574219 L 4.3300781 27.421875 C 4.3102031 27.38175 4.2297344 27.304687 4.1308594 27.304688 L 4.0117188 27.304688 C 3.8977188 27.304688 3.8066406 27.406375 3.8066406 27.53125 L 3.8066406 32.236328 C 3.8066406 32.383828 3.9229375 32.5 4.0703125 32.5 L 4.1738281 32.5 C 4.3200781 32.5 4.4375 32.382578 4.4375 32.236328 L 4.4375 30.675781 C 4.4375 30.629531 4.4676719 30.578125 4.4980469 30.578125 C 4.5837969 30.578125 4.6946406 30.629 4.8222656 30.6875 C 5.0316406 30.78375 5.2927969 30.902344 5.6386719 30.902344 L 5.75 30.902344 C 6.3625 30.902344 6.7441406 30.552609 6.7441406 29.990234 L 6.7441406 28.193359 C 6.7441406 27.639609 6.354375 27.283203 5.75 27.283203 L 5.6386719 27.283203 z M 13.111328 27.283203 C 12.766453 27.283203 12.506875 27.405609 12.296875 27.505859 C 12.16625 27.567234 12.054016 27.621094 11.962891 27.621094 C 11.922766 27.621094 11.906125 27.616375 11.875 27.5625 L 11.802734 27.429688 C 11.761109 27.345938 11.691328 27.304687 11.595703 27.304688 L 11.494141 27.304688 C 11.371016 27.304688 11.279297 27.399875 11.279297 27.53125 L 11.279297 30.617188 C 11.279297 30.763313 11.396047 30.880859 11.544922 30.880859 L 11.646484 30.880859 C 11.792734 30.880859 11.912109 30.762063 11.912109 30.617188 L 11.912109 28.283203 C 11.912109 28.064453 12.089844 27.884766 12.308594 27.884766 L 13.185547 27.884766 C 13.404922 27.884766 13.583984 28.064453 13.583984 28.283203 L 13.583984 30.617188 C 13.583984 30.763313 13.700031 30.880859 13.847656 30.880859 L 13.951172 30.880859 C 14.097422 30.880859 14.216797 30.762063 14.216797 30.617188 L 14.216797 28.193359 C 14.216797 27.639484 13.827531 27.283203 13.222656 27.283203 L 13.111328 27.283203 z M 8.5175781 27.302734 L 8.5175781 27.304688 C 8.0262031 27.304688 7.6289062 27.686828 7.6289062 28.158203 L 7.6289062 29.998047 C 7.6289062 30.475547 8.0152812 30.880859 8.4726562 30.880859 L 9.7109375 30.880859 C 9.8640625 30.880859 9.9746094 30.774984 9.9746094 30.630859 L 9.9746094 30.550781 C 9.9746094 30.405906 9.8640625 30.300781 9.7109375 30.300781 L 8.6933594 30.300781 C 8.4083594 30.300781 8.2578125 30.160906 8.2578125 29.894531 L 8.2578125 29.355469 L 10.09375 29.355469 C 10.388875 29.355469 10.5625 29.176094 10.5625 28.871094 L 10.5625 28.158203 C 10.5625 27.687078 10.163078 27.302734 9.6738281 27.302734 L 8.5175781 27.302734 z M 0.890625 27.304688 C 0.39925 27.304688 2.9605947e-16 27.686828 0 28.158203 L 0 30.011719 C 0 30.490594 0.38695312 30.880859 0.86132812 30.880859 L 2.0605469 30.880859 C 2.5349219 30.880859 2.921875 30.490594 2.921875 30.011719 L 2.921875 28.158203 C 2.921875 27.687078 2.522375 27.304687 2.03125 27.304688 L 0.890625 27.304688 z M 0.99414062 27.884766 L 1.9296875 27.884766 C 2.1248125 27.884766 2.2910156 28.051094 2.2910156 28.246094 L 2.2910156 29.939453 C 2.2910156 30.139453 2.1291875 30.300781 1.9296875 30.300781 L 0.98632812 30.300781 C 0.78632812 30.300781 0.63085938 30.142953 0.63085938 29.939453 L 0.63085938 28.246094 C 0.63085938 28.047469 0.79464062 27.884766 0.99414062 27.884766 z M 4.8378906 27.884766 L 5.7128906 27.884766 C 5.9366406 27.884766 6.1113281 28.059578 6.1113281 28.283203 L 6.1113281 29.902344 C 6.1113281 30.122219 5.9320156 30.300781 5.7128906 30.300781 L 4.8378906 30.300781 C 4.6185156 30.300781 4.4394531 30.122219 4.4394531 29.902344 L 4.4394531 28.283203 C 4.4394531 28.059328 4.6143906 27.884766 4.8378906 27.884766 z M 8.6152344 27.884766 L 9.578125 27.884766 C 9.77675 27.884766 9.9316406 28.039406 9.9316406 28.238281 L 9.9316406 28.814453 L 8.2578125 28.814453 C 8.2580625 28.739453 8.2597656 28.238281 8.2597656 28.238281 C 8.2597656 28.039406 8.4162344 27.884766 8.6152344 27.884766 z M 39.517578 29.685547 C 39.250453 29.685547 39.033203 29.902453 39.033203 30.173828 C 39.033203 30.449453 39.250453 30.664062 39.517578 30.664062 C 39.786578 30.664062 40 30.449453 40 30.173828 C 40 29.902203 39.786531 29.685547 39.519531 29.685547 L 39.517578 29.685547 z M 39.517578 29.761719 L 39.519531 29.761719 C 39.736531 29.761719 39.910156 29.945531 39.910156 30.175781 C 39.910156 30.405906 39.736531 30.590266 39.519531 30.587891 C 39.302531 30.587891 39.126953 30.406203 39.126953 30.173828 C 39.126953 29.945828 39.302703 29.761719 39.517578 29.761719 z M 39.494141 29.900391 C 39.429141 29.900391 39.385469 29.905484 39.339844 29.912109 L 39.339844 30.457031 L 39.427734 30.457031 L 39.427734 30.222656 L 39.488281 30.222656 C 39.557656 30.222656 39.592344 30.249109 39.605469 30.318359 C 39.616219 30.389984 39.629328 30.439656 39.642578 30.457031 L 39.732422 30.457031 C 39.723672 30.439656 39.712344 30.409094 39.699219 30.324219 C 39.688219 30.243719 39.655297 30.199906 39.607422 30.191406 L 39.607422 30.185547 C 39.666047 30.168047 39.712891 30.126062 39.712891 30.054688 C 39.712891 30.002187 39.696812 29.965156 39.664062 29.941406 C 39.631687 29.917531 39.576891 29.900391 39.494141 29.900391 z M 39.490234 29.966797 C 39.588109 29.966797 39.623047 30.01475 39.623047 30.0625 C 39.623047 30.13 39.561984 30.15625 39.490234 30.15625 L 39.427734 30.15625 L 39.427734 29.970703 C 39.442859 29.968328 39.461984 29.966797 39.490234 29.966797 z "/>
</svg>
