<svg xmlns="http://www.w3.org/2000/svg" width="40" height="40" >
<path d="M 12.878894,6.0057938e-4 C 12.676621,0.00687784 12.458778,0.08159807 12.211711,0.27654422 11.606452,0.04314201 11.019635,-0.03793932 10.494853,0.43722586 9.6844866,0.33211298 9.4211456,0.54901167 9.2216278,0.80223712 9.0437385,0.79854856 7.8904477,0.61937381 7.361586,1.4082792 6.0325297,1.2510123 5.6124806,2.1900311 6.088417,3.0656736 5.8169779,3.4858903 5.5357193,3.9010214 6.1705043,4.7021102 5.945949,5.1482866 6.085142,5.6322988 6.6141099,6.2180538 6.474509,6.8452771 6.7489157,7.2877929 7.2411097,7.6326736 c -0.092052,0.8583175 0.7871171,1.3573353 1.0496198,1.5351688 0.100804,0.5001188 0.3108956,0.9720486 1.3150845,1.2329856 0.1656053,0.745314 0.769121,0.874022 1.353535,1.030451 -1.9315775,1.122776 -3.5880218,2.600046 -3.5767885,6.22473 L 7.099631,18.160738 c -2.2148145,1.346885 -4.2074769,5.675916 -1.0914794,9.194582 0.2035361,1.101427 0.544879,1.892568 0.8488166,2.768155 0.4545763,3.528222 3.4213098,5.180307 4.2037888,5.375689 1.14664,0.873407 2.367834,1.70216 4.020422,2.282662 1.557859,1.606705 3.2456,2.219062 4.942562,2.218056 0.02488,-1.6e-5 0.05022,2.79e-4 0.0751,0 1.696962,0.0011 3.384648,-0.611295 4.942563,-2.218056 1.652532,-0.580502 2.873781,-1.409255 4.020422,-2.282662 0.782478,-0.195376 3.7492,-1.847467 4.203788,-5.375689 0.30391,-0.875587 0.645275,-1.666728 0.848817,-2.768155 3.115941,-3.518945 1.123335,-7.848256 -1.091536,-9.195141 l -0.283348,-0.504662 c 0.01121,-3.624405 -1.645211,-5.101674 -3.576789,-6.22473 0.584414,-0.156395 1.187941,-0.285104 1.353535,-1.03045 1.004183,-0.260983 1.21432,-0.7329067 1.315085,-1.2329864 0.262547,-0.1777944 1.141666,-0.6768514 1.049619,-1.5351688 0.492183,-0.3449142 0.766607,-0.7874524 0.627,-1.4146199 0.528968,-0.585755 0.668189,-1.0697391 0.443606,-1.5159435 0.63488,-0.8007535 0.353208,-1.2158845 0.08215,-1.6361013 C 34.50936,2.1898746 34.089647,1.2508558 32.760087,1.4081227 32.231393,0.61921732 31.078438,0.79839207 30.900157,0.80208064 30.700639,0.54885519 30.43741,0.3319565 29.627044,0.43706937 29.102262,-0.0380958 28.515445,0.04298552 27.910186,0.27639333 27.191475,-0.2907512 26.715874,0.16387538 26.172649,0.33576801 25.302483,0.0514301 25.103524,0.44089206 24.675986,0.5994891 23.72702,0.39895981 23.438641,0.83555714 22.983718,1.2963481 L 22.454532,1.2858692 C 21.023202,2.1293765 20.312148,3.8469615 20.060096,4.7299253 19.807927,3.8467939 19.098499,2.1292089 17.667448,1.2858692 l -0.529186,0.010479 C 16.682781,0.83555714 16.394402,0.3989654 15.445435,0.5994891 15.017897,0.44089206 14.819497,0.0514301 13.948773,0.33576801 13.592229,0.22295946 13.264321,-0.01153815 12.878195,4.4409489e-4 Z" fill="#000000" />
<path d="M 12.929688 1.0136719 C 13.128422 1.2593916 13.405821 1.4989744 13.111328 1.78125 C 12.705418 1.523928 12.297985 1.2668813 11.333984 1.0839844 C 11.551224 1.3298495 11.998867 1.5764005 11.726562 1.8222656 C 11.216926 1.624648 10.653279 1.4817435 10.029297 1.3984375 C 10.328119 1.6479185 10.576924 1.8926959 10.332031 2.0859375 C 9.7866268 1.9156075 9.036982 1.6851279 8.3027344 1.8828125 L 8.7675781 2.3574219 C 8.8191621 2.4209657 7.6794188 2.4067912 6.9277344 2.4179688 C 7.2020852 2.8048208 7.4815078 3.1795851 7.6445312 3.84375 C 7.5700334 3.920377 7.1969213 3.877807 6.8457031 3.84375 C 7.205841 4.6134526 7.8325156 4.8073469 7.9785156 5.1367188 C 7.7584872 5.3058282 7.4527655 5.2614726 7.1191406 5.1464844 C 7.3784018 5.6887591 7.921912 6.0599321 8.3515625 6.5 C 8.2429175 6.5782635 8.0528497 6.6245523 7.6035156 6.5703125 C 8.0004833 6.9986329 8.4804541 7.3900583 9.0488281 7.7421875 C 8.948175 7.8602606 8.6023339 7.857375 8.28125 7.8652344 C 8.796084 8.3767711 9.4590582 8.641898 10.080078 8.9765625 C 9.7705294 9.1912536 9.5495349 9.1396472 9.3125 9.1367188 C 9.7517184 9.5030378 10.498068 9.6948862 11.191406 9.9160156 C 11.059545 10.12405 10.928385 10.179881 10.646484 10.238281 C 11.38034 10.65056 12.430108 10.463144 12.726562 10.673828 C 12.654993 10.881053 12.452841 11.014357 12.210938 11.126953 C 13.392395 11.196589 16.624797 11.083965 17.244141 8.6015625 C 16.036096 7.2542357 13.830622 5.6715502 10.041016 3.7167969 C 12.990498 4.72014 15.651705 6.0560648 17.880859 7.8945312 C 20.503623 6.6548387 18.695557 3.5284786 17.416016 2.2871094 C 17.351137 2.6149053 17.277289 2.8217055 17.193359 2.8828125 C 16.776719 2.4294545 16.436719 1.9655813 15.900391 1.5292969 C 15.898647 1.7855403 16.02829 2.0642656 15.708984 2.2675781 C 15.421443 1.8748579 15.031699 1.524034 14.515625 1.2265625 C 14.764195 1.6617347 14.559418 1.7942554 14.425781 1.9746094 C 14.031607 1.6315171 13.656557 1.2828811 12.929688 1.0136719 z M 27.279297 1.0136719 C 26.552427 1.2828811 26.177377 1.6315172 25.783203 1.9746094 C 25.649566 1.7942554 25.444789 1.6617347 25.693359 1.2265625 C 25.177285 1.5240339 24.787541 1.8748579 24.5 2.2675781 C 24.180694 2.0642657 24.310338 1.7855402 24.308594 1.5292969 C 23.772266 1.9655812 23.432265 2.4294546 23.015625 2.8828125 C 22.931695 2.8217055 22.857848 2.6149053 22.792969 2.2871094 C 21.513428 3.5284785 19.705361 6.6548387 22.328125 7.8945312 C 24.557601 6.0544416 27.22176 4.7164586 30.173828 3.7128906 C 26.379453 5.6698344 24.173792 7.2529473 22.964844 8.6015625 C 23.584187 11.083965 26.814636 11.196589 27.996094 11.126953 C 27.754191 11.014357 27.552038 10.881053 27.480469 10.673828 C 27.776923 10.463144 28.828643 10.65056 29.5625 10.238281 C 29.280599 10.179881 29.149438 10.12405 29.017578 9.9160156 C 29.710916 9.6948862 30.457266 9.5030378 30.896484 9.1367188 C 30.659449 9.1396487 30.438454 9.1912537 30.128906 8.9765625 C 30.749925 8.641898 31.410947 8.3767711 31.925781 7.8652344 C 31.604698 7.8573744 31.258856 7.860265 31.158203 7.7421875 C 31.726577 7.3900583 32.206549 6.9986329 32.603516 6.5703125 C 32.154182 6.6245525 31.964114 6.578261 31.855469 6.5 C 32.285119 6.0599321 32.828629 5.6887591 33.087891 5.1464844 C 32.754266 5.2614726 32.450498 5.3058278 32.230469 5.1367188 C 32.376469 4.8073469 33.00119 4.6134526 33.361328 3.84375 C 33.010109 3.877807 32.636998 3.920377 32.5625 3.84375 C 32.72582 3.1793057 33.006927 2.8048207 33.28125 2.4179688 C 32.529565 2.4068067 31.389822 2.4209789 31.441406 2.3574219 L 31.90625 1.8828125 C 31.172003 1.6851278 30.420404 1.9136544 29.875 2.0839844 C 29.630107 1.8907429 29.878949 1.6479185 30.177734 1.3984375 C 29.553752 1.4817432 28.990106 1.624648 28.480469 1.8222656 C 28.208164 1.5764005 28.65776 1.3298494 28.875 1.0839844 C 27.910999 1.2668812 27.503566 1.523928 27.097656 1.78125 C 26.803163 1.4989743 27.080564 1.2593917 27.279297 1.0136719 z " fill="#75a928" />
<path d="M 20.044922 11.240234 C 17.94898 11.185714 15.938456 12.794639 15.933594 13.728516 C 15.927794 14.863252 17.59111 16.025235 20.060547 16.054688 C 22.582351 16.072747 24.191115 15.126141 24.199219 13.955078 C 24.208419 12.628313 21.90474 11.219779 20.044922 11.240234 z M 13.716797 12.029297 C 10.806422 12.083547 8.5823649 14.098034 8.6855469 17.429688 C 8.801066 18.889464 16.295745 12.344354 15.001953 12.126953 C 14.562958 12.052833 14.132565 12.021547 13.716797 12.029297 z M 25.988281 12.140625 C 25.572533 12.132887 25.142085 12.166114 24.703125 12.240234 C 23.409334 12.45758 30.904018 19.000848 31.019531 17.541016 C 31.122713 14.209069 28.898522 12.194794 25.988281 12.140625 z M 24.748047 16.207031 A 4.8135566 4.0797096 55.965773 0 0 22.609375 16.783203 A 4.8139534 4.0800459 55.965773 0 0 27.916016 24.816406 A 4.8135566 4.0797096 55.965773 0 0 24.748047 16.207031 z M 15.560547 16.427734 A 4.0797096 4.8135566 34.034227 0 0 15.382812 16.429688 A 4.0797096 4.8135566 34.034227 0 0 12.214844 25.039062 A 4.0797096 4.8135566 34.034227 0 0 17.521484 17.007812 A 4.0797096 4.8135566 34.034227 0 0 15.560547 16.427734 z M 31.4375 18.890625 C 29.667948 18.919972 30.982015 27.310151 32.585938 26.597656 C 34.407137 25.132682 34.993676 20.842174 31.617188 18.914062 C 31.553591 18.897022 31.494582 18.889678 31.4375 18.890625 z M 8.2832031 19.001953 C 8.2261269 19.001012 8.1651518 19.010298 8.1015625 19.027344 C 4.7250742 20.955457 5.3116124 25.244178 7.1328125 26.708984 C 8.7367349 27.421478 10.052565 19.031121 8.2832031 19.001953 z M 20.263672 24.773438 A 4.5486654 4.1944215 0 0 0 15.605469 28.990234 A 4.548828 4.1945714 0 0 0 24.703125 28.990234 A 4.5486654 4.1944215 0 0 0 20.263672 24.773438 z M 30.207031 26.355469 C 29.141131 26.383255 27.870198 27.393753 26.662109 28.757812 C 25.254475 30.4066 24.471173 33.414285 25.498047 34.382812 C 26.479875 35.135281 29.115553 35.029606 31.0625 32.328125 C 32.476225 30.513743 32.00284 27.484351 31.195312 26.679688 C 30.895421 26.447727 30.562331 26.346207 30.207031 26.355469 z M 9.7890625 27 C 9.4073294 26.983635 9.0501913 27.062716 8.7363281 27.253906 C 7.8967832 27.89281 7.7417908 30.067835 8.9375 32.205078 C 10.71047 34.752064 13.205269 35.006397 14.232422 34.386719 C 15.318145 33.574955 14.724829 30.821322 13.423828 29.253906 C 12.304014 27.95461 10.934262 27.049094 9.7890625 27 z M 20.173828 34.509766 C 18.357881 34.464329 15.573612 35.236463 15.607422 36.226562 C 15.578416 36.901851 17.793378 38.849413 20.052734 38.751953 C 22.234352 38.789565 24.489314 36.845319 24.458984 35.984375 C 24.454178 35.097779 22.001176 34.430006 20.173828 34.509766 z " fill="#bc1142" />
</svg>
