<svg xmlns="http://www.w3.org/2000/svg" height="40" width="40">
<path fill="#ee0000" d="m 26.681376,22.17941 c 2.628842,0 6.432362,-0.54216 6.432362,-3.66903 A 2.941949,2.941949 0 0 0 33.048598,17.7917 L 31.483061,10.99159 C 31.121621,9.4954 30.804311,8.81665 28.177571,7.50328 26.13922,6.46099 21.698979,4.73995 20.385608,4.73995 c -1.22301,0 -1.578145,1.57605 -3.036511,1.57605 -1.40373,0 -2.446021,-1.17678 -3.759391,-1.17678 -1.260835,0 -2.082479,0.85947 -2.7171,2.62674 0,0 -1.7672707,4.9845 -1.9942211,5.70738 a 1.3364854,1.3364854 0 0 0 -0.046231,0.40767 c 0,1.93748 7.6280541,8.28999 17.8492251,8.28999 m 6.835829,-2.39138 c 0.363541,1.72104 0.363541,1.90176 0.363541,2.12871 0,2.94195 -3.307591,4.57473 -7.655372,4.57473 -9.826109,0.006 -18.4334122,-5.75151 -18.4334122,-9.55713 A 3.87917,3.87917 0 0 1 8.109275,15.38561 C 4.5747308,15.56212 0,16.19254 0,20.23142 0,26.8466 15.674284,35 28.085106,35 37.60021,35 40,30.69635 40,27.2984 40,24.62543 37.688469,21.59102 33.521408,19.77962" />
<path d="m 33.517205,19.77962 c 0.363541,1.72104 0.363541,1.90176 0.363541,2.12871 0,2.94195 -3.307591,4.57473 -7.655372,4.57473 -9.826109,0.006 -18.4334118,-5.75151 -18.4334118,-9.55713 a 3.87917,3.87917 0 0 1 0.3173102,-1.54032 l 0.7691095,-1.90387 a 1.3490938,1.3490938 0 0 0 -0.046231,0.39927 c 0,1.93748 7.6280541,8.28999 17.8492251,8.28999 2.628842,0 6.432362,-0.54216 6.432362,-3.66903 a 2.941949,2.941949 0 0 0 -0.06514,-0.71868 z" />
</svg>
