<?xml version="1.0" encoding="UTF-8" standalone="no"?>
<svg
   xmlns:dc="http://purl.org/dc/elements/1.1/"
   xmlns:cc="http://creativecommons.org/ns#"
   xmlns:rdf="http://www.w3.org/1999/02/22-rdf-syntax-ns#"
   xmlns:svg="http://www.w3.org/2000/svg"
   xmlns="http://www.w3.org/2000/svg"
   id="svg28"
   height="40"
   width="40"
   version="1.1">
  <metadata
     id="metadata34">
    <rdf:RDF>
      <cc:Work
         rdf:about="">
        <dc:format>image/svg+xml</dc:format>
        <dc:type
           rdf:resource="http://purl.org/dc/dcmitype/StillImage" />
        <dc:title></dc:title>
      </cc:Work>
    </rdf:RDF>
  </metadata>
  <defs
     id="defs32" />
  <path
     id="path2"
     style="fill:#ffffff;stroke-width:1.32159317"
     d="m 35.898436,31.097748 c -0.751987,-0.171807 -1.550229,-0.281499 -2.356401,-0.281499 -1.381065,0 -2.636578,0.24053 -3.563015,0.625114 -0.103085,0.05154 -0.174451,0.158591 -0.174451,0.278856 0,0.04493 0.0093,0.08987 0.02775,0.126873 0.108371,0.317182 -0.07137,0.659475 -0.967406,0.859035 -1.329523,0.290751 -2.168735,1.663886 -2.648473,2.117193 -0.56432,0.535245 -2.155519,0.864321 -1.91631,0.543174 0.187666,-0.247138 0.90397,-1.025556 1.338774,-1.866089 0.391191,-0.750665 0.73877,-0.964763 1.215865,-1.682388 0.141411,-0.210134 0.684586,-0.948904 0.843177,-1.533048 0.177093,-0.570929 0.117622,-1.287232 0.186345,-1.581948 0.0978,-0.425553 0.49824,-1.346703 0.528637,-1.870054 0.01718,-0.292072 -1.230403,0.42291 -1.822477,0.42291 -0.592074,0 -1.16961,-0.355509 -1.698247,-0.379297 -0.654189,-0.03172 -1.075777,0.503527 -1.669173,0.408372 -0.337006,-0.05286 -0.623792,-0.350222 -1.213222,-0.371368 -0.841855,-0.03172 -1.871376,0.466523 -3.802224,0.405729 -1.900451,-0.06211 -3.655526,-2.402656 -3.894735,-2.774024 -0.281499,-0.434804 -0.625113,-0.434804 -0.997803,-0.09119 -0.374011,0.33965 -0.836568,0.07137 -0.966084,-0.157269 -0.249781,-0.436126 -0.915864,-1.70882 -1.948029,-1.977104 -1.4273203,-0.370046 -2.1502318,0.790313 -2.0563987,1.711464 0.095155,0.937009 0.701766,1.200006 0.9832654,1.698247 0.2788561,0.496919 0.4229098,0.819388 0.9489043,1.040094 0.375332,0.155948 0.514099,0.385905 0.403085,0.692514 -0.0978,0.266962 -0.486346,0.329077 -0.7440565,0.340972 C 9.3925627,27.829448 9.0119439,27.68143 8.7330877,27.504336 8.410619,27.296846 8.1463004,27.011382 7.8661226,26.526358 7.5383675,25.989791 7.0242678,25.75719 6.425586,25.75719 c -0.2854641,0 -0.5537475,0.07533 -0.7903127,0.195596 -0.9383311,0.490311 -2.056399,0.778418 -3.2590488,0.778418 l -1.3585978,0.0013 C 3.6198437,34.446665 10.919003,40 19.515966,40 c 6.865677,0 12.904036,-3.54187 16.38247,-8.902252" />
  <path
     id="path4"
     style="fill:#000000;stroke-width:1.32159317"
     d="m 35.898436,31.100392 c -0.751987,-0.174451 -1.550229,-0.282821 -2.356401,-0.282821 -1.381065,0 -2.636578,0.24053 -3.563015,0.625113 -0.103085,0.05154 -0.174451,0.15727 -0.174451,0.278856 0,0.04361 0.0093,0.08987 0.02775,0.125552 0.108371,0.318504 -0.07137,0.662118 -0.967406,0.860357 -1.329523,0.292072 -2.168735,1.662564 -2.648473,2.115871 -0.56432,0.536566 -2.155519,0.865643 -1.91631,0.545817 0.187666,-0.249781 0.90397,-1.028199 1.338774,-1.868732 0.391191,-0.749344 0.73877,-0.964763 1.215865,-1.681067 0.141411,-0.210133 0.684586,-0.950225 0.843177,-1.533048 0.177093,-0.57225 0.117622,-1.287232 0.186345,-1.581947 0.0978,-0.425553 0.49824,-1.346703 0.528637,-1.868733 0.01718,-0.294715 -1.230403,0.420267 -1.822477,0.420267 -0.592074,0 -1.16961,-0.354187 -1.698247,-0.377976 -0.654189,-0.03304 -1.075777,0.503527 -1.669173,0.408373 -0.337006,-0.05286 -0.623792,-0.350223 -1.213222,-0.37269 -0.841855,-0.0304 -1.871376,0.467844 -3.802224,0.405729 -1.900451,-0.06211 -3.655526,-2.400013 -3.894735,-2.77138 -0.281499,-0.437448 -0.625113,-0.437448 -0.997803,-0.09383 -0.374011,0.340971 -0.836568,0.07269 -0.966084,-0.155948 -0.249781,-0.437447 -0.915864,-1.710141 -1.948029,-1.978425 -1.4273203,-0.370046 -2.1502318,0.790313 -2.0563987,1.712785 0.095155,0.935688 0.701766,1.198685 0.9832654,1.696926 0.2788561,0.496919 0.4229098,0.820709 0.9489043,1.041415 0.375332,0.154627 0.514099,0.385905 0.403085,0.692515 -0.0978,0.266962 -0.486346,0.329077 -0.7440565,0.340971 C 9.3925627,27.829448 9.0119439,27.682752 8.7330877,27.503015 8.410619,27.29949 8.1463004,27.012704 7.8661226,26.526358 7.5383675,25.991112 7.0242678,25.75719 6.425586,25.75719 c -0.2854641,0 -0.5537475,0.07665 -0.7903127,0.195596 -0.9383311,0.490311 -2.056399,0.77974 -3.2590488,0.77974 H 1.0176267 C 0.35683016,24.775247 0,22.677878 0,20.498571 0,9.7249434 8.7370525,0.99317728 19.515966,0.99317728 c 10.776271,0 19.514645,8.73176612 19.514645,19.50539372 0,3.909273 -1.151107,7.546297 -3.132175,10.601821" />
  <path
     id="path6"
     style="fill:#000000;stroke-width:1.32159317"
     d="m 23.812995,29.311615 c 0.100441,0.09648 0.273569,0.425553 0.06211,0.844498 -0.118943,0.222028 -0.247137,0.376654 -0.474452,0.559034 -0.276212,0.220706 -0.811458,0.474452 -1.546264,0.0066 -0.396477,-0.249781 -0.421588,-0.334363 -0.967406,-0.262997 -0.38987,0.05022 -0.544496,-0.344936 -0.405729,-0.671369 0.141411,-0.326434 0.716304,-0.590752 1.433929,-0.170486 0.32379,0.188988 0.825995,0.590752 1.264764,0.233922 0.183702,-0.144053 0.293394,-0.241851 0.545818,-0.535245 0.01189,-0.01189 0.02775,-0.0185 0.04626,-0.0185 0.01586,0 0.0304,0.0053 0.04097,0.01454" />
  <path
     id="path8"
     style="fill:#e93442;stroke-width:1.32159317"
     d="M 17.996266,10.281334 C 15.74295,10.44389 15.507707,10.687063 15.086118,11.135083 14.491401,11.77077 13.706375,10.314374 13.706375,10.314374 13.234566,10.215254 12.66496,9.45666 12.972891,8.7496077 13.276857,8.0491633 13.837213,8.257975 14.011663,8.4760379 c 0.212777,0.2656402 0.668726,0.7004443 1.2608,0.6845852 0.592074,-0.015859 1.274016,-0.1400888 2.226884,-0.1400888 0.964763,0 1.612344,0.3594733 1.648027,0.6700477 0.03304,0.262997 -0.07797,0.511457 -1.151108,0.590752 m 2.368295,-3.7229278 h -0.01057 c -0.03436,0 -0.06211,-0.026432 -0.06211,-0.05815 0,-0.023789 0.01454,-0.044934 0.03568,-0.054185 0.437447,-0.2299572 1.088993,-0.4149802 1.834371,-0.4889894 0.223349,-0.023789 0.442734,-0.037005 0.652867,-0.037005 h 0.112336 c 1.251548,0.029075 2.251994,0.525994 2.237457,1.1101382 -0.01586,0.5841442 -1.040094,1.0348075 -2.292964,1.0083756 -0.403086,-0.010573 -0.783705,-0.068723 -1.110139,-0.1638775 -0.04097,-0.00925 -0.0674,-0.042291 -0.0674,-0.081939 0,-0.038326 0.02643,-0.071366 0.06872,-0.081939 0.778418,-0.1797367 1.305734,-0.4757735 1.26873,-0.7546297 -0.05022,-0.3687245 -1.069169,-0.5696067 -2.279749,-0.4480201 -0.133481,0.013216 -0.261675,0.030397 -0.387227,0.050221 m 10.163052,8.7502687 c -0.192953,0.64758 -0.466522,1.476219 -1.687674,2.102654 -0.178416,0.09119 -0.244495,-0.05815 -0.163878,-0.198239 0.462558,-0.785026 0.543175,-0.980622 0.677977,-1.288553 0.186345,-0.453306 0.286786,-1.096922 -0.08723,-2.437018 -0.733484,-2.639221 -2.266532,-6.1691967 -3.377992,-7.3123748 -1.074455,-1.1048519 -3.01984,-1.4167479 -4.780203,-0.964763 -0.64758,0.1651992 -1.914988,0.8233526 -4.264781,0.2947153 -4.066542,-0.9158641 -4.669188,1.1193894 -4.901789,2.0061784 -0.235243,0.8867891 -0.795599,3.4070671 -0.795599,3.4070671 -0.186345,1.0282 -0.430839,2.81235 5.885054,4.016322 2.941867,0.559034 3.089885,1.320271 3.222045,1.866089 0.233922,0.979301 0.606611,1.539656 1.026878,1.819834 0.420266,0.280178 0,0.512778 -0.466523,0.559034 -1.251549,0.130838 -5.883733,-1.197363 -8.624717,-2.752879 -2.241422,-1.36917 -2.2784266,-2.600895 -1.765648,-3.647597 -3.3859222,-0.366081 -5.9273458,0.317183 -6.3872603,1.920275 -0.7916343,2.748914 6.0476103,7.445856 13.8357593,9.803578 8.172732,2.472701 16.578065,0.745379 17.512431,-4.389011 0.424231,-2.332612 -1.540978,-4.058612 -4.856855,-4.805312" />
  <g
     transform="matrix(1.3215932,0,0,1.3215932,-0.43612575,0.78568715)"
     id="g3880">
    <path
       id="path10"
       style="fill:#000000"
       d="m 29.7137,22.1489 h 0.133 l 0.201,0.33 h 0.13 l -0.218,-0.336 c 0.113,-0.014 0.198,-0.073 0.198,-0.209 0,-0.151 -0.089,-0.217 -0.268,-0.217 h -0.291 v 0.762 h 0.115 z m 0,-0.098 v -0.237 h 0.157 c 0.079,0 0.165,0.019 0.165,0.112 0,0.118 -0.086,0.125 -0.184,0.125 z" />
    <path
       id="path12"
       style="fill:#000000"
       d="m 30.5965,22.0991 c 0,0.411 -0.334,0.745 -0.746,0.745 -0.412,0 -0.747,-0.334 -0.747,-0.745 0,-0.411 0.335,-0.747 0.747,-0.747 0.412,0 0.746,0.336 0.746,0.747 m -0.746,-0.614 c -0.34,0 -0.615,0.274 -0.615,0.615 0,0.337 0.275,0.611 0.615,0.611 0.338,0 0.613,-0.274 0.613,-0.611 0,-0.341 -0.275,-0.615 -0.613,-0.615" />
  </g>
</svg>
