<?xml version="1.0" encoding="UTF-8" standalone="no"?>
<svg
   xmlns:dc="http://purl.org/dc/elements/1.1/"
   xmlns:cc="http://creativecommons.org/ns#"
   xmlns:rdf="http://www.w3.org/1999/02/22-rdf-syntax-ns#"
   xmlns:svg="http://www.w3.org/2000/svg"
   xmlns="http://www.w3.org/2000/svg"
   id="svg1417"
   version="1.1"
   viewBox="0 0 40 40.000002"
   height="40"
   width="40">
  <defs
     id="defs1411" />
  <metadata
     id="metadata1414">
    <rdf:RDF>
      <cc:Work
         rdf:about="">
        <dc:format>image/svg+xml</dc:format>
        <dc:type
           rdf:resource="http://purl.org/dc/dcmitype/StillImage" />
        <dc:title></dc:title>
      </cc:Work>
    </rdf:RDF>
  </metadata>
  <g
     transform="translate(0,-1082.5197)"
     id="layer1">
    <path
       id="path314"
       style="fill:#0d2c40;fill-opacity:1;fill-rule:nonzero;stroke:none;stroke-width:0.46076623"
       d="m 12.266015,1106.4981 c -0.02627,0 -2.8498401,-0.4137 -2.8770254,-0.4179 -0.4957847,-0.078 -0.7459803,-0.3216 -0.7459803,-0.7248 0,-0.4032 0.3460353,-0.6308 0.6321711,-0.6308 h 4.6643366 v -1.7421 H 9.2857782 c -1.4772172,0 -2.4968927,1.1224 -2.4968927,2.3729 0,1.0943 0.6570526,2.2269 2.160533,2.4592 0.026266,0 2.8502995,0.4137 2.8774855,0.4178 0.495323,0.077 0.746441,0.3221 0.746441,0.7249 0,0.4026 -0.346956,0.6303 -0.634014,0.6303 H 8.5315041 v 0 c -0.6906888,0.021 -1.4173177,0.5496 -1.4173177,1.5864 v 0.1544 h 4.8163896 c 1.476296,0 2.495971,-1.1225 2.495971,-2.373 0,-1.0943 -0.65613,-2.2274 -2.160532,-2.4591 m 24.751439,-1.7736 c 0.69115,-0.02 1.417779,-0.551 1.417779,-1.5882 v -0.1538 h -5.04539 c -1.477217,0 -2.496431,1.1224 -2.496431,2.3729 v 3.6018 c 0,1.2505 1.019214,2.373 2.496431,2.373 h 5.04539 v -0.1544 c 0,-1.0368 -0.726629,-1.5656 -1.417315,-1.5864 v 0 h -3.638211 c -0.285675,0 -0.633094,-0.2277 -0.633094,-0.6303 0,-0.4027 0.264481,-0.7248 0.746903,-0.7248 h 1.57582 c 1.387827,-0.013 2.187256,-0.8594 2.438375,-1.8302 h -3.791645 c -0.682395,0 -0.968992,0.5409 -0.968992,0.5409 v -1.5878 c 0,-0.4032 0.346036,-0.6307 0.632633,-0.6307 z m 2.53053,5.9371 c 0,0.046 -0.03317,0.078 -0.09446,0.078 h -0.122109 v -0.1595 h 0.11934 c 0.0599,0 0.09723,0.027 0.09723,0.081 m 0.122566,-0.013 c 0,-0.1123 -0.08432,-0.1792 -0.215639,-0.1792 h -0.244667 v 0.5428 h 0.121181 v -0.1746 h 0.0963 l 0.117041,0.1746 h 0.141454 l -0.134083,-0.1945 c 0.07003,-0.025 0.118412,-0.08 0.118412,-0.1691 m 0.21057,0.1058 c 0,0.2506 -0.198129,0.4553 -0.459383,0.4553 -0.260335,0 -0.455699,-0.2018 -0.455699,-0.4526 0,-0.251 0.196745,-0.4546 0.458923,-0.4546 0.260331,0 0.456159,0.2012 0.456159,0.4519 m 0.11888,0 c 0,-0.3106 -0.252039,-0.5667 -0.575037,-0.5667 -0.323458,0 -0.578724,0.2588 -0.578724,0.57 0,0.3113 0.252501,0.5671 0.575499,0.5671 0.323458,0 0.578262,-0.2594 0.578262,-0.5704 m -19.554463,-7.7806 v 4.9657 c 0,1.0377 -0.840898,1.878 -1.877163,1.878 -1.037644,0 -1.878083,-0.8403 -1.878083,-1.878 v -4.9657 h -1.808506 v 4.8616 c 0,2.0361 1.650465,3.6866 3.686589,3.6866 2.035206,0 3.685209,-1.6505 3.685209,-3.6866 v -4.8616 z m 9.971904,5.978 c 0,1.2505 -1.019216,2.373 -2.495972,2.373 h -4.653278 v -1.7426 h 4.662955 c 0.286136,0 0.633092,-0.2277 0.633092,-0.6304 0,-0.4028 -0.250657,-0.6474 -0.746901,-0.7249 -0.02627,0 -2.84984,-0.4137 -2.876565,-0.4178 -1.504401,-0.2322 -2.160533,-1.3649 -2.160533,-2.4591 0,-1.2505 1.019215,-2.373 2.496432,-2.373 h 4.653739 v 1.7421 h -4.663876 c -0.286136,0 -0.633093,0.2277 -0.633093,0.6309 0,0.4032 0.25204,0.6464 0.746441,0.7247 0.02719,0 2.850761,0.4143 2.877026,0.418 1.50394,0.2317 2.160533,1.3647 2.160533,2.4591" />
    <path
       id="path318"
       style="fill:#02d35f;fill-opacity:1;fill-rule:nonzero;stroke:none;stroke-width:0.46076623"
       d="m 19.14498,1095.7939 c 0.01293,-0.3649 0.165876,-0.7031 0.43312,-0.9514 0.265861,-0.2498 0.6142,-0.3783 0.979127,-0.3663 0.753815,0.027 1.344056,0.6617 1.319174,1.4145 -0.01382,0.364 -0.166337,0.7018 -0.433581,0.9511 -0.265401,0.2497 -0.61374,0.3783 -0.979588,0.3658 -0.752431,-0.027 -1.343134,-0.6612 -1.318252,-1.4137 m -2.192788,-2.6406 c 0,0 -0.01202,0.6626 -0.01336,0.7363 -0.326223,-0.1084 -2.697787,-0.8746 -4.920524,-0.9524 -1.884995,-0.067 -4.4588341,-0.1562 -8.0965843,2.0794 l -0.1073622,0.068 c -1.7108253,1.0676 -2.89222969,2.3835 -3.50965619,3.9132 -0.19398333,0.4816 -0.45477674,1.5676 -0.19674705,2.5887 0.11150253,0.4473 0.31931102,0.8957 0.598996,1.2975 0.63171004,0.9072 1.69193374,1.5099 2.83371204,1.6117 1.6117609,0.1438 2.8332524,-0.5805 3.2668323,-1.9356 0.2994986,-0.9358 0,-2.308 -1.1440824,-3.0084 -0.9302866,-0.5705 -1.9324537,-0.44 -2.5120971,-0.056 -0.5040784,0.3341 -0.7897532,0.8528 -0.7846855,1.4232 0.011494,1.0109 0.8823681,1.5487 1.5085495,1.5496 0.1820024,0 0.3649269,-0.031 0.5713496,-0.099 0.07326,-0.022 0.1419166,-0.05 0.2179426,-0.097 l 0.023954,-0.016 0.015203,-0.013 h -0.00601 c 0.1428374,-0.095 0.2303833,-0.2543 0.2303833,-0.4234 0,-0.047 -0.00784,-0.094 -0.020741,-0.1418 -0.073717,-0.2549 -0.3262165,-0.4107 -0.5888528,-0.3622 l -0.035017,0.013 -0.048378,0.016 -0.069576,0.024 c -0.1437595,0.037 -0.2525009,0.039 -0.2750783,0.039 -0.074187,0 -0.4349631,-0.1123 -0.4349631,-0.5083 v 0 c 0.00144,-0.1451 0.059441,-0.2465 0.091232,-0.3023 0.1119597,-0.1755 0.4188366,-0.3483 0.8339873,-0.3119 0.5441642,0.047 0.9367375,0.3258 1.1966101,0.852 0.2419019,0.4902 0.1783166,1.092 -0.16219,1.5334 -0.3391234,0.4382 -0.9413455,0.6234 -1.7430784,0.5368 -0.808185,-0.089 -1.4915008,-0.5538 -1.8743971,-1.2786 -0.3741428,-0.7068 -0.3948773,-1.5468 -0.053446,-2.1915 0.8187828,-1.5439 2.3637309,-1.5288 3.211081,-1.3822 1.2035207,0.2083 3.0295383,1.2878 3.714697,3.7874 h 1.6661317 c -0.205963,-0.6376 -0.324841,-2.4821 1.550938,-2.4821 2.0564,0 2.316273,1.4482 2.898681,2.4821 h 1.765196 c -0.464452,-0.6648 -0.790675,-1.4048 -0.687464,-2.0268 0.152053,-0.9183 0.88375,-0.8359 1.894671,-0.7207 0.329909,0.038 0.706355,0.081 1.095702,0.089 1.085105,0 2.069302,-0.193 2.790401,-0.5082 0.466756,-0.2042 0.76441,-0.3387 0.951021,-0.5078 0.06728,-0.055 0.102294,-0.1464 0.13777,-0.2428 l 0.02488,-0.064 c 0.03088,-0.078 0.0705,-0.2451 0.09353,-0.3345 0.04792,-0.1843 -0.115185,-0.086 -0.115185,-0.086 -0.315624,0.1899 -1.108143,0.5515 -1.848594,0.5663 -0.917846,0.018 -2.767362,-0.9234 -2.960423,-1.0239 l -0.01843,-0.022 c -0.04654,-0.111 -0.323919,-0.7672 -0.382898,-0.9059 1.332076,0.8773 2.436073,1.3622 3.281578,1.4373 0.941346,0.084 1.675346,-0.43 1.988668,-0.6489 0.03317,-0.022 0.158042,-0.1071 0.128547,-0.2073 -0.123022,-0.4276 -0.545084,-1.8596 -0.896648,-2.2232 -0.102751,-0.1058 -0.184767,-0.2082 -0.351564,-0.3055 -1.345898,-0.7842 -4.539009,-1.2578 -4.688758,-1.2795 0,0 -0.03686,-0.013 -0.03547,0.03" />
    <path
       id="path322"
       style="fill:#02d35f;fill-opacity:1;fill-rule:nonzero;stroke:none;stroke-width:0.46076623"
       d="m 20.702367,1095.9206 c -0.23453,0 -0.422522,-0.1267 -0.422522,-0.282 0,-0.1558 0.187992,-0.282 0.422522,-0.282 0.233608,0 0.422984,0.1267 0.422984,0.282 0,0.1553 -0.189376,0.282 -0.422984,0.282 m -0.156661,-1.0418 c -0.254342,-0.013 -0.496244,0.081 -0.681473,0.2543 -0.185688,0.1738 -0.294429,0.4087 -0.302262,0.6636 -0.01704,0.5257 0.394416,0.968 0.919228,0.9874 0.255264,0.013 0.497167,-0.082 0.683778,-0.2554 0.18661,-0.1746 0.293968,-0.41 0.30134,-0.6635 0.01797,-0.5266 -0.394415,-0.9685 -0.920611,-0.9864" />
  </g>
</svg>
