<svg xmlns="http://www.w3.org/2000/svg" height="40" width="40">
<path fill="#0b332c" d="m34.702 36.87c-1.0754 0-1.9505-0.87476-1.9505-1.9502v-5.7812c0-1.0754 0.87509-1.9509 1.9505-1.9509h4.4376c0.34768 0 0.63053 0.28286 0.63053 0.63021s-0.28286 0.62988-0.63053 0.62988h-4.4376c-0.38042 0-0.68979 0.31003-0.68979 0.69077v2.2753h4.3522c0.32934 0 0.59714 0.26812 0.59714 0.59747s-0.2678 0.59714-0.59714 0.59714h-4.3522v2.3113c0 0.38074 0.30937 0.68979 0.68979 0.68979h4.4376c0.34768 0 0.63053 0.28318 0.63053 0.63054 0 0.34768-0.28286 0.62988-0.63053 0.62988zm-19.899 0.12735c-1.2797 0-2.2655-0.32476-2.9301-0.96577-0.66393-0.6397-1.0005-1.6022-1.0005-2.861v-5.3782c0-0.403 0.32738-0.73071 0.73006-0.73071 0.40301 0 0.73071 0.32771 0.73071 0.73071v5.1854c0 0.94187 0.20298 1.648 0.60336 2.0979 0.40235 0.4531 1.0299 0.68259 1.8664 0.68259 0.8358 0 1.464-0.22949 1.8664-0.68259 0.40006-0.45015 0.60271-1.156 0.60271-2.0979v-5.1854c0-0.403 0.32804-0.73071 0.73104-0.73071 0.403 0 0.73071 0.32771 0.73071 0.73071v5.3782c0 1.2581-0.3372 2.2206-1.0015 2.861-0.66458 0.64101-1.6497 0.96577-2.9294 0.96577m10.976 0c-1.6477 0-2.9032-0.46815-3.7302-1.3914-0.23932-0.26714-0.22426-0.67932 0.0347-0.93795l0.0026-0.0029 0.0026-0.0026c0.13128-0.1303 0.30545-0.20167 0.49074-0.20167 0.1961 0 0.38074 0.08348 0.50744 0.23015 0.23048 0.26616 0.49402 0.48289 0.7844 0.64363 0.50646 0.28122 1.1435 0.42363 1.8932 0.42363 0.7114 0 1.2791-0.12539 1.6873-0.37321 0.42036-0.25405 0.63381-0.62039 0.63381-1.0892 0-0.37911-0.19315-0.68848-0.57423-0.9183-0.37059-0.22295-0.99589-0.41446-1.9119-0.58634-0.88982-0.16598-1.6071-0.37354-2.1322-0.61711-0.51923-0.2403-0.90062-0.5405-1.134-0.89408-0.23342-0.35095-0.35161-0.7867-0.35161-1.2951 0-0.53658 0.1506-1.0322 0.44753-1.4726 0.29759-0.44131 0.73399-0.79717 1.2974-1.0571 0.56637-0.26125 1.2368-0.39351 1.9931-0.39351 0.88393 0 1.6484 0.16172 2.2723 0.48125 0.41905 0.21411 0.79848 0.5094 1.1288 0.87738 0.25208 0.28188 0.22851 0.71827-0.05336 0.97265-0.12702 0.11426-0.29104 0.17711-0.46128 0.17711-0.21574 0-0.41545-0.09822-0.54705-0.26878-0.18726-0.24357-0.39809-0.44196-0.62759-0.58929-0.42429-0.27271-0.99491-0.41086-1.6968-0.41086-0.69274 0-1.2398 0.14143-1.6258 0.42036-0.39253 0.28384-0.5919 0.65443-0.5919 1.1007 0 0.41872 0.19512 0.75494 0.58044 0.99917 0.3742 0.238 1.0221 0.43771 1.9803 0.60991 0.86952 0.15616 1.5688 0.35652 2.0789 0.59452 0.50417 0.23473 0.8764 0.53068 1.1056 0.87934 0.22818 0.34735 0.34375 0.78539 0.34375 1.302 0 0.55524-0.15976 1.0499-0.4747 1.4703-0.31756 0.42265-0.76869 0.75134-1.34 0.9769-0.57684 0.22753-1.2535 0.3431-2.0124 0.3431m-21.879 0.0026c-1.6484 0-2.9032-0.46848-3.7305-1.3917-0.23932-0.26682-0.22393-0.67899 0.0347-0.93795l0.003954-4e-3c0.13161-0.13095 0.30643-0.20298 0.49238-0.20298 0.19643 0 0.3814 0.08381 0.50711 0.23015 0.22982 0.26583 0.49336 0.48256 0.78408 0.64363 0.50679 0.28155 1.1439 0.42396 1.8936 0.42396 0.71107 0 1.2787-0.12539 1.6876-0.37321 0.42036-0.25405 0.63348-0.62039 0.63348-1.0889 0-0.37976-0.19348-0.68848-0.57423-0.9183-0.37092-0.22355-0.99655-0.4154-1.9122-0.58727-0.88949-0.16566-1.6068-0.37354-2.1322-0.61646-0.5189-0.24062-0.90095-0.54149-1.134-0.89408-0.23309-0.35128-0.35128-0.78702-0.35128-1.2951 0-0.5369 0.1506-1.0319 0.4472-1.4722 0.29759-0.44196 0.73432-0.7975 1.2977-1.0574 0.56571-0.26092 1.2362-0.39351 1.9931-0.39351 0.88393 0 1.6487 0.16205 2.272 0.48125 0.4197 0.21444 0.79914 0.50973 1.1285 0.87738 0.25274 0.28187 0.22851 0.71762-0.052704 0.97232-0.12702 0.11426-0.29104 0.17711-0.46161 0.17711-0.21574 0-0.41512-0.09789-0.54673-0.26845-0.18628-0.24324-0.3981-0.44196-0.62759-0.58961-0.42461-0.27304-0.99524-0.41119-1.6968-0.41119-0.69306 0-1.2398 0.14176-1.6264 0.42068-0.3922 0.28482-0.59125 0.65509-0.59125 1.1007 0 0.41872 0.19512 0.75494 0.58012 0.99949 0.37452 0.23801 1.0221 0.43738 1.981 0.60991 0.86854 0.1555 1.5682 0.35554 2.0792 0.5942 0.50417 0.23571 0.87542 0.53167 1.1046 0.87902 0.22851 0.34702 0.3444 0.78506 0.3444 1.3026 0 0.55556-0.15976 1.0499-0.47536 1.4696-0.31756 0.42298-0.76836 0.75199-1.3403 0.97756-0.57652 0.22753-1.2532 0.34277-2.0114 0.34277"/>
<path fill="#2fb978" d="m37.86 8.3037c-0.25147-0.25938-0.66532-0.25938-0.91627 0-0.28258 0.28152-0.24884 0.7676 0.10122 1.0001 0.21404 0.14182 0.49978 0.14182 0.7133 0 0.349-0.23249 0.38327-0.71857 0.10175-1.0001m-0.83771-2.2031c-1.7313-0.40541-3.2865 1.1503-2.8801 2.8806 0.20613 0.88094 0.90625 1.5805 1.7882 1.7872 1.7313 0.407 3.2876-1.1498 2.8801-2.8811-0.20772-0.88147-0.9073-1.5805-1.7882-1.7867m-11.43 9.7463c-1.1282-0.41701-1.5642-0.33319-3.0066-0.31315-0.99956 0.01265-1.0359-0.02162-2.1768-0.02162-0.35269 0-0.48238 1.6897 0.7929 2.0408 0.5583 0.15341 1.1614 0.25042 1.5816 0.67956 0.1861 0.18979 0.29048 0.47658-0.13918 0.47658h-3.1663c-0.55408 0-1.0771 0.01265-1.5004-0.34584-0.63949-0.54038-0.93788-1.2837-1.2579-2.0213-0.33213-0.76707-0.6901-1.5225-1.1108-2.2453-0.83613-1.4371-1.9417-2.7372-3.4247-3.5317-1.8515-0.99324-4.9941-1.4856-7.4825 0.42545-2.6223 2.0134-2.0608 5.7849 0.23302 7.6301 0.90572 0.72911 2.0866 1.0338 3.2475 0.9653 2.2685-0.13127 3.9413-1.803 3.5259-3.8607-0.13865-0.68852-0.54038-1.3407-1.1456-1.696-0.43019-0.25147-0.94052-0.34057-1.4387-0.34162-0.53563-0.0016-1.1055 0.1086-1.4909 0.48133-0.4555 0.44126-0.5293 1.221-0.16501 1.7403 0.20139 0.28785 0.5293 0.53089 0.47395 0.90572-0.037958 0.25358-0.24725 0.44232-0.49715 0.4982-0.42545 0.0949-0.81504-0.14762-1.1024-0.4439-0.73702-0.75916-0.96793-1.9675-0.56199-2.9454 0.53036-1.2806 2.0055-1.9849 3.3904-1.939 1.7856 0.0601 3.4689 1.2379 4.2007 2.8674 0.73228 1.6306 0.51296 3.6313-0.49609 5.1064-2.2422 3.2771-7.7793 2.8901-10.352 0.12653-1.6137-1.7339-2.4905-3.4162-2.3676-6.5493 0.08646-2.2137 1.3639-4.3947 2.9924-5.9288 2.6534-2.5005 6.1476-4.2102 9.7036-4.9472 2.1594-0.44653 4.3889-0.55092 6.581-0.33213 1.9332 0.1919 3.8549 0.54617 5.7127 1.1213 0.92259 0.28732 1.8299 0.62894 2.7071 1.0317 0.77392 0.35533 1.7882 0.74282 2.3908 1.3565 0-1.1113-0.04323-2.3323-0.04323-3.1827 0-0.32423 0.3411-0.54354 0.63316-0.40489 1.2574 0.58361 4.236 1.9907 6.222 2.899 2.6623 1.2162 2.8505 4.0858 2.9433 6.63 0.0021 0.05694 0.0047 0.11546-0.02056 0.16607-0.08382 0.1745-0.53247 0.12705-0.69695 0.12916-0.31843 0.0032-0.7987 0.0011-1.1171 0.01582-0.63527 0.02741-1.2542 0.01582-1.89-0.01582-1.1751-0.05694-2.3112-0.58097-3.072-1.2173-0.07592-0.06432-0.32159-0.13391-0.43704-0.01371-0.1202 0.12389-0.07908 0.3179-0.01423 0.38432 0.43652 0.44021 0.90941 0.72489 1.4598 1.0091 0.69906 0.35902 1.4614 0.45022 2.2343 0.49504 0.8277 0.04903 1.6612 0.03638 2.4873-0.04797 0.68957-0.07064 0.86776-0.11809 0.18716 0.38749-0.59784 0.44442-1.2911 0.76391-1.9944 1.0001-1.0091 0.34373-2.074 0.51296-3.1373 0.54248-0.64476 0.0174-1.2895-0.01582-1.929-0.09911-0.33108-0.04112-0.65952-0.10122-0.99166-0.13496-0.2694-0.02741-0.54881-0.0775-0.81715-0.01951-0.24409 0.05325-0.4692 0.18504-0.62262 0.3838-0.21035 0.27467-0.2831 1.0286-0.16132 1.3554 0.2346 0.63316 0.75073 1.0011 1.2958 1.3259 0.59046 0.35111 1.367 0.47131 1.5183 1.1424 0.0311 0.14023-1.2241 0.14392-1.3665 0.14182h-1.6707s-0.90783 0.02162-1.2616-0.10702c-0.01107-0.0032-0.02056-0.0084-0.03216-0.01423-0.1919-0.10333-0.2752-0.3606-0.34057-0.55566-0.09331-0.27467-0.25674-0.54934-0.4555-0.8335-0.37747-0.53879-0.95739-1.1282-1.5605-1.3517m12.651-7.4134c0 0.97953-0.7929 1.7724-1.7719 1.7724-0.97848 0-1.7714-0.7929-1.7714-1.7724 0-0.97795 0.7929-1.7708 1.7714-1.7708 0.979 0 1.7719 0.7929 1.7719 1.7708"/>
</svg>
