<?xml version="1.0" encoding="UTF-8" standalone="no"?>
<svg
   xmlns:dc="http://purl.org/dc/elements/1.1/"
   xmlns:cc="http://creativecommons.org/ns#"
   xmlns:rdf="http://www.w3.org/1999/02/22-rdf-syntax-ns#"
   xmlns:svg="http://www.w3.org/2000/svg"
   xmlns="http://www.w3.org/2000/svg"
   id="svg18"
   xml:space="preserve"
   enable-background="new -0.424 -0.244 758 171"
   viewBox="-0.424 -0.244 40 40"
   height="40"
   width="40"
   y="0px"
   x="0px"
   version="1.1"><metadata
     id="metadata24"><rdf:RDF><cc:Work
         rdf:about=""><dc:format>image/svg+xml</dc:format><dc:type
           rdf:resource="http://purl.org/dc/dcmitype/StillImage" /><dc:title></dc:title></cc:Work></rdf:RDF></metadata><defs
     id="defs22" /><circle
     style="fill:#dd4814;stroke-width:0.44124785"
     id="circle2"
     r="20"
     cy="19.755997"
     cx="19.576" /><path
     style="fill:#ffffff;stroke-width:0.44124785"
     id="path4"
     d="m 5.9767412,17.08513 c -1.47553,0 -2.67087,1.19534 -2.67087,2.67087 0,1.47465 1.19534,2.66999 2.67087,2.66999 1.47465,0 2.66999,-1.19534 2.66999,-2.66999 -4.4e-4,-1.47553 -1.19578,-2.67087 -2.66999,-2.67087 z M 25.041731,29.22121 c -1.27741,0.73776 -1.71513,2.36994 -0.97736,3.64647 0.73688,1.27741 2.36906,1.71513 3.64647,0.97736 1.27742,-0.73688 1.71513,-2.36906 0.97737,-3.64647 -0.73733,-1.27609 -2.37039,-1.71425 -3.64648,-0.97736 z M 11.776501,19.756 c 0,-2.63866 1.31095,-4.97022 3.31642,-6.38177 l -1.95208,-3.26964 c -2.33641,1.56157 -4.0744798,3.94784 -4.7968098,6.7427 0.84279,0.68791 1.38243,1.73499 1.38243,2.90871 0,1.17284 -0.53964,2.21992 -1.38243,2.90782 0.72144,2.79575 2.4595198,5.18202 4.7968098,6.74359 l 1.95208,-3.27053 c -2.00547,-1.41066 -3.31642,-3.74178 -3.31642,-6.38088 z m 7.7995,-7.80038 c 4.07448,0 7.41781,3.12404 7.76817,7.10806 l 3.80488,-0.056 c -0.18709,-2.94136 -1.47201,-5.58178 -3.44659,-7.52372 -1.01531,0.38345 -2.18815,0.32476 -3.2017,-0.25945 -1.01531,-0.58598 -1.65203,-1.57437 -1.82632,-2.64749 -0.98663,-0.27225 -2.02533,-0.42139 -3.09888,-0.42139 -1.84619,0 -3.59132,0.43331 -5.14054,1.20064 l 1.85545,3.3248 c 0.9981,-0.46419 2.11181,-0.72541 3.28553,-0.72541 z m 0,15.59988 c -1.17372,0 -2.28743,-0.26122 -3.28509,-0.72586 l -1.85545,3.32481 c 1.54966,0.76777 3.2948,1.20151 5.14054,1.20151 1.07399,0 2.11225,-0.14914 3.09888,-0.42227 0.17429,-1.07311 0.81101,-2.06063 1.82633,-2.64749 1.01442,-0.58509 2.18638,-0.64289 3.20169,-0.25945 1.97458,-1.94149 3.2595,-4.58236 3.44659,-7.52372 l -3.80577,-0.056 c -0.35035,3.98535 -3.69324,7.10851 -7.76772,7.10851 z m 5.46485,-17.26647 c 1.27741,0.73776 2.90959,0.30093 3.64647,-0.97648 0.73777,-1.27742 0.30094,-2.90959 -0.97648,-3.64736 -1.27741,-0.73688 -2.90959,-0.29916 -3.64735,0.97825 -0.73689,1.27653 -0.29917,2.9087 0.97736,3.64559 z" /></svg>