<?xml version="1.0" encoding="UTF-8" standalone="no"?>
<svg
   xmlns:dc="http://purl.org/dc/elements/1.1/"
   xmlns:cc="http://creativecommons.org/ns#"
   xmlns:rdf="http://www.w3.org/1999/02/22-rdf-syntax-ns#"
   xmlns:svg="http://www.w3.org/2000/svg"
   xmlns="http://www.w3.org/2000/svg"
   height="40"
   width="40"
   version="1.1"
   viewBox="0 0 40 40"
   data-name="Ebene 1"
   id="Ebene_1">
  <metadata
     id="metadata69">
    <rdf:RDF>
      <cc:Work
         rdf:about="">
        <dc:format>image/svg+xml</dc:format>
        <dc:type
           rdf:resource="http://purl.org/dc/dcmitype/StillImage" />
        <dc:title>UCS_Logo_Schriftzug</dc:title>
      </cc:Work>
    </rdf:RDF>
  </metadata>
  <defs
     id="defs4">
    <style
       id="style2">.cls-1{fill:#76b82a;}.cls-2{fill:#fff;}.cls-3{fill:#878686;}</style>
  </defs>
  <title
     id="title6">UCS_Logo_Schriftzug</title>
  <path
     style="fill:#76b82a;stroke-width:0.94317371"
     id="path8"
     d="M 33.331755,0 H 13.327043 A 6.6682375,6.6682387 0 0 0 6.6588054,6.6588069 v 0 A 6.6682375,6.6682387 0 0 0 -4.0243581e-7,13.336477 V 33.331761 A 6.6682375,6.6682387 0 0 0 6.6682371,40 H 26.663518 a 6.6682375,6.6682387 0 0 0 6.668237,-6.668239 6.6682375,6.6682387 0 0 0 6.668238,-6.668238 V 6.6682387 A 6.6682375,6.6682387 0 0 0 33.331755,0"
     class="cls-1" />
  <path
     style="fill:#ffffff;stroke-width:0.94317371"
     id="path10"
     d="m 3.6783767,11.582174 h 2.1692994 v 10.912521 c 0,3.772695 1.1318083,4.715868 3.1879268,4.715868 2.0561181,0 3.1879271,-0.943173 3.1879271,-4.715868 V 11.582174 h 2.178731 v 10.818203 c 0,4.715869 -1.744871,6.602217 -5.3572264,6.602217 -3.6123549,0 -5.3666579,-1.886348 -5.3666579,-6.602217 z"
     class="cls-2" />
  <path
     style="fill:#ffffff;stroke-width:0.94317371"
     id="path12"
     d="m 23.126617,16.279179 a 3.9707609,3.9707616 0 0 0 -0.49045,-2.480547 2.8295209,2.8295214 0 0 0 -1.886348,-0.735675 2.6597496,2.6597501 0 0 0 -2.574864,1.320443 c -0.06602,0.188635 -0.499882,0.613063 -0.499882,3.546333 v 4.55553 c 0,4.17826 1.367602,4.715869 3.046451,4.715869 0.660222,0 2.669181,-0.235794 2.688045,-3.565197 h 2.244753 c 0.09432,5.385522 -3.706672,5.385522 -4.819617,5.385522 -2.122141,0 -5.385521,-0.141476 -5.385521,-6.753124 v -4.857345 c 0,-4.819618 2.12214,-6.18722 5.479838,-6.18722 3.357698,0 4.715868,1.744871 4.461212,5.055411 z"
     class="cls-2" />
  <path
     style="fill:#ffffff;stroke-width:0.94317371"
     id="path14"
     d="m 28.295208,23.579344 v 0.499883 c 0,2.310775 1.461919,3.046451 2.829521,3.046451 1.726008,0 3.046451,-0.735676 3.046451,-2.763499 0,-3.772695 -7.65857,-3.357699 -7.65857,-8.488564 0,-3.027588 2.150436,-4.630983 5.008252,-4.630983 3.121905,0 4.866776,1.509077 4.715868,4.979957 h -2.188163 c 0,-1.886348 -0.565904,-3.09361 -2.622022,-3.09361 a 2.3767975,2.3767979 0 0 0 -2.622023,2.49941 c 0,3.772696 7.65857,3.216223 7.65857,8.620609 0,3.593492 -2.480547,4.715869 -5.291204,4.715869 -5.027116,0 -5.027116,-3.772695 -4.979957,-5.432681 z"
     class="cls-2" />
</svg>
