<svg xmlns="http://www.w3.org/2000/svg" width="40" height="40">
<path d="M 31.665292,2.5 H 14.161169 A 5.8347078,5.8347088 0 0 0 8.3264609,8.326456 v 0 A 5.8347078,5.8347088 0 0 0 2.5000058,14.169417 V 31.665291 A 5.8347078,5.8347088 0 0 0 8.3347137,37.5 H 25.830584 A 5.8347078,5.8347088 0 0 0 31.665292,31.665291 5.8347078,5.8347088 0 0 0 37.5,25.830583 V 8.334709 A 5.8347078,5.8347088 0 0 0 31.665292,2.5" fill="#76b82a" />
<path d="m 5.7185858,12.634402 h 1.898137 v 9.548456 c 0,3.301108 0.9903323,4.126385 2.7894362,4.126385 1.799103,0 2.789436,-0.825277 2.789436,-4.126385 v -9.548456 h 1.906389 v 9.465928 c 0,4.126385 -1.526762,5.77694 -4.687573,5.77694 -3.1608101,0 -4.6958252,-1.650555 -4.6958252,-5.77694 z" fill="#ffffff" />
<path d="m 22.735796,16.744282 a 3.4744158,3.4744164 0 0 0 -0.429144,-2.170479 2.4758308,2.4758311 0 0 0 -1.650554,-0.643716 2.3272809,2.3272813 0 0 0 -2.253006,1.155388 c -0.05777,0.165056 -0.437397,0.53643 -0.437397,3.103042 v 3.986088 c 0,3.655978 1.196652,4.126385 2.665645,4.126385 0.577694,0 2.335533,-0.206319 2.352039,-3.119547 h 1.964159 c 0.08253,4.712332 -3.243338,4.712332 -4.217165,4.712332 -1.856873,0 -4.712331,-0.123792 -4.712331,-5.908984 v -4.250177 c 0,-4.217165 1.856873,-5.413817 4.794858,-5.413817 2.937986,0 4.126385,1.526762 3.903561,4.423485 z" fill="#ffffff" />
<path d="m 27.258313,23.131926 v 0.437398 c 0,2.021928 1.279179,2.665644 2.475831,2.665644 1.510257,0 2.665645,-0.643716 2.665645,-2.418061 0,-3.301109 -6.701249,-2.937987 -6.701249,-7.427494 0,-2.649139 1.881631,-4.052111 4.38222,-4.052111 2.731667,0 4.258429,1.320444 4.126385,4.357463 h -1.914643 c 0,-1.650554 -0.495166,-2.706908 -2.294269,-2.706908 a 2.0796978,2.0796982 0 0 0 -2.29427,2.186984 c 0,3.301108 6.701249,2.814194 6.701249,7.543032 0,3.144306 -2.170479,4.126386 -4.629804,4.126386 -4.398726,0 -4.398726,-3.301109 -4.357462,-4.753596 z" fill="#ffffff" />
</svg>
